G04 DipTrace 2.3.1.0*
%INBottom.gbr*%
%MOIN*%
%ADD13C,0.0126*%
%ADD14C,0.0063*%
%ADD15C,0.0252*%
%ADD16C,0.025*%
%ADD17R,0.0531X0.0531*%
%ADD18C,0.0531*%
%ADD19C,0.06*%
%ADD20R,0.06X0.06*%
%ADD21C,0.063*%
%ADD22C,0.1575*%
%ADD23C,0.0665*%
%ADD24C,0.0665*%
%ADD25C,0.1874*%
%ADD26C,0.0591*%
%ADD27C,0.0787*%
%FSLAX44Y44*%
G04*
G70*
G90*
G75*
G01*
%LNBottom*%
%LPD*%
X37437Y51937D2*
D13*
Y53937D1*
X31437Y43937D2*
D14*
X37437Y49937D1*
X36437Y51937D2*
D13*
Y53937D1*
X28437Y43937D2*
D14*
X34437Y49937D1*
X32437Y51937D2*
D13*
Y53937D1*
X33437Y51937D2*
Y53937D1*
X26437Y43937D2*
D14*
X32437Y49937D1*
X25437Y43937D2*
X31437Y49937D1*
X29437Y43937D2*
X35437Y49937D1*
X30437Y51937D2*
D13*
Y53937D1*
Y43937D2*
D14*
X36437Y49937D1*
X34437Y51937D2*
D13*
Y53937D1*
X31437Y51937D2*
Y53937D1*
X14437Y51937D2*
D15*
X13687Y51187D1*
X12937D1*
X8687Y46937D1*
Y39687D1*
X9437Y38937D1*
X14437Y51937D2*
X15437D1*
X18437Y43937D2*
D14*
X24437Y49937D1*
Y51937D2*
D13*
Y53937D1*
X17437Y43937D2*
D14*
X23437Y49937D1*
Y51937D2*
D13*
Y53937D1*
X16437Y43937D2*
D14*
X22437Y49937D1*
Y51937D2*
D13*
Y53937D1*
X21437Y43937D2*
D14*
X27437Y49937D1*
Y51937D2*
D13*
Y53937D1*
X20437Y43937D2*
D14*
X26437Y49937D1*
X29437Y51937D2*
D13*
Y53937D1*
X22437Y43937D2*
D14*
X28437Y49937D1*
Y51937D2*
D13*
Y53937D1*
X26437Y51937D2*
Y53937D1*
X19437Y43937D2*
D14*
X25437Y49937D1*
Y51937D2*
D13*
Y53937D1*
X23437Y43937D2*
D14*
X29437Y49937D1*
X7437Y34811D2*
D15*
Y33843D1*
Y31906D2*
Y30937D1*
Y33843D2*
Y33937D1*
X8187Y33187D1*
Y32437D1*
X7687Y31937D1*
X7406D1*
X7437Y31906D1*
Y30937D2*
X9937D1*
X10437Y30437D1*
X11437D1*
X11937Y30937D1*
X12937D1*
X11437Y43937D2*
D14*
X17437Y49937D1*
X15437Y43937D2*
X21437Y49937D1*
Y51937D2*
D13*
Y53937D1*
X14437Y43937D2*
D14*
X20437Y49937D1*
Y51937D2*
D13*
Y53937D1*
X13437Y43937D2*
D14*
X19437Y49937D1*
Y51937D2*
D13*
Y53937D1*
X12437Y43937D2*
D14*
X18437Y49937D1*
Y51937D2*
D13*
Y53937D1*
X16437Y51937D2*
D15*
X15187Y50687D1*
X13187D1*
X9437Y46937D1*
Y39937D1*
X16437Y51937D2*
X17437D1*
X9437Y39937D2*
X10437D1*
X25892Y6819D2*
X25010Y5937D1*
X14152D1*
X13774D1*
X12892Y6819D1*
X25892D2*
X26055D1*
X26966Y5908D1*
X31466D1*
X33187Y4187D1*
X36437D1*
X37187Y4937D1*
Y6937D1*
X37287D1*
X42437Y27937D2*
Y26937D1*
Y28937D2*
Y27937D1*
Y29937D2*
Y28937D1*
Y30937D2*
Y29937D1*
Y31937D2*
Y30937D1*
Y32937D2*
Y31937D1*
Y33937D2*
Y32937D1*
X16437Y51937D2*
X15687Y52687D1*
X12937D1*
X7687Y47437D1*
Y36187D1*
X6437Y34937D1*
Y33874D1*
X5469Y32906D1*
Y31758D1*
X6016Y31211D1*
Y12358D1*
X8437Y9937D1*
Y5937D1*
X9119Y5255D1*
X13469D1*
X14152Y5937D1*
X37287Y6937D2*
X40022Y9672D1*
Y24522D1*
X42437Y26937D1*
X9075Y7937D2*
D13*
Y9075D1*
X9437Y9437D1*
Y9937D1*
X10165Y7937D2*
Y9165D1*
X10437Y9437D1*
Y9937D1*
X11256Y7937D2*
Y9256D1*
X11437Y9437D1*
Y9937D1*
X12346Y7937D2*
Y9346D1*
X12437Y9437D1*
Y9937D1*
X9620Y6819D2*
Y9120D1*
X9937Y9437D1*
Y18437D1*
X9437Y18937D1*
X10711Y6819D2*
Y9211D1*
X10937Y9437D1*
Y18437D1*
X10437Y18937D1*
X22075Y7937D2*
Y9146D1*
X22437Y9508D1*
Y9937D1*
X23165Y7937D2*
Y9165D1*
X23437Y9437D1*
Y9937D1*
X24256Y7937D2*
Y9256D1*
X24437Y9437D1*
Y9937D1*
X25346Y7937D2*
Y9281D1*
X25437Y9372D1*
Y9937D1*
X22620Y6819D2*
Y9120D1*
X22937Y9437D1*
Y18437D1*
X22437Y18937D1*
X23711Y6819D2*
Y9211D1*
X23937Y9437D1*
Y18437D1*
X23437Y18937D1*
X24437Y14937D2*
Y15937D1*
X23437Y14937D2*
Y15937D1*
X11437Y39937D2*
Y40937D1*
X18437Y56937D2*
D14*
X18937Y56437D1*
Y49687D1*
X18687Y49437D1*
X18187D1*
X12937Y44187D1*
Y39437D1*
X12437Y38937D1*
X13437D2*
X13937Y39437D1*
Y44187D1*
X19187Y49437D1*
X19687D1*
X19937Y49687D1*
Y56437D1*
X19437Y56937D1*
X14437Y38937D2*
X14937Y39437D1*
Y44187D1*
X20187Y49437D1*
X20687D1*
X20937Y49687D1*
Y56437D1*
X20437Y56937D1*
X15437Y38937D2*
X15937Y39437D1*
Y44187D1*
X21187Y49437D1*
X21687D1*
X21937Y49687D1*
Y56437D1*
X21437Y56937D1*
X16437Y38937D2*
X16937Y39437D1*
Y44187D1*
X22187Y49437D1*
X22687D1*
X22937Y49687D1*
Y56437D1*
X22437Y56937D1*
X17437Y38937D2*
X17937Y39437D1*
Y44187D1*
X23187Y49437D1*
X23687D1*
X23937Y49687D1*
Y56437D1*
X23437Y56937D1*
X18437Y38937D2*
X18937Y39437D1*
Y44187D1*
X24187Y49437D1*
X24687D1*
X24937Y49687D1*
Y56437D1*
X24437Y56937D1*
X19437Y38937D2*
X19937Y39437D1*
Y44187D1*
X25187Y49437D1*
X25687D1*
X25937Y49687D1*
Y56437D1*
X25437Y56937D1*
X20437Y38937D2*
X20937Y39437D1*
Y44187D1*
X26187Y49437D1*
X26687D1*
X26937Y49687D1*
Y56437D1*
X26437Y56937D1*
X21437Y38937D2*
X21937Y39437D1*
Y44187D1*
X27187Y49437D1*
X27687D1*
X27937Y49687D1*
Y56437D1*
X27437Y56937D1*
X22437Y38937D2*
X22937Y39437D1*
Y44187D1*
X28187Y49437D1*
X28687D1*
X28937Y49687D1*
Y56437D1*
X28437Y56937D1*
X22437Y14937D2*
D13*
Y15937D1*
Y13937D2*
Y12937D1*
X23437Y38937D2*
D14*
X23937Y39437D1*
Y44187D1*
X29187Y49437D1*
X29687D1*
X29937Y49687D1*
Y56437D1*
X29437Y56937D1*
X24437Y38937D2*
X24937Y39437D1*
Y44187D1*
X30187Y49437D1*
X30687D1*
X30937Y49687D1*
Y56437D1*
X30437Y56937D1*
X25437Y38937D2*
X25937Y39437D1*
Y44187D1*
X31187Y49437D1*
X31687D1*
X31907Y49657D1*
Y56467D1*
X31437Y56937D1*
X26437Y38937D2*
X26937Y39437D1*
Y44187D1*
X32187Y49437D1*
X32687D1*
X32937Y49687D1*
Y56437D1*
X32437Y56937D1*
X27437Y38937D2*
X27937Y39437D1*
Y44187D1*
X33187Y49437D1*
X33687D1*
X33937Y49687D1*
Y56437D1*
X33437Y56937D1*
X28437Y38937D2*
X28898Y39398D1*
Y44148D1*
X34187Y49437D1*
X34687D1*
X34937Y49687D1*
Y56437D1*
X34437Y56937D1*
X28437Y39937D2*
D13*
Y40937D1*
X26437Y39937D2*
Y40937D1*
X25437Y39937D2*
Y40937D1*
X23437Y39937D2*
Y40937D1*
X22437Y39937D2*
Y40937D1*
X21437Y39937D2*
Y40937D1*
X20437Y39937D2*
Y40937D1*
X19437Y39937D2*
Y40937D1*
X18437Y39937D2*
Y40937D1*
X17437Y39937D2*
Y40937D1*
X16437Y39937D2*
Y40937D1*
X15437Y39937D2*
Y40937D1*
X14437Y39937D2*
Y40937D1*
X13437Y39937D2*
Y40937D1*
X12437Y39937D2*
Y40937D1*
X12937Y33937D2*
D15*
Y35453D1*
X13437Y35953D1*
X10937Y33937D2*
Y35453D1*
X10437Y35953D1*
X23437Y13937D2*
D13*
Y12937D1*
X9437Y13937D2*
Y12937D1*
Y14937D2*
Y15937D1*
X10437Y13937D2*
Y12937D1*
X11437Y13937D2*
Y12937D1*
X12437Y13937D2*
Y12937D1*
X11437Y14937D2*
Y15937D1*
X10437Y14937D2*
Y15937D1*
X24437Y13937D2*
Y12937D1*
X25437Y13937D2*
Y12937D1*
X37437Y56937D2*
D14*
X36937Y56437D1*
Y49687D1*
X36687Y49437D1*
X36187D1*
X30937Y44187D1*
Y38937D1*
X20937Y28937D1*
Y14437D1*
X21437Y13937D1*
X36437Y56937D2*
X35937Y56437D1*
Y49687D1*
X35687Y49437D1*
X35187D1*
X29937Y44187D1*
Y38937D1*
X19937Y28937D1*
Y14437D1*
X20437Y13937D1*
X21437Y14937D2*
Y28937D1*
X31437Y38937D1*
Y40937D1*
X20437Y14937D2*
Y28937D1*
X30437Y38937D1*
Y40937D1*
X19437Y14937D2*
Y28937D1*
X29437Y38937D1*
Y40937D1*
X26437Y14937D2*
D13*
Y15937D1*
X25437Y14937D2*
Y15937D1*
X11937Y33937D2*
D15*
Y31937D1*
X10937Y30937D1*
X37287Y7921D2*
D13*
Y8087D1*
X36437Y8937D1*
X33437D1*
X32187Y10187D1*
X30687D1*
X29687Y11187D1*
Y15187D1*
X28937Y15937D1*
X27937D1*
X26437Y17437D1*
Y18937D1*
X36437Y6937D2*
Y8437D1*
X36187Y8687D1*
X33187D1*
X31937Y9937D1*
X30437D1*
X29437Y10937D1*
Y14937D1*
X28937Y15437D1*
X27937D1*
X25437Y17937D1*
Y18937D1*
X13437Y51937D2*
D15*
X12937D1*
X8187Y47187D1*
Y39187D1*
X10437Y36937D1*
X11437Y38937D2*
X13437Y36937D1*
X11801Y6819D2*
D13*
Y9301D1*
X11937Y9437D1*
Y18437D1*
X11437Y18937D1*
X24801Y6819D2*
Y9301D1*
X24937Y9437D1*
Y18437D1*
X24437Y18937D1*
X4872Y57303D2*
D16*
X17990D1*
X34884D2*
X35990D1*
X37884D2*
X42502D1*
X4622Y57055D2*
X17865D1*
X35009D2*
X35865D1*
X38009D2*
X42752D1*
X4376Y56806D2*
X5318D1*
X6556D2*
X17869D1*
X35013D2*
X35861D1*
X38005D2*
X40818D1*
X42056D2*
X42998D1*
X4347Y56557D2*
X5061D1*
X6814D2*
X18002D1*
X35232D2*
X35643D1*
X37872D2*
X40561D1*
X42314D2*
X43025D1*
X4347Y56309D2*
X4928D1*
X6946D2*
X18615D1*
X35259D2*
X35615D1*
X37259D2*
X40428D1*
X42446D2*
X43025D1*
X4347Y56060D2*
X4865D1*
X7005D2*
X18615D1*
X35259D2*
X35615D1*
X37259D2*
X40365D1*
X42505D2*
X43025D1*
X4347Y55811D2*
X4869D1*
X7005D2*
X18615D1*
X35259D2*
X35615D1*
X37259D2*
X40369D1*
X42505D2*
X43025D1*
X4347Y55563D2*
X4928D1*
X6946D2*
X18615D1*
X35259D2*
X35615D1*
X37259D2*
X40428D1*
X42446D2*
X43025D1*
X4347Y55314D2*
X5064D1*
X6810D2*
X18615D1*
X35259D2*
X35615D1*
X37259D2*
X40564D1*
X42310D2*
X43025D1*
X4347Y55065D2*
X5322D1*
X6552D2*
X18615D1*
X35259D2*
X35615D1*
X37259D2*
X40822D1*
X42052D2*
X43025D1*
X4347Y54817D2*
X18615D1*
X35259D2*
X35615D1*
X37259D2*
X43025D1*
X4347Y54568D2*
X18615D1*
X35259D2*
X35615D1*
X37259D2*
X43025D1*
X4347Y54319D2*
X18002D1*
X35259D2*
X35615D1*
X37872D2*
X43025D1*
X4347Y54071D2*
X17869D1*
X35259D2*
X35615D1*
X38005D2*
X43025D1*
X4347Y53822D2*
X17865D1*
X35259D2*
X35615D1*
X38009D2*
X43025D1*
X4347Y53573D2*
X17986D1*
X35259D2*
X35615D1*
X37888D2*
X43025D1*
X4347Y53324D2*
X18084D1*
X35259D2*
X35615D1*
X37790D2*
X43025D1*
X4347Y53076D2*
X18084D1*
X35259D2*
X35615D1*
X37790D2*
X43025D1*
X4347Y52827D2*
X18084D1*
X35259D2*
X35615D1*
X37790D2*
X43025D1*
X4347Y52578D2*
X18084D1*
X35259D2*
X35615D1*
X37790D2*
X43025D1*
X4347Y52330D2*
X13006D1*
X13868D2*
X14008D1*
X14868D2*
X15008D1*
X15868D2*
X18006D1*
X38028D2*
X43025D1*
X4347Y52081D2*
X12502D1*
X16009D2*
X17865D1*
X38028D2*
X43025D1*
X4347Y51832D2*
X12256D1*
X16017D2*
X17857D1*
X38028D2*
X43025D1*
X4347Y51584D2*
X12006D1*
X15903D2*
X17971D1*
X38028D2*
X43025D1*
X4347Y51335D2*
X11756D1*
X14411D2*
X18615D1*
X37259D2*
X43025D1*
X4347Y51086D2*
X11510D1*
X14165D2*
X18615D1*
X37259D2*
X43025D1*
X4347Y50838D2*
X11260D1*
X13888D2*
X18615D1*
X37259D2*
X43025D1*
X4347Y50589D2*
X11010D1*
X12915D2*
X18615D1*
X37259D2*
X43025D1*
X4347Y50340D2*
X10764D1*
X12669D2*
X13018D1*
X13857D2*
X14013D1*
X14857D2*
X15013D1*
X15857D2*
X16013D1*
X16857D2*
X17013D1*
X17857D2*
X18013D1*
X37857D2*
X43025D1*
X4347Y50092D2*
X10514D1*
X12419D2*
X12869D1*
X38005D2*
X43025D1*
X4347Y49843D2*
X10264D1*
X12169D2*
X12853D1*
X38021D2*
X43025D1*
X4347Y49594D2*
X10018D1*
X11923D2*
X12963D1*
X37911D2*
X43025D1*
X4347Y49345D2*
X9768D1*
X11673D2*
X16400D1*
X37290D2*
X43025D1*
X4347Y49097D2*
X9518D1*
X11423D2*
X16154D1*
X37040D2*
X43025D1*
X4347Y48848D2*
X9271D1*
X11177D2*
X15904D1*
X36790D2*
X43025D1*
X4347Y48599D2*
X9021D1*
X10927D2*
X15654D1*
X36544D2*
X43025D1*
X4347Y48351D2*
X8771D1*
X10677D2*
X15408D1*
X36294D2*
X43025D1*
X4347Y48102D2*
X8525D1*
X10431D2*
X15158D1*
X36044D2*
X43025D1*
X4347Y47853D2*
X8275D1*
X10181D2*
X14908D1*
X35798D2*
X43025D1*
X4347Y47605D2*
X8025D1*
X9931D2*
X14662D1*
X35548D2*
X43025D1*
X4347Y47356D2*
X7811D1*
X9685D2*
X14412D1*
X35302D2*
X43025D1*
X4347Y47107D2*
X7771D1*
X9435D2*
X14162D1*
X35052D2*
X43025D1*
X4347Y46859D2*
X7771D1*
X9185D2*
X13916D1*
X34802D2*
X43025D1*
X4347Y46610D2*
X7771D1*
X9103D2*
X13666D1*
X34556D2*
X43025D1*
X4347Y46361D2*
X7771D1*
X9103D2*
X13416D1*
X34306D2*
X43025D1*
X4347Y46113D2*
X7771D1*
X9103D2*
X13170D1*
X34056D2*
X43025D1*
X4347Y45864D2*
X7771D1*
X9103D2*
X12920D1*
X33810D2*
X43025D1*
X4347Y45615D2*
X7771D1*
X9103D2*
X12670D1*
X33560D2*
X43025D1*
X4347Y45366D2*
X7771D1*
X9103D2*
X12424D1*
X33310D2*
X43025D1*
X4347Y45118D2*
X7771D1*
X9103D2*
X12174D1*
X33064D2*
X43025D1*
X4347Y44869D2*
X7771D1*
X9103D2*
X11924D1*
X32814D2*
X43025D1*
X4347Y44620D2*
X7771D1*
X9103D2*
X11678D1*
X32564D2*
X43025D1*
X4347Y44372D2*
X7771D1*
X9103D2*
X11061D1*
X32318D2*
X43025D1*
X4347Y44123D2*
X7771D1*
X9103D2*
X10885D1*
X32068D2*
X43025D1*
X4347Y43874D2*
X7771D1*
X9103D2*
X10857D1*
X32017D2*
X43025D1*
X4347Y43626D2*
X7771D1*
X9103D2*
X10947D1*
X31927D2*
X43025D1*
X4347Y43377D2*
X7771D1*
X9103D2*
X12615D1*
X31259D2*
X43025D1*
X4347Y43128D2*
X7771D1*
X9103D2*
X12615D1*
X31259D2*
X43025D1*
X4347Y42880D2*
X7771D1*
X9103D2*
X12615D1*
X31259D2*
X43025D1*
X4347Y42631D2*
X7771D1*
X9103D2*
X12615D1*
X31259D2*
X43025D1*
X4347Y42382D2*
X7771D1*
X9103D2*
X12615D1*
X31259D2*
X43025D1*
X4347Y42134D2*
X7771D1*
X9103D2*
X12615D1*
X31259D2*
X43025D1*
X4347Y41885D2*
X7771D1*
X9103D2*
X12615D1*
X31259D2*
X43025D1*
X4347Y41636D2*
X7771D1*
X9103D2*
X12615D1*
X31259D2*
X43025D1*
X4347Y41387D2*
X7771D1*
X9103D2*
X11080D1*
X11794D2*
X12080D1*
X31794D2*
X43025D1*
X4347Y41139D2*
X7771D1*
X9103D2*
X10889D1*
X31986D2*
X43025D1*
X4347Y40890D2*
X7771D1*
X9103D2*
X10853D1*
X32021D2*
X43025D1*
X4347Y40641D2*
X7771D1*
X9103D2*
X10936D1*
X31939D2*
X43025D1*
X4347Y40393D2*
X7771D1*
X9103D2*
X11080D1*
X31759D2*
X43025D1*
X4347Y40144D2*
X7771D1*
X9103D2*
X10885D1*
X31759D2*
X43025D1*
X4347Y39895D2*
X7771D1*
X9103D2*
X10850D1*
X31759D2*
X43025D1*
X4347Y39647D2*
X7771D1*
X9306D2*
X10928D1*
X31759D2*
X43025D1*
X4347Y39398D2*
X7771D1*
X9790D2*
X10084D1*
X10790D2*
X11084D1*
X31759D2*
X43025D1*
X4347Y39149D2*
X7771D1*
X31759D2*
X43025D1*
X4347Y38901D2*
X7896D1*
X31755D2*
X43025D1*
X4347Y38652D2*
X8143D1*
X31595D2*
X43025D1*
X4347Y38403D2*
X8393D1*
X12646D2*
X13228D1*
X13646D2*
X14228D1*
X14646D2*
X15228D1*
X15646D2*
X16228D1*
X16646D2*
X17228D1*
X17646D2*
X18228D1*
X18646D2*
X19228D1*
X19646D2*
X20228D1*
X20646D2*
X21228D1*
X21646D2*
X22228D1*
X22646D2*
X23228D1*
X23646D2*
X24228D1*
X24646D2*
X25228D1*
X25646D2*
X26228D1*
X26646D2*
X27228D1*
X27646D2*
X28228D1*
X31349D2*
X43025D1*
X4347Y38155D2*
X8643D1*
X12798D2*
X28209D1*
X31099D2*
X43025D1*
X4347Y37906D2*
X8889D1*
X13044D2*
X27963D1*
X30849D2*
X43025D1*
X4347Y37657D2*
X9139D1*
X13294D2*
X27713D1*
X30603D2*
X43025D1*
X4347Y37408D2*
X9389D1*
X13993D2*
X27463D1*
X30353D2*
X43025D1*
X4347Y37160D2*
X9635D1*
X13993D2*
X27217D1*
X30103D2*
X43025D1*
X4347Y36911D2*
X9881D1*
X13993D2*
X26967D1*
X29857D2*
X43025D1*
X4347Y36662D2*
X9881D1*
X13993D2*
X26717D1*
X29607D2*
X43025D1*
X4347Y36414D2*
X9881D1*
X13993D2*
X26471D1*
X29357D2*
X43025D1*
X4347Y36165D2*
X9928D1*
X13946D2*
X26221D1*
X29111D2*
X43025D1*
X4347Y35916D2*
X9881D1*
X13989D2*
X25971D1*
X28861D2*
X43025D1*
X4347Y35668D2*
X9963D1*
X13911D2*
X25725D1*
X28611D2*
X43025D1*
X4622Y35419D2*
X5314D1*
X5622D2*
X7158D1*
X7716D2*
X10393D1*
X13482D2*
X25475D1*
X28364D2*
X43025D1*
X5970Y35170D2*
X6861D1*
X8013D2*
X10521D1*
X13353D2*
X25225D1*
X28114D2*
X43025D1*
X6052Y34922D2*
X6764D1*
X8111D2*
X10521D1*
X13353D2*
X24978D1*
X27864D2*
X43025D1*
X6017Y34673D2*
X6768D1*
X8107D2*
X10521D1*
X13353D2*
X24728D1*
X27618D2*
X43025D1*
X4825Y34424D2*
X5111D1*
X5825D2*
X6881D1*
X7993D2*
X10521D1*
X13353D2*
X24478D1*
X27368D2*
X39064D1*
X39810D2*
X43025D1*
X4767Y34176D2*
X6846D1*
X8028D2*
X10404D1*
X13470D2*
X24232D1*
X27118D2*
X38865D1*
X40009D2*
X43025D1*
X4845Y33927D2*
X6760D1*
X8114D2*
X10353D1*
X13521D2*
X23982D1*
X26872D2*
X38814D1*
X40060D2*
X43025D1*
X4845Y33678D2*
X6775D1*
X8275D2*
X10416D1*
X13458D2*
X23732D1*
X26622D2*
X38873D1*
X40001D2*
X43025D1*
X4845Y33429D2*
X6900D1*
X8517D2*
X10674D1*
X11200D2*
X11521D1*
X12353D2*
X12674D1*
X13200D2*
X23486D1*
X26372D2*
X39072D1*
X39802D2*
X43025D1*
X4845Y33181D2*
X6924D1*
X8603D2*
X11521D1*
X12353D2*
X23236D1*
X26126D2*
X38865D1*
X40009D2*
X43025D1*
X4845Y32932D2*
X6853D1*
X8603D2*
X11521D1*
X12353D2*
X22986D1*
X25876D2*
X38814D1*
X40060D2*
X43025D1*
X4845Y32683D2*
X6896D1*
X8603D2*
X11521D1*
X12353D2*
X22740D1*
X25626D2*
X38869D1*
X40001D2*
X43025D1*
X4845Y32435D2*
X7021D1*
X8603D2*
X11521D1*
X12353D2*
X22490D1*
X25380D2*
X39080D1*
X39794D2*
X43025D1*
X4845Y32186D2*
X6814D1*
X8513D2*
X11521D1*
X12353D2*
X22240D1*
X25130D2*
X38869D1*
X40005D2*
X43025D1*
X4845Y31937D2*
X6756D1*
X8267D2*
X11361D1*
X12353D2*
X21994D1*
X24880D2*
X38814D1*
X40060D2*
X43025D1*
X4759Y31689D2*
X6791D1*
X8083D2*
X11111D1*
X12263D2*
X21744D1*
X24634D2*
X38869D1*
X40005D2*
X43025D1*
X4739Y31440D2*
X5197D1*
X5739D2*
X6947D1*
X7927D2*
X10666D1*
X12208D2*
X12666D1*
X13208D2*
X21494D1*
X24384D2*
X39080D1*
X39794D2*
X43025D1*
X5993Y31191D2*
X6803D1*
X10259D2*
X10412D1*
X13462D2*
X21248D1*
X24134D2*
X38873D1*
X40001D2*
X43025D1*
X6052Y30943D2*
X6752D1*
X13521D2*
X20998D1*
X23888D2*
X38814D1*
X40060D2*
X43025D1*
X5997Y30694D2*
X6799D1*
X13466D2*
X20748D1*
X23638D2*
X38865D1*
X40009D2*
X43025D1*
X4763Y30445D2*
X5174D1*
X5763D2*
X6975D1*
X7900D2*
X9850D1*
X12232D2*
X12643D1*
X13232D2*
X20502D1*
X23388D2*
X39072D1*
X39802D2*
X43025D1*
X4347Y30197D2*
X10100D1*
X11775D2*
X20252D1*
X23142D2*
X38873D1*
X40001D2*
X43025D1*
X4347Y29948D2*
X20002D1*
X22892D2*
X38814D1*
X40060D2*
X43025D1*
X4347Y29699D2*
X19756D1*
X22642D2*
X38865D1*
X40009D2*
X43025D1*
X4347Y29450D2*
X19506D1*
X22396D2*
X39064D1*
X39810D2*
X43025D1*
X4347Y29202D2*
X19256D1*
X22146D2*
X38877D1*
X39997D2*
X43025D1*
X4347Y28953D2*
X19115D1*
X21896D2*
X38814D1*
X40060D2*
X43025D1*
X4347Y28704D2*
X19115D1*
X21759D2*
X38861D1*
X40013D2*
X43025D1*
X4347Y28456D2*
X19115D1*
X21759D2*
X39057D1*
X39818D2*
X43025D1*
X4347Y28207D2*
X19115D1*
X21759D2*
X38881D1*
X39993D2*
X43025D1*
X4347Y27958D2*
X19115D1*
X21759D2*
X38814D1*
X40060D2*
X43025D1*
X4347Y27710D2*
X19115D1*
X21759D2*
X38861D1*
X40013D2*
X43025D1*
X4347Y27461D2*
X19115D1*
X21759D2*
X39053D1*
X39821D2*
X43025D1*
X4347Y27212D2*
X19115D1*
X21759D2*
X38881D1*
X39993D2*
X43025D1*
X4347Y26964D2*
X19115D1*
X21759D2*
X38814D1*
X40060D2*
X43025D1*
X4347Y26715D2*
X19115D1*
X21759D2*
X38857D1*
X40017D2*
X43025D1*
X4347Y26466D2*
X19115D1*
X21759D2*
X39045D1*
X39829D2*
X43025D1*
X4347Y26218D2*
X19115D1*
X21759D2*
X43025D1*
X4347Y25969D2*
X19115D1*
X21759D2*
X43025D1*
X4347Y25720D2*
X19115D1*
X21759D2*
X43025D1*
X4347Y25471D2*
X19115D1*
X21759D2*
X43025D1*
X4347Y25223D2*
X19115D1*
X21759D2*
X43025D1*
X4347Y24974D2*
X19115D1*
X21759D2*
X43025D1*
X4347Y24725D2*
X19115D1*
X21759D2*
X43025D1*
X4347Y24477D2*
X19115D1*
X21759D2*
X43025D1*
X4347Y24228D2*
X19115D1*
X21759D2*
X43025D1*
X4347Y23979D2*
X19115D1*
X21759D2*
X43025D1*
X4347Y23731D2*
X19115D1*
X21759D2*
X43025D1*
X4347Y23482D2*
X19115D1*
X21759D2*
X43025D1*
X4347Y23233D2*
X19115D1*
X21759D2*
X43025D1*
X4347Y22985D2*
X19115D1*
X21759D2*
X43025D1*
X4347Y22736D2*
X19115D1*
X21759D2*
X43025D1*
X4347Y22487D2*
X19115D1*
X21759D2*
X43025D1*
X4347Y22239D2*
X19115D1*
X21759D2*
X43025D1*
X4347Y21990D2*
X19115D1*
X21759D2*
X43025D1*
X4347Y21741D2*
X19115D1*
X21759D2*
X43025D1*
X4347Y21492D2*
X19115D1*
X21759D2*
X43025D1*
X4347Y21244D2*
X19115D1*
X21759D2*
X43025D1*
X4347Y20995D2*
X19115D1*
X21759D2*
X43025D1*
X4347Y20746D2*
X19115D1*
X21759D2*
X43025D1*
X4347Y20498D2*
X19115D1*
X21759D2*
X43025D1*
X4347Y20249D2*
X19115D1*
X21759D2*
X43025D1*
X4347Y20000D2*
X19115D1*
X21759D2*
X43025D1*
X4347Y19752D2*
X19115D1*
X21759D2*
X43025D1*
X4347Y19503D2*
X19115D1*
X21759D2*
X43025D1*
X4347Y19254D2*
X8951D1*
X11923D2*
X19115D1*
X21759D2*
X21951D1*
X26923D2*
X43025D1*
X4347Y19006D2*
X8857D1*
X12017D2*
X19115D1*
X27017D2*
X43025D1*
X4347Y18757D2*
X8881D1*
X12107D2*
X19115D1*
X26993D2*
X43025D1*
X4347Y18508D2*
X9053D1*
X12282D2*
X19115D1*
X21759D2*
X22053D1*
X26821D2*
X43025D1*
X4347Y18260D2*
X9584D1*
X12290D2*
X19115D1*
X21759D2*
X22584D1*
X26790D2*
X43025D1*
X4347Y18011D2*
X9584D1*
X12290D2*
X19115D1*
X21759D2*
X22584D1*
X26790D2*
X43025D1*
X4347Y17762D2*
X9584D1*
X12290D2*
X19115D1*
X21759D2*
X22584D1*
X26790D2*
X43025D1*
X4347Y17513D2*
X9584D1*
X12290D2*
X19115D1*
X21759D2*
X22584D1*
X26849D2*
X43025D1*
X4347Y17265D2*
X9584D1*
X12290D2*
X19115D1*
X21759D2*
X22584D1*
X27099D2*
X43025D1*
X4347Y17016D2*
X9584D1*
X12290D2*
X19115D1*
X21759D2*
X22584D1*
X27345D2*
X43025D1*
X4347Y16767D2*
X9584D1*
X12290D2*
X19115D1*
X21759D2*
X22584D1*
X27595D2*
X43025D1*
X4347Y16519D2*
X9584D1*
X12290D2*
X19115D1*
X21759D2*
X22584D1*
X27845D2*
X43025D1*
X4347Y16270D2*
X8963D1*
X12290D2*
X19115D1*
X21759D2*
X21963D1*
X28091D2*
X43025D1*
X4347Y16021D2*
X8857D1*
X12290D2*
X19115D1*
X29341D2*
X43025D1*
X4347Y15773D2*
X8877D1*
X12290D2*
X19115D1*
X29591D2*
X43025D1*
X4347Y15524D2*
X9033D1*
X12290D2*
X19115D1*
X21759D2*
X22033D1*
X29837D2*
X43025D1*
X4347Y15275D2*
X8959D1*
X30028D2*
X43025D1*
X4347Y15027D2*
X8853D1*
X30040D2*
X43025D1*
X4347Y14778D2*
X8869D1*
X30040D2*
X43025D1*
X4347Y14529D2*
X9021D1*
X28853D2*
X29084D1*
X30040D2*
X43025D1*
X4347Y14281D2*
X8963D1*
X28911D2*
X29084D1*
X30040D2*
X43025D1*
X4347Y14032D2*
X8853D1*
X30040D2*
X43025D1*
X4347Y13783D2*
X8869D1*
X30040D2*
X43025D1*
X4347Y13534D2*
X9018D1*
X12857D2*
X13013D1*
X13857D2*
X14013D1*
X14857D2*
X15013D1*
X15857D2*
X16013D1*
X16857D2*
X17013D1*
X17857D2*
X18013D1*
X18857D2*
X19013D1*
X19857D2*
X20013D1*
X20857D2*
X21013D1*
X21857D2*
X22013D1*
X25857D2*
X26013D1*
X26857D2*
X27013D1*
X27857D2*
X28013D1*
X28857D2*
X29084D1*
X30040D2*
X43025D1*
X4347Y13286D2*
X8975D1*
X12900D2*
X21975D1*
X25900D2*
X29084D1*
X30040D2*
X43025D1*
X4347Y13037D2*
X8861D1*
X13013D2*
X21861D1*
X26013D2*
X29084D1*
X30040D2*
X43025D1*
X4347Y12788D2*
X8873D1*
X13001D2*
X21873D1*
X26001D2*
X29084D1*
X30040D2*
X43025D1*
X4347Y12540D2*
X9018D1*
X12857D2*
X22018D1*
X25857D2*
X29084D1*
X30040D2*
X43025D1*
X4347Y12291D2*
X9584D1*
X12290D2*
X22584D1*
X25290D2*
X29084D1*
X30040D2*
X43025D1*
X4347Y12042D2*
X9584D1*
X12290D2*
X22584D1*
X25290D2*
X29084D1*
X30040D2*
X43025D1*
X4347Y11794D2*
X9584D1*
X12290D2*
X22584D1*
X25290D2*
X29084D1*
X30040D2*
X43025D1*
X4347Y11545D2*
X9584D1*
X12290D2*
X22584D1*
X25290D2*
X29084D1*
X30040D2*
X43025D1*
X4347Y11296D2*
X9584D1*
X12290D2*
X22584D1*
X25290D2*
X29084D1*
X30068D2*
X43025D1*
X4347Y11048D2*
X9584D1*
X12290D2*
X22584D1*
X25290D2*
X29084D1*
X30314D2*
X43025D1*
X4347Y10799D2*
X5307D1*
X6564D2*
X9584D1*
X12290D2*
X22584D1*
X25290D2*
X29115D1*
X30564D2*
X40807D1*
X42064D2*
X43025D1*
X4347Y10550D2*
X5057D1*
X6818D2*
X9584D1*
X12290D2*
X22584D1*
X25290D2*
X29334D1*
X30814D2*
X40557D1*
X42318D2*
X43025D1*
X4347Y10302D2*
X4924D1*
X6950D2*
X8986D1*
X12888D2*
X21986D1*
X25888D2*
X29584D1*
X32560D2*
X40424D1*
X42450D2*
X43025D1*
X4347Y10053D2*
X4865D1*
X7009D2*
X8865D1*
X13009D2*
X21865D1*
X26009D2*
X29834D1*
X32810D2*
X40365D1*
X42509D2*
X43025D1*
X4347Y9804D2*
X4869D1*
X7005D2*
X8869D1*
X13005D2*
X21869D1*
X26005D2*
X30080D1*
X33060D2*
X40369D1*
X42505D2*
X43025D1*
X4347Y9555D2*
X4932D1*
X6943D2*
X9002D1*
X12872D2*
X21994D1*
X25872D2*
X31830D1*
X33306D2*
X40432D1*
X42443D2*
X43025D1*
X4347Y9307D2*
X5068D1*
X6806D2*
X8818D1*
X12763D2*
X21764D1*
X25782D2*
X32080D1*
X33556D2*
X40568D1*
X42306D2*
X43025D1*
X4347Y9058D2*
X5334D1*
X6540D2*
X8721D1*
X12700D2*
X21721D1*
X25700D2*
X32326D1*
X36806D2*
X40834D1*
X42040D2*
X43025D1*
X4347Y8809D2*
X8721D1*
X12700D2*
X21721D1*
X25700D2*
X32576D1*
X37052D2*
X43025D1*
X4347Y8561D2*
X6100D1*
X6575D2*
X8721D1*
X12700D2*
X15936D1*
X16415D2*
X19100D1*
X19575D2*
X21721D1*
X25700D2*
X28936D1*
X29415D2*
X32826D1*
X37302D2*
X43025D1*
X4347Y8312D2*
X5557D1*
X7118D2*
X8584D1*
X13927D2*
X15393D1*
X16958D2*
X18557D1*
X20118D2*
X21584D1*
X26927D2*
X28393D1*
X29958D2*
X34275D1*
X37739D2*
X43025D1*
X4347Y8063D2*
X5326D1*
X7349D2*
X8467D1*
X14044D2*
X15162D1*
X17189D2*
X18326D1*
X20349D2*
X21467D1*
X27044D2*
X28162D1*
X30189D2*
X34143D1*
X37872D2*
X43025D1*
X4347Y7815D2*
X5193D1*
X7482D2*
X8467D1*
X14048D2*
X15029D1*
X17321D2*
X18193D1*
X20482D2*
X21467D1*
X27048D2*
X28029D1*
X30321D2*
X34135D1*
X37880D2*
X43025D1*
X4347Y7566D2*
X5123D1*
X7548D2*
X8580D1*
X13931D2*
X14963D1*
X17388D2*
X18123D1*
X20548D2*
X21580D1*
X26931D2*
X27963D1*
X30388D2*
X34244D1*
X37771D2*
X43025D1*
X4347Y7317D2*
X5111D1*
X7564D2*
X9264D1*
X12157D2*
X14951D1*
X17400D2*
X18111D1*
X20564D2*
X22264D1*
X25157D2*
X27951D1*
X30400D2*
X34264D1*
X36900D2*
X43025D1*
X4347Y7069D2*
X5150D1*
X7525D2*
X9053D1*
X12368D2*
X14990D1*
X17361D2*
X18150D1*
X20525D2*
X22053D1*
X25368D2*
X27990D1*
X30361D2*
X34139D1*
X37028D2*
X43025D1*
X4347Y6820D2*
X5248D1*
X7427D2*
X8998D1*
X12423D2*
X15084D1*
X17263D2*
X18248D1*
X20427D2*
X21998D1*
X25423D2*
X28084D1*
X30263D2*
X33158D1*
X33536D2*
X34135D1*
X37028D2*
X38478D1*
X38857D2*
X43025D1*
X4347Y6571D2*
X5420D1*
X7251D2*
X9053D1*
X12368D2*
X15260D1*
X17091D2*
X18420D1*
X20251D2*
X22053D1*
X25368D2*
X28260D1*
X30091D2*
X32627D1*
X34068D2*
X34252D1*
X36911D2*
X37947D1*
X39388D2*
X43025D1*
X4347Y6323D2*
X5736D1*
X6935D2*
X9264D1*
X9978D2*
X10353D1*
X11068D2*
X11443D1*
X12157D2*
X15576D1*
X16775D2*
X18736D1*
X19935D2*
X22264D1*
X22978D2*
X23353D1*
X24068D2*
X24443D1*
X25157D2*
X28576D1*
X29775D2*
X32420D1*
X34275D2*
X35381D1*
X36638D2*
X37740D1*
X39595D2*
X43025D1*
X4347Y6074D2*
X32311D1*
X34384D2*
X35127D1*
X36888D2*
X37631D1*
X39704D2*
X43025D1*
X4347Y5825D2*
X32271D1*
X34423D2*
X34994D1*
X37021D2*
X37592D1*
X39743D2*
X43025D1*
X4347Y5576D2*
X32291D1*
X34403D2*
X34936D1*
X37079D2*
X37611D1*
X39724D2*
X43025D1*
X4347Y5328D2*
X32373D1*
X34321D2*
X34939D1*
X37075D2*
X37693D1*
X39642D2*
X43025D1*
X4364Y5079D2*
X32537D1*
X34157D2*
X35002D1*
X37013D2*
X37857D1*
X39478D2*
X43010D1*
X4614Y4830D2*
X32869D1*
X33825D2*
X35139D1*
X36876D2*
X38189D1*
X39146D2*
X42760D1*
X4861Y4582D2*
X35404D1*
X36611D2*
X42514D1*
X5111Y4333D2*
X42264D1*
X6982Y55812D2*
X6960Y55689D1*
X6923Y55570D1*
X6873Y55456D1*
X6809Y55348D1*
X6733Y55249D1*
X6646Y55159D1*
X6549Y55081D1*
X6443Y55014D1*
X6330Y54961D1*
X6212Y54921D1*
X6089Y54896D1*
X5965Y54885D1*
X5840Y54889D1*
X5717Y54908D1*
X5596Y54941D1*
X5481Y54989D1*
X5372Y55050D1*
X5270Y55123D1*
X5179Y55208D1*
X5097Y55303D1*
X5028Y55407D1*
X4972Y55518D1*
X4929Y55635D1*
X4900Y55757D1*
X4886Y55881D1*
X4887Y56006D1*
X4903Y56130D1*
X4933Y56251D1*
X4977Y56368D1*
X5035Y56479D1*
X5105Y56582D1*
X5188Y56676D1*
X5280Y56759D1*
X5383Y56831D1*
X5492Y56891D1*
X5609Y56937D1*
X5729Y56969D1*
X5853Y56986D1*
X5978Y56989D1*
X6102Y56976D1*
X6224Y56949D1*
X6342Y56908D1*
X6455Y56853D1*
X6559Y56785D1*
X6656Y56706D1*
X6742Y56615D1*
X6816Y56515D1*
X6879Y56407D1*
X6928Y56292D1*
X6963Y56172D1*
X6983Y56049D1*
X6989Y55937D1*
X6982Y55812D1*
X42482D2*
X42460Y55689D1*
X42423Y55570D1*
X42373Y55456D1*
X42309Y55348D1*
X42233Y55249D1*
X42146Y55159D1*
X42049Y55081D1*
X41943Y55014D1*
X41830Y54961D1*
X41712Y54921D1*
X41589Y54896D1*
X41465Y54885D1*
X41340Y54889D1*
X41217Y54908D1*
X41096Y54941D1*
X40981Y54989D1*
X40872Y55050D1*
X40770Y55123D1*
X40679Y55208D1*
X40597Y55303D1*
X40528Y55407D1*
X40472Y55518D1*
X40429Y55635D1*
X40400Y55757D1*
X40386Y55881D1*
X40387Y56006D1*
X40403Y56130D1*
X40433Y56251D1*
X40477Y56368D1*
X40535Y56479D1*
X40605Y56582D1*
X40688Y56676D1*
X40780Y56759D1*
X40883Y56831D1*
X40992Y56891D1*
X41109Y56937D1*
X41229Y56969D1*
X41353Y56986D1*
X41478Y56989D1*
X41602Y56976D1*
X41724Y56949D1*
X41842Y56908D1*
X41955Y56853D1*
X42059Y56785D1*
X42156Y56706D1*
X42242Y56615D1*
X42316Y56515D1*
X42379Y56407D1*
X42428Y56292D1*
X42463Y56172D1*
X42483Y56049D1*
X42489Y55937D1*
X42482Y55812D1*
Y9812D2*
X42460Y9689D1*
X42423Y9570D1*
X42373Y9456D1*
X42309Y9348D1*
X42233Y9249D1*
X42146Y9159D1*
X42049Y9081D1*
X41943Y9014D1*
X41830Y8961D1*
X41712Y8921D1*
X41589Y8896D1*
X41465Y8885D1*
X41340Y8889D1*
X41217Y8908D1*
X41096Y8941D1*
X40981Y8989D1*
X40872Y9050D1*
X40770Y9123D1*
X40679Y9208D1*
X40597Y9303D1*
X40528Y9407D1*
X40472Y9518D1*
X40429Y9635D1*
X40400Y9757D1*
X40386Y9881D1*
X40387Y10006D1*
X40403Y10130D1*
X40433Y10251D1*
X40477Y10368D1*
X40535Y10479D1*
X40605Y10582D1*
X40688Y10676D1*
X40780Y10759D1*
X40883Y10831D1*
X40992Y10891D1*
X41109Y10937D1*
X41229Y10969D1*
X41353Y10986D1*
X41478Y10989D1*
X41602Y10976D1*
X41724Y10949D1*
X41842Y10908D1*
X41955Y10853D1*
X42059Y10785D1*
X42156Y10706D1*
X42242Y10615D1*
X42316Y10515D1*
X42379Y10407D1*
X42428Y10292D1*
X42463Y10172D1*
X42483Y10049D1*
X42489Y9937D1*
X42482Y9812D1*
X6982D2*
X6960Y9689D1*
X6923Y9570D1*
X6873Y9456D1*
X6809Y9348D1*
X6733Y9249D1*
X6646Y9159D1*
X6549Y9081D1*
X6443Y9014D1*
X6330Y8961D1*
X6212Y8921D1*
X6089Y8896D1*
X5965Y8885D1*
X5840Y8889D1*
X5717Y8908D1*
X5596Y8941D1*
X5481Y8989D1*
X5372Y9050D1*
X5270Y9123D1*
X5179Y9208D1*
X5097Y9303D1*
X5028Y9407D1*
X4972Y9518D1*
X4929Y9635D1*
X4900Y9757D1*
X4886Y9881D1*
X4887Y10006D1*
X4903Y10130D1*
X4933Y10251D1*
X4977Y10368D1*
X5035Y10479D1*
X5105Y10582D1*
X5188Y10676D1*
X5280Y10759D1*
X5383Y10831D1*
X5492Y10891D1*
X5609Y10937D1*
X5729Y10969D1*
X5853Y10986D1*
X5978Y10989D1*
X6102Y10976D1*
X6224Y10949D1*
X6342Y10908D1*
X6455Y10853D1*
X6559Y10785D1*
X6656Y10706D1*
X6742Y10615D1*
X6816Y10515D1*
X6879Y10407D1*
X6928Y10292D1*
X6963Y10172D1*
X6983Y10049D1*
X6989Y9937D1*
X6982Y9812D1*
X39712Y5656D2*
X39690Y5533D1*
X39654Y5414D1*
X39603Y5299D1*
X39539Y5192D1*
X39464Y5093D1*
X39376Y5003D1*
X39279Y4925D1*
X39173Y4858D1*
X39061Y4805D1*
X38942Y4765D1*
X38820Y4739D1*
X38695Y4729D1*
X38570Y4733D1*
X38447Y4752D1*
X38327Y4785D1*
X38211Y4832D1*
X38102Y4893D1*
X38001Y4967D1*
X37909Y5051D1*
X37828Y5146D1*
X37758Y5250D1*
X37702Y5362D1*
X37659Y5479D1*
X37631Y5601D1*
X37616Y5725D1*
X37617Y5850D1*
X37633Y5974D1*
X37663Y6095D1*
X37707Y6212D1*
X37765Y6322D1*
X37836Y6426D1*
X37918Y6520D1*
X38011Y6603D1*
X38113Y6675D1*
X38223Y6735D1*
X38339Y6780D1*
X38460Y6812D1*
X38583Y6830D1*
X38708Y6832D1*
X38833Y6820D1*
X38955Y6793D1*
X39073Y6752D1*
X39185Y6697D1*
X39290Y6629D1*
X39386Y6549D1*
X39472Y6459D1*
X39547Y6359D1*
X39609Y6250D1*
X39658Y6136D1*
X39693Y6016D1*
X39714Y5892D1*
X39720Y5781D1*
X39712Y5656D1*
X34393D2*
X34370Y5533D1*
X34334Y5414D1*
X34283Y5299D1*
X34220Y5192D1*
X34144Y5093D1*
X34057Y5003D1*
X33960Y4925D1*
X33854Y4858D1*
X33741Y4805D1*
X33622Y4765D1*
X33500Y4739D1*
X33376Y4729D1*
X33251Y4733D1*
X33127Y4752D1*
X33007Y4785D1*
X32891Y4832D1*
X32782Y4893D1*
X32681Y4967D1*
X32589Y5051D1*
X32508Y5146D1*
X32439Y5250D1*
X32382Y5362D1*
X32339Y5479D1*
X32311Y5601D1*
X32297Y5725D1*
X32298Y5850D1*
X32313Y5974D1*
X32343Y6095D1*
X32388Y6212D1*
X32445Y6322D1*
X32516Y6426D1*
X32598Y6520D1*
X32691Y6603D1*
X32793Y6675D1*
X32903Y6735D1*
X33019Y6780D1*
X33140Y6812D1*
X33264Y6830D1*
X33389Y6832D1*
X33513Y6820D1*
X33635Y6793D1*
X33753Y6752D1*
X33865Y6697D1*
X33970Y6629D1*
X34066Y6549D1*
X34152Y6459D1*
X34227Y6359D1*
X34289Y6250D1*
X34338Y6136D1*
X34373Y6016D1*
X34394Y5892D1*
X34400Y5781D1*
X34393Y5656D1*
X12677Y8432D2*
X12743Y8384D1*
X12827Y8292D1*
X12892Y8181D1*
X12952Y8286D1*
X13035Y8379D1*
X13135Y8453D1*
X13249Y8504D1*
X13371Y8531D1*
X13496Y8532D1*
X13618Y8507D1*
X13732Y8457D1*
X13834Y8384D1*
X13918Y8292D1*
X13981Y8184D1*
X14021Y8066D1*
X14035Y7937D1*
X14022Y7813D1*
X13983Y7694D1*
X13921Y7586D1*
X13837Y7493D1*
X13737Y7420D1*
X13623Y7369D1*
X13501Y7343D1*
X13376D1*
X13254Y7368D1*
X13140Y7419D1*
X13038Y7492D1*
X12955Y7584D1*
X12891Y7696D1*
X12830Y7586D1*
X12747Y7493D1*
X12646Y7420D1*
X12532Y7369D1*
X12410Y7343D1*
X12285D1*
X12131Y7382D1*
X12198Y7266D1*
X12282Y7174D1*
X12345Y7066D1*
X12385Y6948D1*
X12399Y6819D1*
X12386Y6695D1*
X12347Y6576D1*
X12285Y6468D1*
X12202Y6375D1*
X12101Y6302D1*
X11987Y6251D1*
X11865Y6225D1*
X11740Y6224D1*
X11618Y6250D1*
X11504Y6301D1*
X11403Y6374D1*
X11319Y6466D1*
X11255Y6578D1*
X11194Y6468D1*
X11111Y6375D1*
X11010Y6302D1*
X10896Y6251D1*
X10774Y6225D1*
X10649Y6224D1*
X10527Y6250D1*
X10413Y6301D1*
X10312Y6374D1*
X10228Y6466D1*
X10164Y6578D1*
X10104Y6468D1*
X10020Y6375D1*
X9920Y6302D1*
X9806Y6251D1*
X9684Y6225D1*
X9559Y6224D1*
X9437Y6250D1*
X9323Y6301D1*
X9222Y6374D1*
X9138Y6466D1*
X9075Y6574D1*
X9036Y6692D1*
X9022Y6816D1*
X9035Y6941D1*
X9073Y7059D1*
X9135Y7168D1*
X9218Y7261D1*
X9292Y7319D1*
Y7377D1*
X9138Y7343D1*
X9014D1*
X8892Y7368D1*
X8777Y7419D1*
X8676Y7492D1*
X8592Y7584D1*
X8530Y7692D1*
X8491Y7811D1*
X8477Y7935D1*
X8490Y8059D1*
X8528Y8178D1*
X8590Y8286D1*
X8673Y8379D1*
X8747Y8437D1*
Y9075D1*
X8770Y9197D1*
X8843Y9307D1*
X9061Y9525D1*
X9004Y9582D1*
X8936Y9686D1*
X8893Y9803D1*
X8877Y9927D1*
X8889Y10051D1*
X8927Y10170D1*
X8992Y10277D1*
X9078Y10367D1*
X9182Y10436D1*
X9299Y10480D1*
X9422Y10497D1*
X9546Y10486D1*
X9610Y10466D1*
X9609Y12402D1*
X9442Y12377D1*
X9318Y12390D1*
X9200Y12430D1*
X9093Y12495D1*
X9004Y12582D1*
X8936Y12686D1*
X8893Y12803D1*
X8877Y12927D1*
X8889Y13051D1*
X8927Y13170D1*
X8992Y13277D1*
X9107Y13386D1*
X9109Y13480D1*
X9008Y13570D1*
X8938Y13673D1*
X8892Y13789D1*
X8873Y13912D1*
X8881Y14037D1*
X8916Y14156D1*
X8977Y14265D1*
X9060Y14358D1*
X9173Y14435D1*
X9099Y14485D1*
X9008Y14570D1*
X8938Y14673D1*
X8892Y14789D1*
X8873Y14912D1*
X8881Y15037D1*
X8916Y15156D1*
X8977Y15265D1*
X9060Y15358D1*
X9108Y15392D1*
X9109Y15480D1*
X9004Y15582D1*
X8936Y15686D1*
X8893Y15803D1*
X8877Y15927D1*
X8889Y16051D1*
X8927Y16170D1*
X8992Y16277D1*
X9078Y16367D1*
X9182Y16436D1*
X9299Y16480D1*
X9422Y16497D1*
X9546Y16486D1*
X9610Y16466D1*
X9609Y18300D1*
X9526Y18385D1*
X9442Y18377D1*
X9318Y18390D1*
X9200Y18430D1*
X9093Y18495D1*
X9004Y18582D1*
X8936Y18686D1*
X8893Y18803D1*
X8877Y18927D1*
X8889Y19051D1*
X8927Y19170D1*
X8992Y19277D1*
X9078Y19367D1*
X9182Y19436D1*
X9299Y19480D1*
X9422Y19497D1*
X9546Y19486D1*
X9665Y19449D1*
X9773Y19385D1*
X9864Y19300D1*
X9938Y19186D1*
X9992Y19277D1*
X10078Y19367D1*
X10182Y19436D1*
X10299Y19480D1*
X10422Y19497D1*
X10546Y19486D1*
X10665Y19449D1*
X10773Y19385D1*
X10864Y19300D1*
X10938Y19186D1*
X10992Y19277D1*
X11078Y19367D1*
X11182Y19436D1*
X11299Y19480D1*
X11422Y19497D1*
X11546Y19486D1*
X11665Y19449D1*
X11773Y19385D1*
X11864Y19300D1*
X11933Y19197D1*
X11979Y19080D1*
X11997Y18937D1*
X11987Y18848D1*
X12169Y18669D1*
X12238Y18566D1*
X12265Y18437D1*
Y15472D1*
X12400Y15501D1*
X12525Y15495D1*
X12645Y15462D1*
X12755Y15404D1*
X12850Y15323D1*
X12935Y15198D1*
X12977Y15265D1*
X13060Y15358D1*
X13162Y15431D1*
X13277Y15479D1*
X13400Y15501D1*
X13525Y15495D1*
X13645Y15462D1*
X13755Y15404D1*
X13850Y15323D1*
X13935Y15198D1*
X13977Y15265D1*
X14060Y15358D1*
X14162Y15431D1*
X14277Y15479D1*
X14400Y15501D1*
X14525Y15495D1*
X14645Y15462D1*
X14755Y15404D1*
X14850Y15323D1*
X14935Y15198D1*
X14977Y15265D1*
X15060Y15358D1*
X15162Y15431D1*
X15277Y15479D1*
X15400Y15501D1*
X15525Y15495D1*
X15645Y15462D1*
X15755Y15404D1*
X15850Y15323D1*
X15935Y15198D1*
X15977Y15265D1*
X16060Y15358D1*
X16162Y15431D1*
X16277Y15479D1*
X16400Y15501D1*
X16525Y15495D1*
X16645Y15462D1*
X16755Y15404D1*
X16850Y15323D1*
X16935Y15198D1*
X16977Y15265D1*
X17060Y15358D1*
X17162Y15431D1*
X17277Y15479D1*
X17400Y15501D1*
X17525Y15495D1*
X17645Y15462D1*
X17755Y15404D1*
X17850Y15323D1*
X17935Y15198D1*
X17977Y15265D1*
X18060Y15358D1*
X18162Y15431D1*
X18277Y15479D1*
X18400Y15501D1*
X18525Y15495D1*
X18645Y15462D1*
X18755Y15404D1*
X18850Y15323D1*
X18935Y15198D1*
X18977Y15265D1*
X19060Y15358D1*
X19140Y15415D1*
X19141Y28937D1*
X19169Y29061D1*
X19227Y29147D1*
X28449Y38372D1*
X28325Y38383D1*
X28206Y38421D1*
X28099Y38485D1*
X28008Y38570D1*
X27936Y38677D1*
X27882Y38589D1*
X27795Y38500D1*
X27690Y38432D1*
X27573Y38389D1*
X27449Y38372D1*
X27325Y38383D1*
X27206Y38421D1*
X27099Y38485D1*
X27008Y38570D1*
X26936Y38677D1*
X26882Y38589D1*
X26795Y38500D1*
X26690Y38432D1*
X26573Y38389D1*
X26449Y38372D1*
X26325Y38383D1*
X26206Y38421D1*
X26099Y38485D1*
X26008Y38570D1*
X25936Y38677D1*
X25882Y38589D1*
X25795Y38500D1*
X25690Y38432D1*
X25573Y38389D1*
X25449Y38372D1*
X25325Y38383D1*
X25206Y38421D1*
X25099Y38485D1*
X25008Y38570D1*
X24936Y38677D1*
X24882Y38589D1*
X24795Y38500D1*
X24690Y38432D1*
X24573Y38389D1*
X24449Y38372D1*
X24325Y38383D1*
X24206Y38421D1*
X24099Y38485D1*
X24008Y38570D1*
X23936Y38677D1*
X23882Y38589D1*
X23795Y38500D1*
X23690Y38432D1*
X23573Y38389D1*
X23449Y38372D1*
X23325Y38383D1*
X23206Y38421D1*
X23099Y38485D1*
X23008Y38570D1*
X22936Y38677D1*
X22882Y38589D1*
X22795Y38500D1*
X22690Y38432D1*
X22573Y38389D1*
X22449Y38372D1*
X22325Y38383D1*
X22206Y38421D1*
X22099Y38485D1*
X22008Y38570D1*
X21936Y38677D1*
X21882Y38589D1*
X21795Y38500D1*
X21690Y38432D1*
X21573Y38389D1*
X21449Y38372D1*
X21325Y38383D1*
X21206Y38421D1*
X21099Y38485D1*
X21008Y38570D1*
X20936Y38677D1*
X20882Y38589D1*
X20795Y38500D1*
X20690Y38432D1*
X20573Y38389D1*
X20449Y38372D1*
X20325Y38383D1*
X20206Y38421D1*
X20099Y38485D1*
X20008Y38570D1*
X19936Y38677D1*
X19882Y38589D1*
X19795Y38500D1*
X19690Y38432D1*
X19573Y38389D1*
X19449Y38372D1*
X19325Y38383D1*
X19206Y38421D1*
X19099Y38485D1*
X19008Y38570D1*
X18936Y38677D1*
X18882Y38589D1*
X18795Y38500D1*
X18690Y38432D1*
X18573Y38389D1*
X18449Y38372D1*
X18325Y38383D1*
X18206Y38421D1*
X18099Y38485D1*
X18008Y38570D1*
X17936Y38677D1*
X17882Y38589D1*
X17795Y38500D1*
X17690Y38432D1*
X17573Y38389D1*
X17449Y38372D1*
X17325Y38383D1*
X17206Y38421D1*
X17099Y38485D1*
X17008Y38570D1*
X16936Y38677D1*
X16882Y38589D1*
X16795Y38500D1*
X16690Y38432D1*
X16573Y38389D1*
X16449Y38372D1*
X16325Y38383D1*
X16206Y38421D1*
X16099Y38485D1*
X16008Y38570D1*
X15936Y38677D1*
X15882Y38589D1*
X15795Y38500D1*
X15690Y38432D1*
X15573Y38389D1*
X15449Y38372D1*
X15325Y38383D1*
X15206Y38421D1*
X15099Y38485D1*
X15008Y38570D1*
X14936Y38677D1*
X14882Y38589D1*
X14795Y38500D1*
X14690Y38432D1*
X14573Y38389D1*
X14449Y38372D1*
X14325Y38383D1*
X14206Y38421D1*
X14099Y38485D1*
X14008Y38570D1*
X13936Y38677D1*
X13882Y38589D1*
X13795Y38500D1*
X13690Y38432D1*
X13573Y38389D1*
X13449Y38372D1*
X13325Y38383D1*
X13206Y38421D1*
X13099Y38485D1*
X13008Y38570D1*
X12936Y38677D1*
X12882Y38589D1*
X12795Y38500D1*
X12690Y38432D1*
X12538Y38384D1*
X13216Y37711D1*
X13457Y37468D1*
X13968D1*
Y36406D1*
X13714D1*
X13781Y36357D1*
X13866Y36265D1*
X13927Y36157D1*
X13961Y36037D1*
X13968Y35953D1*
X13953Y35829D1*
X13910Y35712D1*
X13841Y35608D1*
X13749Y35524D1*
X13640Y35463D1*
X13520Y35429D1*
X13462Y35426D1*
X13329Y35292D1*
X13328Y34339D1*
X13433Y34197D1*
X13479Y34080D1*
X13497Y33937D1*
X13483Y33813D1*
X13442Y33695D1*
X13376Y33589D1*
X13288Y33501D1*
X13183Y33434D1*
X13066Y33392D1*
X12942Y33377D1*
X12818Y33390D1*
X12700Y33430D1*
X12593Y33495D1*
X12504Y33582D1*
X12438Y33683D1*
X12376Y33589D1*
X12330Y33542D1*
X12328Y31937D1*
X12308Y31814D1*
X12248Y31701D1*
X12213Y31661D1*
X12046Y31486D1*
X12165Y31449D1*
X12273Y31385D1*
X12332Y31329D1*
X12535Y31328D1*
X12682Y31436D1*
X12799Y31480D1*
X12922Y31497D1*
X13046Y31486D1*
X13165Y31449D1*
X13273Y31385D1*
X13364Y31300D1*
X13433Y31197D1*
X13479Y31080D1*
X13497Y30937D1*
X13483Y30813D1*
X13442Y30695D1*
X13376Y30589D1*
X13288Y30501D1*
X13183Y30434D1*
X13066Y30392D1*
X12942Y30377D1*
X12818Y30390D1*
X12700Y30430D1*
X12593Y30495D1*
X12540Y30546D1*
X12339D1*
X12288Y30501D1*
X12183Y30434D1*
X12066Y30392D1*
X11930Y30378D1*
X11713Y30161D1*
X11613Y30088D1*
X11490Y30050D1*
X11437Y30046D1*
X10437D1*
X10314Y30066D1*
X10201Y30126D1*
X10161Y30161D1*
X9777Y30545D1*
X7964Y30546D1*
X7915Y30484D1*
X7821Y30402D1*
X7713Y30339D1*
X7595Y30298D1*
X7472Y30279D1*
X7347Y30285D1*
X7225Y30313D1*
X7112Y30364D1*
X7009Y30436D1*
X6923Y30526D1*
X6854Y30630D1*
X6807Y30746D1*
X6782Y30868D1*
X6781Y30993D1*
X6803Y31116D1*
X6848Y31232D1*
X6914Y31338D1*
X6991Y31421D1*
X6923Y31494D1*
X6854Y31599D1*
X6807Y31714D1*
X6782Y31837D1*
X6781Y31961D1*
X6803Y32084D1*
X6848Y32201D1*
X6914Y32306D1*
X6999Y32398D1*
X7091Y32465D1*
X7004Y32550D1*
X6936Y32655D1*
X6893Y32772D1*
X6877Y32896D1*
X6889Y33020D1*
X6927Y33138D1*
X6992Y33245D1*
X7054Y33310D1*
X7009Y33342D1*
X6923Y33431D1*
X6854Y33536D1*
X6807Y33651D1*
X6782Y33774D1*
X6781Y33898D1*
X6803Y34021D1*
X6848Y34138D1*
X6914Y34243D1*
X6991Y34326D1*
X6923Y34400D1*
X6854Y34504D1*
X6807Y34620D1*
X6782Y34742D1*
X6781Y34867D1*
X6803Y34990D1*
X6848Y35106D1*
X6914Y35212D1*
X6999Y35303D1*
X7100Y35377D1*
X7213Y35430D1*
X7334Y35462D1*
X7458Y35469D1*
X7582Y35453D1*
X7701Y35415D1*
X7810Y35354D1*
X7906Y35274D1*
X7984Y35177D1*
X8044Y35067D1*
X8081Y34948D1*
X8096Y34811D1*
X8084Y34687D1*
X8049Y34567D1*
X7992Y34456D1*
X7882Y34330D1*
X7984Y34209D1*
X8044Y34099D1*
X8081Y33980D1*
X8095Y33831D1*
X8463Y33463D1*
X8536Y33363D1*
X8574Y33240D1*
X8578Y33187D1*
Y32437D1*
X8558Y32314D1*
X8498Y32201D1*
X8463Y32161D1*
X8085Y31782D1*
X8049Y31661D1*
X7992Y31550D1*
X7882Y31424D1*
X7962Y31330D1*
X9937Y31328D1*
X10060Y31308D1*
X10173Y31248D1*
X10213Y31213D1*
X10387Y31039D1*
X10427Y31170D1*
X10492Y31277D1*
X10578Y31367D1*
X10682Y31436D1*
X10799Y31480D1*
X10942Y31495D1*
X11547Y32100D1*
X11546Y33535D1*
X11504Y33582D1*
X11438Y33683D1*
X11376Y33589D1*
X11288Y33501D1*
X11183Y33434D1*
X11066Y33392D1*
X10942Y33377D1*
X10818Y33390D1*
X10700Y33430D1*
X10593Y33495D1*
X10504Y33582D1*
X10436Y33686D1*
X10393Y33803D1*
X10377Y33927D1*
X10389Y34051D1*
X10427Y34170D1*
X10492Y34277D1*
X10548Y34336D1*
X10546Y35292D1*
X10415Y35424D1*
X10273Y35448D1*
X10160Y35500D1*
X10062Y35577D1*
X9985Y35675D1*
X9932Y35788D1*
X9908Y35911D1*
X9913Y36035D1*
X9947Y36155D1*
X10007Y36264D1*
X10092Y36356D1*
X10159Y36406D1*
X9906D1*
Y36918D1*
X9100Y37721D1*
X7911Y38911D1*
X7838Y39011D1*
X7800Y39134D1*
X7796Y39187D1*
Y47187D1*
X7816Y47310D1*
X7876Y47423D1*
X7911Y47463D1*
X12661Y52213D1*
X12761Y52286D1*
X12884Y52324D1*
X12937Y52328D1*
X13027D1*
X13162Y52431D1*
X13277Y52479D1*
X13400Y52501D1*
X13525Y52495D1*
X13645Y52462D1*
X13755Y52404D1*
X13850Y52323D1*
X13935Y52198D1*
X13977Y52265D1*
X14060Y52358D1*
X14162Y52431D1*
X14277Y52479D1*
X14400Y52501D1*
X14525Y52495D1*
X14645Y52462D1*
X14755Y52404D1*
X14841Y52330D1*
X15027Y52328D1*
X15162Y52431D1*
X15277Y52479D1*
X15400Y52501D1*
X15525Y52495D1*
X15645Y52462D1*
X15755Y52404D1*
X15850Y52323D1*
X15924Y52223D1*
X15975Y52109D1*
X16002Y51937D1*
X15988Y51813D1*
X15948Y51695D1*
X15882Y51589D1*
X15795Y51500D1*
X15690Y51432D1*
X15573Y51389D1*
X15449Y51372D1*
X15325Y51383D1*
X15206Y51421D1*
X15099Y51485D1*
X15033Y51546D1*
X14847D1*
X14795Y51500D1*
X14690Y51432D1*
X14573Y51389D1*
X14430Y51374D1*
X13963Y50911D1*
X13863Y50838D1*
X13740Y50800D1*
X13687Y50796D1*
X13097D1*
X9079Y46776D1*
X9078Y39847D1*
X9425Y39502D1*
X9525Y39495D1*
X9645Y39462D1*
X9755Y39404D1*
X9850Y39323D1*
X9935Y39198D1*
X9977Y39265D1*
X10060Y39358D1*
X10162Y39431D1*
X10277Y39479D1*
X10400Y39501D1*
X10525Y39495D1*
X10645Y39462D1*
X10755Y39404D1*
X10850Y39323D1*
X10935Y39198D1*
X10977Y39265D1*
X11060Y39358D1*
X11173Y39435D1*
X11099Y39485D1*
X11008Y39570D1*
X10938Y39673D1*
X10892Y39789D1*
X10873Y39912D1*
X10881Y40037D1*
X10916Y40156D1*
X10977Y40265D1*
X11060Y40358D1*
X11108Y40392D1*
X11109Y40480D1*
X11004Y40582D1*
X10936Y40686D1*
X10893Y40803D1*
X10877Y40927D1*
X10889Y41051D1*
X10927Y41170D1*
X10992Y41277D1*
X11078Y41367D1*
X11182Y41436D1*
X11299Y41480D1*
X11422Y41497D1*
X11546Y41486D1*
X11665Y41449D1*
X11773Y41385D1*
X11864Y41300D1*
X11938Y41186D1*
X11992Y41277D1*
X12078Y41367D1*
X12182Y41436D1*
X12299Y41480D1*
X12422Y41497D1*
X12546Y41486D1*
X12639Y41457D1*
X12641Y43417D1*
X12566Y43392D1*
X12442Y43377D1*
X12318Y43390D1*
X12200Y43430D1*
X12093Y43495D1*
X12004Y43582D1*
X11938Y43683D1*
X11876Y43589D1*
X11788Y43501D1*
X11683Y43434D1*
X11566Y43392D1*
X11442Y43377D1*
X11318Y43390D1*
X11200Y43430D1*
X11093Y43495D1*
X11004Y43582D1*
X10936Y43686D1*
X10893Y43803D1*
X10877Y43927D1*
X10889Y44051D1*
X10927Y44170D1*
X10992Y44277D1*
X11078Y44367D1*
X11182Y44436D1*
X11299Y44480D1*
X11422Y44497D1*
X11565Y44481D1*
X12200Y45119D1*
X16449Y49372D1*
X16325Y49383D1*
X16206Y49421D1*
X16099Y49485D1*
X16008Y49570D1*
X15936Y49677D1*
X15882Y49589D1*
X15795Y49500D1*
X15690Y49432D1*
X15573Y49389D1*
X15449Y49372D1*
X15325Y49383D1*
X15206Y49421D1*
X15099Y49485D1*
X15008Y49570D1*
X14936Y49677D1*
X14882Y49589D1*
X14795Y49500D1*
X14690Y49432D1*
X14573Y49389D1*
X14449Y49372D1*
X14325Y49383D1*
X14206Y49421D1*
X14099Y49485D1*
X14008Y49570D1*
X13936Y49677D1*
X13882Y49589D1*
X13795Y49500D1*
X13690Y49432D1*
X13573Y49389D1*
X13449Y49372D1*
X13325Y49383D1*
X13206Y49421D1*
X13099Y49485D1*
X13008Y49570D1*
X12938Y49673D1*
X12892Y49789D1*
X12873Y49912D1*
X12881Y50037D1*
X12916Y50156D1*
X12977Y50265D1*
X13060Y50358D1*
X13162Y50431D1*
X13277Y50479D1*
X13400Y50501D1*
X13525Y50495D1*
X13645Y50462D1*
X13755Y50404D1*
X13850Y50323D1*
X13935Y50198D1*
X13977Y50265D1*
X14060Y50358D1*
X14162Y50431D1*
X14277Y50479D1*
X14400Y50501D1*
X14525Y50495D1*
X14645Y50462D1*
X14755Y50404D1*
X14850Y50323D1*
X14935Y50198D1*
X14977Y50265D1*
X15060Y50358D1*
X15162Y50431D1*
X15277Y50479D1*
X15400Y50501D1*
X15525Y50495D1*
X15645Y50462D1*
X15755Y50404D1*
X15850Y50323D1*
X15935Y50198D1*
X15977Y50265D1*
X16060Y50358D1*
X16162Y50431D1*
X16277Y50479D1*
X16400Y50501D1*
X16525Y50495D1*
X16645Y50462D1*
X16755Y50404D1*
X16850Y50323D1*
X16935Y50198D1*
X16977Y50265D1*
X17060Y50358D1*
X17162Y50431D1*
X17277Y50479D1*
X17400Y50501D1*
X17525Y50495D1*
X17645Y50462D1*
X17755Y50404D1*
X17850Y50323D1*
X17935Y50198D1*
X17977Y50265D1*
X18060Y50358D1*
X18162Y50431D1*
X18277Y50479D1*
X18400Y50501D1*
X18525Y50495D1*
X18641Y50463D1*
Y51410D1*
X18573Y51389D1*
X18449Y51372D1*
X18325Y51383D1*
X18206Y51421D1*
X18099Y51485D1*
X18008Y51570D1*
X17938Y51673D1*
X17892Y51789D1*
X17873Y51912D1*
X17881Y52037D1*
X17916Y52156D1*
X17977Y52265D1*
X18060Y52358D1*
X18108Y52392D1*
X18109Y53480D1*
X18004Y53582D1*
X17936Y53686D1*
X17893Y53803D1*
X17877Y53927D1*
X17889Y54051D1*
X17927Y54170D1*
X17992Y54277D1*
X18078Y54367D1*
X18182Y54436D1*
X18299Y54480D1*
X18422Y54497D1*
X18546Y54486D1*
X18639Y54457D1*
Y56316D1*
X18564Y56390D1*
X18442Y56377D1*
X18318Y56390D1*
X18200Y56430D1*
X18093Y56495D1*
X18004Y56582D1*
X17936Y56686D1*
X17893Y56803D1*
X17877Y56927D1*
X17889Y57051D1*
X17927Y57170D1*
X17992Y57277D1*
X18078Y57367D1*
X18182Y57436D1*
X18299Y57480D1*
X18422Y57497D1*
X18546Y57486D1*
X18665Y57449D1*
X18773Y57385D1*
X18864Y57300D1*
X18938Y57186D1*
X18992Y57277D1*
X19078Y57367D1*
X19182Y57436D1*
X19299Y57480D1*
X19422Y57497D1*
X19546Y57486D1*
X19665Y57449D1*
X19773Y57385D1*
X19864Y57300D1*
X19938Y57186D1*
X19992Y57277D1*
X20078Y57367D1*
X20182Y57436D1*
X20299Y57480D1*
X20422Y57497D1*
X20546Y57486D1*
X20665Y57449D1*
X20773Y57385D1*
X20864Y57300D1*
X20938Y57186D1*
X20992Y57277D1*
X21078Y57367D1*
X21182Y57436D1*
X21299Y57480D1*
X21422Y57497D1*
X21546Y57486D1*
X21665Y57449D1*
X21773Y57385D1*
X21864Y57300D1*
X21938Y57186D1*
X21992Y57277D1*
X22078Y57367D1*
X22182Y57436D1*
X22299Y57480D1*
X22422Y57497D1*
X22546Y57486D1*
X22665Y57449D1*
X22773Y57385D1*
X22864Y57300D1*
X22938Y57186D1*
X22992Y57277D1*
X23078Y57367D1*
X23182Y57436D1*
X23299Y57480D1*
X23422Y57497D1*
X23546Y57486D1*
X23665Y57449D1*
X23773Y57385D1*
X23864Y57300D1*
X23938Y57186D1*
X23992Y57277D1*
X24078Y57367D1*
X24182Y57436D1*
X24299Y57480D1*
X24422Y57497D1*
X24546Y57486D1*
X24665Y57449D1*
X24773Y57385D1*
X24864Y57300D1*
X24938Y57186D1*
X24992Y57277D1*
X25078Y57367D1*
X25182Y57436D1*
X25299Y57480D1*
X25422Y57497D1*
X25546Y57486D1*
X25665Y57449D1*
X25773Y57385D1*
X25864Y57300D1*
X25938Y57186D1*
X25992Y57277D1*
X26078Y57367D1*
X26182Y57436D1*
X26299Y57480D1*
X26422Y57497D1*
X26546Y57486D1*
X26665Y57449D1*
X26773Y57385D1*
X26864Y57300D1*
X26938Y57186D1*
X26992Y57277D1*
X27078Y57367D1*
X27182Y57436D1*
X27299Y57480D1*
X27422Y57497D1*
X27546Y57486D1*
X27665Y57449D1*
X27773Y57385D1*
X27864Y57300D1*
X27938Y57186D1*
X27992Y57277D1*
X28078Y57367D1*
X28182Y57436D1*
X28299Y57480D1*
X28422Y57497D1*
X28546Y57486D1*
X28665Y57449D1*
X28773Y57385D1*
X28864Y57300D1*
X28938Y57186D1*
X28992Y57277D1*
X29078Y57367D1*
X29182Y57436D1*
X29299Y57480D1*
X29422Y57497D1*
X29546Y57486D1*
X29665Y57449D1*
X29773Y57385D1*
X29864Y57300D1*
X29938Y57186D1*
X29992Y57277D1*
X30078Y57367D1*
X30182Y57436D1*
X30299Y57480D1*
X30422Y57497D1*
X30546Y57486D1*
X30665Y57449D1*
X30773Y57385D1*
X30864Y57300D1*
X30938Y57186D1*
X30992Y57277D1*
X31078Y57367D1*
X31182Y57436D1*
X31299Y57480D1*
X31422Y57497D1*
X31546Y57486D1*
X31665Y57449D1*
X31773Y57385D1*
X31864Y57300D1*
X31938Y57186D1*
X31992Y57277D1*
X32078Y57367D1*
X32182Y57436D1*
X32299Y57480D1*
X32422Y57497D1*
X32546Y57486D1*
X32665Y57449D1*
X32773Y57385D1*
X32864Y57300D1*
X32938Y57186D1*
X32992Y57277D1*
X33078Y57367D1*
X33182Y57436D1*
X33299Y57480D1*
X33422Y57497D1*
X33546Y57486D1*
X33665Y57449D1*
X33773Y57385D1*
X33864Y57300D1*
X33938Y57186D1*
X33992Y57277D1*
X34078Y57367D1*
X34182Y57436D1*
X34299Y57480D1*
X34422Y57497D1*
X34546Y57486D1*
X34665Y57449D1*
X34773Y57385D1*
X34864Y57300D1*
X34933Y57197D1*
X34979Y57080D1*
X34997Y56937D1*
X34982Y56809D1*
X35147Y56647D1*
X35215Y56539D1*
X35233Y56437D1*
Y52464D1*
X35400Y52501D1*
X35525Y52495D1*
X35641Y52463D1*
Y56437D1*
X35669Y56561D1*
X35727Y56647D1*
X35890Y56810D1*
X35877Y56927D1*
X35889Y57051D1*
X35927Y57170D1*
X35992Y57277D1*
X36078Y57367D1*
X36182Y57436D1*
X36299Y57480D1*
X36422Y57497D1*
X36546Y57486D1*
X36665Y57449D1*
X36773Y57385D1*
X36864Y57300D1*
X36938Y57186D1*
X36992Y57277D1*
X37078Y57367D1*
X37182Y57436D1*
X37299Y57480D1*
X37422Y57497D1*
X37546Y57486D1*
X37665Y57449D1*
X37773Y57385D1*
X37864Y57300D1*
X37933Y57197D1*
X37979Y57080D1*
X37997Y56937D1*
X37983Y56813D1*
X37942Y56695D1*
X37876Y56589D1*
X37788Y56501D1*
X37683Y56434D1*
X37566Y56392D1*
X37442Y56377D1*
X37314Y56391D1*
X37233Y56312D1*
Y54457D1*
X37299Y54480D1*
X37422Y54497D1*
X37546Y54486D1*
X37665Y54449D1*
X37773Y54385D1*
X37864Y54300D1*
X37933Y54197D1*
X37979Y54080D1*
X37997Y53937D1*
X37983Y53813D1*
X37942Y53695D1*
X37876Y53589D1*
X37765Y53486D1*
Y52503D1*
X38002Y52502D1*
Y51372D1*
X37232D1*
X37233Y50464D1*
X37400Y50501D1*
X37525Y50495D1*
X37645Y50462D1*
X37755Y50404D1*
X37850Y50323D1*
X37924Y50223D1*
X37975Y50109D1*
X38002Y49937D1*
X37988Y49813D1*
X37948Y49695D1*
X37882Y49589D1*
X37795Y49500D1*
X37690Y49432D1*
X37573Y49389D1*
X37449Y49372D1*
X37307Y49389D1*
X31981Y44062D1*
X31997Y43937D1*
X31983Y43813D1*
X31942Y43695D1*
X31876Y43589D1*
X31788Y43501D1*
X31683Y43434D1*
X31566Y43392D1*
X31442Y43377D1*
X31318Y43390D1*
X31233Y43418D1*
Y41457D1*
X31299Y41480D1*
X31422Y41497D1*
X31546Y41486D1*
X31665Y41449D1*
X31773Y41385D1*
X31864Y41300D1*
X31933Y41197D1*
X31979Y41080D1*
X31997Y40937D1*
X31983Y40813D1*
X31942Y40695D1*
X31876Y40589D1*
X31788Y40501D1*
X31733Y40465D1*
Y38937D1*
X31705Y38813D1*
X31647Y38727D1*
X21733Y28812D1*
Y15417D1*
X21850Y15323D1*
X21935Y15198D1*
X21977Y15265D1*
X22060Y15358D1*
X22108Y15392D1*
X22109Y15480D1*
X22004Y15582D1*
X21936Y15686D1*
X21893Y15803D1*
X21877Y15927D1*
X21889Y16051D1*
X21927Y16170D1*
X21992Y16277D1*
X22078Y16367D1*
X22182Y16436D1*
X22299Y16480D1*
X22422Y16497D1*
X22546Y16486D1*
X22610Y16466D1*
X22609Y18300D1*
X22526Y18385D1*
X22442Y18377D1*
X22318Y18390D1*
X22200Y18430D1*
X22093Y18495D1*
X22004Y18582D1*
X21936Y18686D1*
X21893Y18803D1*
X21877Y18927D1*
X21889Y19051D1*
X21927Y19170D1*
X21992Y19277D1*
X22078Y19367D1*
X22182Y19436D1*
X22299Y19480D1*
X22422Y19497D1*
X22546Y19486D1*
X22665Y19449D1*
X22773Y19385D1*
X22864Y19300D1*
X22938Y19186D1*
X22992Y19277D1*
X23078Y19367D1*
X23182Y19436D1*
X23299Y19480D1*
X23422Y19497D1*
X23546Y19486D1*
X23665Y19449D1*
X23773Y19385D1*
X23864Y19300D1*
X23938Y19186D1*
X23992Y19277D1*
X24078Y19367D1*
X24182Y19436D1*
X24299Y19480D1*
X24422Y19497D1*
X24546Y19486D1*
X24665Y19449D1*
X24773Y19385D1*
X24864Y19300D1*
X24938Y19186D1*
X24992Y19277D1*
X25078Y19367D1*
X25182Y19436D1*
X25299Y19480D1*
X25422Y19497D1*
X25546Y19486D1*
X25665Y19449D1*
X25773Y19385D1*
X25864Y19300D1*
X25938Y19186D1*
X25992Y19277D1*
X26078Y19367D1*
X26182Y19436D1*
X26299Y19480D1*
X26422Y19497D1*
X26546Y19486D1*
X26665Y19449D1*
X26773Y19385D1*
X26864Y19300D1*
X26933Y19197D1*
X26979Y19080D1*
X26997Y18937D1*
X26983Y18813D1*
X26942Y18695D1*
X26876Y18589D1*
X26765Y18486D1*
Y17574D1*
X28075Y16263D1*
X28937Y16265D1*
X29059Y16241D1*
X29169Y16169D1*
X29919Y15419D1*
X29988Y15316D1*
X30015Y15187D1*
Y11324D1*
X30822Y10516D1*
X32187Y10515D1*
X32309Y10491D1*
X32419Y10419D1*
X33571Y9267D1*
X36437Y9265D1*
X36559Y9241D1*
X36669Y9169D1*
X37340Y8498D1*
X37428Y8484D1*
X37545Y8441D1*
X37650Y8374D1*
X37738Y8286D1*
X37806Y8181D1*
X37849Y8064D1*
X37867Y7921D1*
X37854Y7797D1*
X37814Y7679D1*
X37750Y7572D1*
X37664Y7481D1*
X37562Y7410D1*
X37446Y7364D1*
X37323Y7342D1*
X37198Y7348D1*
X37078Y7380D1*
X36967Y7438D1*
X36871Y7517D1*
X36794Y7616D1*
X36765Y7675D1*
Y7417D1*
X36888Y7301D1*
X36956Y7196D1*
X36999Y7079D1*
X37017Y6937D1*
X37004Y6813D1*
X36964Y6695D1*
X36900Y6588D1*
X36814Y6497D1*
X36712Y6426D1*
X36596Y6379D1*
X36538Y6369D1*
X36630Y6309D1*
X36726Y6229D1*
X36812Y6139D1*
X36887Y6039D1*
X36949Y5930D1*
X36998Y5815D1*
X37033Y5696D1*
X37054Y5572D1*
X37060Y5461D1*
X37052Y5336D1*
X37030Y5213D1*
X36994Y5094D1*
X36943Y4979D1*
X36880Y4872D1*
X36804Y4773D1*
X36717Y4683D1*
X36619Y4604D1*
X36514Y4538D1*
X36401Y4485D1*
X36282Y4445D1*
X36160Y4419D1*
X36035Y4409D1*
X35911Y4413D1*
X35787Y4432D1*
X35667Y4465D1*
X35551Y4512D1*
X35442Y4573D1*
X35341Y4646D1*
X35249Y4731D1*
X35168Y4826D1*
X35099Y4930D1*
X35042Y5042D1*
X34999Y5159D1*
X34971Y5281D1*
X34957Y5405D1*
Y5530D1*
X34973Y5654D1*
X35003Y5775D1*
X35047Y5892D1*
X35105Y6002D1*
X35176Y6105D1*
X35258Y6199D1*
X35351Y6283D1*
X35477Y6368D1*
X35369Y6396D1*
X35258Y6453D1*
X35155Y6542D1*
X35105Y6497D1*
X35002Y6426D1*
X34887Y6379D1*
X34764Y6358D1*
X34639Y6364D1*
X34519Y6396D1*
X34408Y6453D1*
X34312Y6533D1*
X34235Y6631D1*
X34181Y6744D1*
X34152Y6865D1*
X34150Y6990D1*
X34175Y7112D1*
X34225Y7226D1*
X34299Y7327D1*
X34423Y7427D1*
X34312Y7517D1*
X34235Y7616D1*
X34181Y7728D1*
X34153Y7850D1*
X34151Y7974D1*
X34175Y8097D1*
X34226Y8211D1*
X34299Y8312D1*
X34355Y8361D1*
X33187Y8359D1*
X33065Y8383D1*
X32955Y8455D1*
X31803Y9607D1*
X30437Y9609D1*
X30315Y9633D1*
X30205Y9705D1*
X29205Y10705D1*
X29136Y10808D1*
X29109Y10937D1*
Y14800D1*
X29004Y14907D1*
X28988Y14813D1*
X28948Y14695D1*
X28882Y14589D1*
X28795Y14500D1*
X28700Y14438D1*
X28755Y14404D1*
X28850Y14323D1*
X28924Y14223D1*
X28975Y14109D1*
X29002Y13937D1*
X28988Y13813D1*
X28948Y13695D1*
X28882Y13589D1*
X28795Y13500D1*
X28690Y13432D1*
X28573Y13389D1*
X28449Y13372D1*
X28325Y13383D1*
X28206Y13421D1*
X28099Y13485D1*
X28008Y13570D1*
X27936Y13677D1*
X27882Y13589D1*
X27795Y13500D1*
X27690Y13432D1*
X27573Y13389D1*
X27449Y13372D1*
X27325Y13383D1*
X27206Y13421D1*
X27099Y13485D1*
X27008Y13570D1*
X26936Y13677D1*
X26882Y13589D1*
X26795Y13500D1*
X26690Y13432D1*
X26573Y13389D1*
X26449Y13372D1*
X26325Y13383D1*
X26206Y13421D1*
X26099Y13485D1*
X26008Y13570D1*
X25936Y13677D1*
X25882Y13589D1*
X25765Y13481D1*
Y13394D1*
X25864Y13300D1*
X25933Y13197D1*
X25979Y13080D1*
X25997Y12937D1*
X25983Y12813D1*
X25942Y12695D1*
X25876Y12589D1*
X25788Y12501D1*
X25683Y12434D1*
X25566Y12392D1*
X25442Y12377D1*
X25318Y12390D1*
X25262Y12408D1*
X25265Y10472D1*
X25422Y10497D1*
X25546Y10486D1*
X25665Y10449D1*
X25773Y10385D1*
X25864Y10300D1*
X25933Y10197D1*
X25979Y10080D1*
X25997Y9937D1*
X25983Y9813D1*
X25942Y9695D1*
X25876Y9589D1*
X25765Y9486D1*
Y9372D1*
X25739Y9247D1*
X25722Y9210D1*
X25674Y9031D1*
Y8434D1*
X25743Y8384D1*
X25827Y8292D1*
X25892Y8180D1*
X25952Y8286D1*
X26035Y8379D1*
X26135Y8453D1*
X26249Y8504D1*
X26371Y8531D1*
X26496Y8532D1*
X26618Y8507D1*
X26732Y8457D1*
X26834Y8384D1*
X26918Y8292D1*
X26981Y8184D1*
X27021Y8066D1*
X27035Y7937D1*
X27022Y7813D1*
X26983Y7694D1*
X26921Y7586D1*
X26837Y7493D1*
X26737Y7420D1*
X26623Y7369D1*
X26501Y7343D1*
X26376D1*
X26254Y7368D1*
X26140Y7419D1*
X26038Y7492D1*
X25955Y7584D1*
X25891Y7696D1*
X25830Y7586D1*
X25747Y7493D1*
X25646Y7420D1*
X25532Y7369D1*
X25410Y7343D1*
X25285D1*
X25131Y7382D1*
X25198Y7266D1*
X25282Y7174D1*
X25345Y7066D1*
X25385Y6948D1*
X25399Y6819D1*
X25386Y6695D1*
X25347Y6576D1*
X25285Y6468D1*
X25202Y6375D1*
X25101Y6302D1*
X24987Y6251D1*
X24865Y6225D1*
X24740Y6224D1*
X24618Y6250D1*
X24504Y6301D1*
X24403Y6374D1*
X24319Y6466D1*
X24255Y6578D1*
X24194Y6468D1*
X24111Y6375D1*
X24010Y6302D1*
X23896Y6251D1*
X23774Y6225D1*
X23649Y6224D1*
X23527Y6250D1*
X23413Y6301D1*
X23312Y6374D1*
X23228Y6466D1*
X23164Y6578D1*
X23104Y6468D1*
X23020Y6375D1*
X22920Y6302D1*
X22806Y6251D1*
X22684Y6225D1*
X22559Y6224D1*
X22437Y6250D1*
X22323Y6301D1*
X22222Y6374D1*
X22138Y6466D1*
X22075Y6574D1*
X22036Y6692D1*
X22022Y6816D1*
X22035Y6941D1*
X22073Y7059D1*
X22135Y7168D1*
X22218Y7261D1*
X22292Y7319D1*
Y7377D1*
X22138Y7343D1*
X22014D1*
X21892Y7368D1*
X21777Y7419D1*
X21676Y7492D1*
X21592Y7584D1*
X21530Y7692D1*
X21491Y7811D1*
X21477Y7935D1*
X21490Y8059D1*
X21528Y8178D1*
X21590Y8286D1*
X21673Y8379D1*
X21747Y8437D1*
Y9146D1*
X21770Y9268D1*
X21843Y9378D1*
X22022Y9557D1*
X21936Y9686D1*
X21893Y9803D1*
X21877Y9927D1*
X21889Y10051D1*
X21927Y10170D1*
X21992Y10277D1*
X22078Y10367D1*
X22182Y10436D1*
X22299Y10480D1*
X22422Y10497D1*
X22546Y10486D1*
X22610Y10466D1*
X22609Y12402D1*
X22442Y12377D1*
X22318Y12390D1*
X22200Y12430D1*
X22093Y12495D1*
X22004Y12582D1*
X21936Y12686D1*
X21893Y12803D1*
X21877Y12927D1*
X21889Y13051D1*
X21927Y13170D1*
X21992Y13277D1*
X22107Y13386D1*
X22109Y13480D1*
X22008Y13570D1*
X21936Y13677D1*
X21882Y13589D1*
X21795Y13500D1*
X21690Y13432D1*
X21573Y13389D1*
X21449Y13372D1*
X21325Y13383D1*
X21206Y13421D1*
X21099Y13485D1*
X21008Y13570D1*
X20936Y13677D1*
X20882Y13589D1*
X20795Y13500D1*
X20690Y13432D1*
X20573Y13389D1*
X20449Y13372D1*
X20325Y13383D1*
X20206Y13421D1*
X20099Y13485D1*
X20008Y13570D1*
X19936Y13677D1*
X19882Y13589D1*
X19795Y13500D1*
X19690Y13432D1*
X19573Y13389D1*
X19449Y13372D1*
X19325Y13383D1*
X19206Y13421D1*
X19099Y13485D1*
X19008Y13570D1*
X18936Y13677D1*
X18882Y13589D1*
X18795Y13500D1*
X18690Y13432D1*
X18573Y13389D1*
X18449Y13372D1*
X18325Y13383D1*
X18206Y13421D1*
X18099Y13485D1*
X18008Y13570D1*
X17936Y13677D1*
X17882Y13589D1*
X17795Y13500D1*
X17690Y13432D1*
X17573Y13389D1*
X17449Y13372D1*
X17325Y13383D1*
X17206Y13421D1*
X17099Y13485D1*
X17008Y13570D1*
X16936Y13677D1*
X16882Y13589D1*
X16795Y13500D1*
X16690Y13432D1*
X16573Y13389D1*
X16449Y13372D1*
X16325Y13383D1*
X16206Y13421D1*
X16099Y13485D1*
X16008Y13570D1*
X15936Y13677D1*
X15882Y13589D1*
X15795Y13500D1*
X15690Y13432D1*
X15573Y13389D1*
X15449Y13372D1*
X15325Y13383D1*
X15206Y13421D1*
X15099Y13485D1*
X15008Y13570D1*
X14936Y13677D1*
X14882Y13589D1*
X14795Y13500D1*
X14690Y13432D1*
X14573Y13389D1*
X14449Y13372D1*
X14325Y13383D1*
X14206Y13421D1*
X14099Y13485D1*
X14008Y13570D1*
X13936Y13677D1*
X13882Y13589D1*
X13795Y13500D1*
X13690Y13432D1*
X13573Y13389D1*
X13449Y13372D1*
X13325Y13383D1*
X13206Y13421D1*
X13099Y13485D1*
X13008Y13570D1*
X12936Y13677D1*
X12882Y13589D1*
X12765Y13481D1*
Y13394D1*
X12864Y13300D1*
X12933Y13197D1*
X12979Y13080D1*
X12997Y12937D1*
X12983Y12813D1*
X12942Y12695D1*
X12876Y12589D1*
X12788Y12501D1*
X12683Y12434D1*
X12566Y12392D1*
X12442Y12377D1*
X12318Y12390D1*
X12262Y12408D1*
X12265Y10472D1*
X12422Y10497D1*
X12546Y10486D1*
X12665Y10449D1*
X12773Y10385D1*
X12864Y10300D1*
X12933Y10197D1*
X12979Y10080D1*
X12997Y9937D1*
X12983Y9813D1*
X12942Y9695D1*
X12876Y9589D1*
X12765Y9486D1*
X12755Y9357D1*
X12722Y9275D1*
X12739Y9312D1*
X12674Y9210D1*
Y8436D1*
X17371Y7253D2*
X17351Y7130D1*
X17319Y7009D1*
X17275Y6892D1*
X17218Y6781D1*
X17151Y6676D1*
X17072Y6578D1*
X16985Y6489D1*
X16888Y6410D1*
X16784Y6341D1*
X16673Y6284D1*
X16556Y6238D1*
X16436Y6205D1*
X16313Y6184D1*
X16188Y6176D1*
X16063Y6181D1*
X15940Y6199D1*
X15819Y6230D1*
X15701Y6273D1*
X15589Y6329D1*
X15484Y6395D1*
X15385Y6472D1*
X15295Y6559D1*
X15215Y6655D1*
X15145Y6758D1*
X15087Y6869D1*
X15040Y6984D1*
X15005Y7104D1*
X14983Y7227D1*
X14974Y7352D1*
X14977Y7477D1*
X14994Y7601D1*
X15024Y7722D1*
X15066Y7840D1*
X15119Y7952D1*
X15185Y8059D1*
X15261Y8158D1*
X15347Y8249D1*
X15442Y8330D1*
X15544Y8401D1*
X15654Y8461D1*
X15769Y8509D1*
X15889Y8545D1*
X16012Y8569D1*
X16136Y8579D1*
X16261Y8577D1*
X16385Y8561D1*
X16507Y8533D1*
X16625Y8493D1*
X16738Y8440D1*
X16845Y8376D1*
X16945Y8301D1*
X17037Y8216D1*
X17119Y8122D1*
X17191Y8020D1*
X17253Y7911D1*
X17302Y7796D1*
X17339Y7677D1*
X17364Y7554D1*
X17377Y7378D1*
X17371Y7253D1*
X7532D2*
X7513Y7130D1*
X7481Y7009D1*
X7436Y6892D1*
X7380Y6781D1*
X7312Y6676D1*
X7234Y6578D1*
X7146Y6489D1*
X7049Y6410D1*
X6945Y6341D1*
X6834Y6284D1*
X6718Y6238D1*
X6598Y6205D1*
X6474Y6184D1*
X6350Y6176D1*
X6225Y6181D1*
X6101Y6199D1*
X5980Y6230D1*
X5863Y6273D1*
X5751Y6329D1*
X5645Y6395D1*
X5547Y6472D1*
X5457Y6559D1*
X5377Y6655D1*
X5307Y6758D1*
X5248Y6869D1*
X5201Y6984D1*
X5166Y7104D1*
X5144Y7227D1*
X5135Y7352D1*
X5139Y7477D1*
X5156Y7601D1*
X5185Y7722D1*
X5227Y7840D1*
X5281Y7952D1*
X5346Y8059D1*
X5422Y8158D1*
X5508Y8249D1*
X5603Y8330D1*
X5706Y8401D1*
X5816Y8461D1*
X5931Y8509D1*
X6050Y8545D1*
X6173Y8569D1*
X6298Y8579D1*
X6423Y8577D1*
X6547Y8561D1*
X6668Y8533D1*
X6786Y8493D1*
X6900Y8440D1*
X7007Y8376D1*
X7107Y8301D1*
X7198Y8216D1*
X7281Y8122D1*
X7353Y8020D1*
X7414Y7911D1*
X7464Y7796D1*
X7501Y7677D1*
X7526Y7554D1*
X7539Y7378D1*
X7532Y7253D1*
X30371D2*
X30351Y7130D1*
X30319Y7009D1*
X30275Y6892D1*
X30218Y6781D1*
X30151Y6676D1*
X30072Y6578D1*
X29985Y6489D1*
X29888Y6410D1*
X29784Y6341D1*
X29673Y6284D1*
X29556Y6238D1*
X29436Y6205D1*
X29313Y6184D1*
X29188Y6176D1*
X29063Y6181D1*
X28940Y6199D1*
X28819Y6230D1*
X28701Y6273D1*
X28589Y6329D1*
X28484Y6395D1*
X28385Y6472D1*
X28295Y6559D1*
X28215Y6655D1*
X28145Y6758D1*
X28087Y6869D1*
X28040Y6984D1*
X28005Y7104D1*
X27983Y7227D1*
X27974Y7352D1*
X27977Y7477D1*
X27994Y7601D1*
X28024Y7722D1*
X28066Y7840D1*
X28119Y7952D1*
X28185Y8059D1*
X28261Y8158D1*
X28347Y8249D1*
X28442Y8330D1*
X28544Y8401D1*
X28654Y8461D1*
X28769Y8509D1*
X28889Y8545D1*
X29012Y8569D1*
X29136Y8579D1*
X29261Y8577D1*
X29385Y8561D1*
X29507Y8533D1*
X29625Y8493D1*
X29738Y8440D1*
X29845Y8376D1*
X29945Y8301D1*
X30037Y8216D1*
X30119Y8122D1*
X30191Y8020D1*
X30253Y7911D1*
X30302Y7796D1*
X30339Y7677D1*
X30364Y7554D1*
X30377Y7378D1*
X30371Y7253D1*
X20532D2*
X20513Y7130D1*
X20481Y7009D1*
X20436Y6892D1*
X20380Y6781D1*
X20312Y6676D1*
X20234Y6578D1*
X20146Y6489D1*
X20049Y6410D1*
X19945Y6341D1*
X19834Y6284D1*
X19718Y6238D1*
X19598Y6205D1*
X19474Y6184D1*
X19350Y6176D1*
X19225Y6181D1*
X19101Y6199D1*
X18980Y6230D1*
X18863Y6273D1*
X18751Y6329D1*
X18645Y6395D1*
X18547Y6472D1*
X18457Y6559D1*
X18377Y6655D1*
X18307Y6758D1*
X18248Y6869D1*
X18201Y6984D1*
X18166Y7104D1*
X18144Y7227D1*
X18135Y7352D1*
X18139Y7477D1*
X18156Y7601D1*
X18185Y7722D1*
X18227Y7840D1*
X18281Y7952D1*
X18346Y8059D1*
X18422Y8158D1*
X18508Y8249D1*
X18603Y8330D1*
X18706Y8401D1*
X18816Y8461D1*
X18931Y8509D1*
X19050Y8545D1*
X19173Y8569D1*
X19298Y8579D1*
X19423Y8577D1*
X19547Y8561D1*
X19668Y8533D1*
X19786Y8493D1*
X19900Y8440D1*
X20007Y8376D1*
X20107Y8301D1*
X20198Y8216D1*
X20281Y8122D1*
X20353Y8020D1*
X20414Y7911D1*
X20464Y7796D1*
X20501Y7677D1*
X20526Y7554D1*
X20539Y7378D1*
X20532Y7253D1*
X6015Y30813D2*
X5974Y30695D1*
X5908Y30589D1*
X5820Y30501D1*
X5715Y30434D1*
X5597Y30392D1*
X5473Y30377D1*
X5349Y30390D1*
X5231Y30430D1*
X5125Y30495D1*
X5035Y30582D1*
X4970Y30683D1*
X4908Y30589D1*
X4820Y30501D1*
X4715Y30434D1*
X4597Y30392D1*
X4473Y30377D1*
X4324Y30398D1*
X4322Y24829D1*
Y5099D1*
X5095Y4323D1*
X42275Y4322D1*
X43051Y5095D1*
X43052Y56775D1*
X42279Y57551D1*
X5099Y57552D1*
X4323Y56779D1*
X4322Y35411D1*
X4454Y35434D1*
X4578Y35423D1*
X4697Y35386D1*
X4804Y35322D1*
X4895Y35237D1*
X4969Y35123D1*
X5023Y35214D1*
X5109Y35304D1*
X5213Y35373D1*
X5330Y35417D1*
X5454Y35434D1*
X5578Y35423D1*
X5697Y35386D1*
X5804Y35322D1*
X5895Y35237D1*
X5965Y35134D1*
X6010Y35017D1*
X6029Y34874D1*
X6015Y34750D1*
X5974Y34632D1*
X5908Y34526D1*
X5820Y34438D1*
X5715Y34371D1*
X5597Y34329D1*
X5473Y34314D1*
X5349Y34327D1*
X5231Y34367D1*
X5125Y34432D1*
X5035Y34519D1*
X4970Y34620D1*
X4908Y34526D1*
X4820Y34438D1*
X4715Y34371D1*
X4593Y34328D1*
X4786Y34129D1*
X4822Y34045D1*
X4820Y31826D1*
X4785Y31741D1*
X4539Y31495D1*
X4697Y31449D1*
X4804Y31385D1*
X4895Y31300D1*
X4969Y31186D1*
X5023Y31277D1*
X5109Y31367D1*
X5213Y31436D1*
X5330Y31480D1*
X5454Y31497D1*
X5578Y31486D1*
X5697Y31449D1*
X5804Y31385D1*
X5895Y31300D1*
X5965Y31197D1*
X6010Y31080D1*
X6029Y30937D1*
X6015Y30813D1*
X40022Y32813D2*
X39983Y32694D1*
X39921Y32586D1*
X39837Y32493D1*
X39765Y32441D1*
X39834Y32384D1*
X39918Y32292D1*
X39981Y32184D1*
X40021Y32066D1*
X40035Y31937D1*
X40022Y31813D1*
X39983Y31694D1*
X39921Y31586D1*
X39837Y31493D1*
X39765Y31441D1*
X39834Y31384D1*
X39918Y31292D1*
X39981Y31184D1*
X40021Y31066D1*
X40035Y30937D1*
X40022Y30813D1*
X39983Y30694D1*
X39921Y30586D1*
X39837Y30493D1*
X39765Y30441D1*
X39834Y30384D1*
X39918Y30292D1*
X39981Y30184D1*
X40021Y30066D1*
X40035Y29937D1*
X40022Y29813D1*
X39983Y29694D1*
X39921Y29586D1*
X39837Y29493D1*
X39765Y29441D1*
X39834Y29384D1*
X39918Y29292D1*
X39981Y29184D1*
X40021Y29066D1*
X40035Y28937D1*
X40022Y28813D1*
X39983Y28694D1*
X39921Y28586D1*
X39837Y28493D1*
X39765Y28441D1*
X39834Y28384D1*
X39918Y28292D1*
X39981Y28184D1*
X40021Y28066D1*
X40035Y27937D1*
X40022Y27813D1*
X39983Y27694D1*
X39921Y27586D1*
X39837Y27493D1*
X39765Y27441D1*
X39834Y27384D1*
X39918Y27292D1*
X39981Y27184D1*
X40021Y27066D1*
X40035Y26937D1*
X40022Y26813D1*
X39983Y26694D1*
X39921Y26586D1*
X39837Y26493D1*
X39737Y26420D1*
X39623Y26369D1*
X39501Y26343D1*
X39376D1*
X39254Y26368D1*
X39140Y26419D1*
X39038Y26492D1*
X38955Y26584D1*
X38892Y26692D1*
X38853Y26811D1*
X38839Y26935D1*
X38852Y27059D1*
X38890Y27178D1*
X38952Y27286D1*
X39035Y27379D1*
X39113Y27437D1*
X39038Y27492D1*
X38955Y27584D1*
X38892Y27692D1*
X38853Y27811D1*
X38839Y27935D1*
X38852Y28059D1*
X38890Y28178D1*
X38952Y28286D1*
X39035Y28379D1*
X39113Y28437D1*
X39038Y28492D1*
X38955Y28584D1*
X38892Y28692D1*
X38853Y28811D1*
X38839Y28935D1*
X38852Y29059D1*
X38890Y29178D1*
X38952Y29286D1*
X39035Y29379D1*
X39113Y29437D1*
X39038Y29492D1*
X38955Y29584D1*
X38892Y29692D1*
X38853Y29811D1*
X38839Y29935D1*
X38852Y30059D1*
X38890Y30178D1*
X38952Y30286D1*
X39035Y30379D1*
X39113Y30437D1*
X39038Y30492D1*
X38955Y30584D1*
X38892Y30692D1*
X38853Y30811D1*
X38839Y30935D1*
X38852Y31059D1*
X38890Y31178D1*
X38952Y31286D1*
X39035Y31379D1*
X39113Y31437D1*
X39038Y31492D1*
X38955Y31584D1*
X38892Y31692D1*
X38853Y31811D1*
X38839Y31935D1*
X38852Y32059D1*
X38890Y32178D1*
X38952Y32286D1*
X39035Y32379D1*
X39113Y32437D1*
X39038Y32492D1*
X38955Y32584D1*
X38892Y32692D1*
X38853Y32811D1*
X38839Y32935D1*
X38852Y33059D1*
X38890Y33178D1*
X38952Y33286D1*
X39035Y33379D1*
X39113Y33437D1*
X39038Y33492D1*
X38955Y33584D1*
X38892Y33692D1*
X38853Y33811D1*
X38839Y33935D1*
X38852Y34059D1*
X38890Y34178D1*
X38952Y34286D1*
X39035Y34379D1*
X39135Y34453D1*
X39249Y34504D1*
X39371Y34531D1*
X39496Y34532D1*
X39618Y34507D1*
X39732Y34457D1*
X39834Y34384D1*
X39918Y34292D1*
X39981Y34184D1*
X40021Y34066D1*
X40035Y33937D1*
X40022Y33813D1*
X39983Y33694D1*
X39921Y33586D1*
X39837Y33493D1*
X39765Y33441D1*
X39834Y33384D1*
X39918Y33292D1*
X39981Y33184D1*
X40021Y33066D1*
X40035Y32937D1*
X40022Y32813D1*
D17*
X10437Y36937D3*
D18*
Y35953D3*
D17*
X13437Y36937D3*
D18*
Y35953D3*
D19*
X16437Y51937D3*
Y49937D3*
X17437D3*
Y51937D3*
X20437D3*
Y49937D3*
X21437Y51937D3*
Y49937D3*
X22437D3*
Y51937D3*
X37437Y49937D3*
X36437D3*
X35437D3*
X34437D3*
X33437D3*
X32437D3*
X31437D3*
X30437D3*
X29437D3*
X28437D3*
X27437D3*
X26437D3*
X25437D3*
X24437D3*
X23437D3*
X28437Y51937D3*
X29437D3*
X30437D3*
X31437D3*
X32437D3*
X33437D3*
X34437D3*
X35437D3*
X36437D3*
D20*
X37437D3*
D19*
X27437D3*
X26437D3*
X25437D3*
X24437D3*
X23437D3*
X19437D3*
Y49937D3*
X18437D3*
Y51937D3*
X15437D3*
Y49937D3*
X14437Y51937D3*
Y49937D3*
X13437Y51937D3*
Y49937D3*
D21*
X36437Y6937D3*
X35578D3*
X37287D3*
X34728D3*
X37287Y7921D3*
X34728D3*
D22*
X38667Y5781D3*
X36007Y5461D3*
X33348Y5781D3*
D23*
X13437Y7937D3*
D24*
X12346D3*
X11256D3*
X10165D3*
X9075D3*
X12892Y6819D3*
X11801D3*
X10711D3*
X9620D3*
D25*
X16175Y7378D3*
X6337D3*
D23*
X26437Y7937D3*
D24*
X25346D3*
X24256D3*
X23165D3*
X22075D3*
X25892Y6819D3*
X24801D3*
X23711D3*
X22620D3*
D25*
X29175Y7378D3*
X19337D3*
D26*
X18437Y53937D3*
Y56937D3*
X11437Y40937D3*
Y43937D3*
X30437Y40937D3*
Y43937D3*
X31437Y40937D3*
Y43937D3*
X12437Y40937D3*
Y43937D3*
X13437Y40937D3*
Y43937D3*
X14437Y40937D3*
Y43937D3*
X15437Y40937D3*
Y43937D3*
X16437Y40937D3*
Y43937D3*
X17437Y40937D3*
Y43937D3*
X18437Y40937D3*
Y43937D3*
X19437Y40937D3*
Y43937D3*
X20437Y40937D3*
Y43937D3*
X21437Y40937D3*
Y43937D3*
X22437Y40937D3*
Y43937D3*
X12937Y33937D3*
Y30937D3*
X36437Y53937D3*
Y56937D3*
X23437Y40937D3*
Y43937D3*
X25437Y40937D3*
Y43937D3*
X26437Y40937D3*
Y43937D3*
X28437Y40937D3*
Y43937D3*
X19437Y53937D3*
Y56937D3*
X20437Y53937D3*
Y56937D3*
X21437Y53937D3*
Y56937D3*
X22437Y53937D3*
Y56937D3*
X23437Y53937D3*
Y56937D3*
X24437Y53937D3*
Y56937D3*
X25437Y53937D3*
Y56937D3*
X26437Y53937D3*
Y56937D3*
X27437Y53937D3*
Y56937D3*
X28437Y53937D3*
Y56937D3*
X29437Y53937D3*
Y56937D3*
X30437Y53937D3*
Y56937D3*
X31437Y53937D3*
Y56937D3*
X32437Y53937D3*
Y56937D3*
X33437Y53937D3*
Y56937D3*
X34437Y53937D3*
Y56937D3*
X10937Y33937D3*
Y30937D3*
X37437Y53937D3*
Y56937D3*
X29437Y40937D3*
Y43937D3*
X9437Y9937D3*
Y12937D3*
Y15937D3*
Y18937D3*
X10437Y9937D3*
Y12937D3*
X11437Y9937D3*
Y12937D3*
X12437Y9937D3*
Y12937D3*
X10437Y15937D3*
Y18937D3*
X11437Y15937D3*
Y18937D3*
X26437Y15937D3*
Y18937D3*
X25437Y15937D3*
Y18937D3*
X11937Y33937D3*
Y30937D3*
X22437Y9937D3*
Y12937D3*
X23437Y9937D3*
Y12937D3*
X24437Y9937D3*
Y12937D3*
X25437Y9937D3*
Y12937D3*
X22437Y15937D3*
Y18937D3*
X23437Y15937D3*
Y18937D3*
X24437Y15937D3*
Y18937D3*
D19*
X9437Y39937D3*
X10437D3*
X11437D3*
X12437D3*
X13437D3*
X14437D3*
X15437D3*
X16437D3*
X17437D3*
X18437D3*
X19437D3*
X20437D3*
X21437D3*
X22437D3*
X23437D3*
X24437D3*
X25437D3*
X26437D3*
X27437D3*
X28437D3*
Y38937D3*
X27437D3*
X26437D3*
X25437D3*
X24437D3*
X23437D3*
X22437D3*
X21437D3*
X20437D3*
X19437D3*
X18437D3*
X17437D3*
X16437D3*
X15437D3*
X14437D3*
X13437D3*
X12437D3*
X11437D3*
X10437D3*
X9437D3*
Y14937D3*
X10437D3*
X11437D3*
X12437D3*
X13437D3*
X14437D3*
X15437D3*
X16437D3*
X17437D3*
X18437D3*
X19437D3*
X20437D3*
X21437D3*
X22437D3*
X23437D3*
X24437D3*
X25437D3*
X26437D3*
X27437D3*
X28437D3*
Y13937D3*
X27437D3*
X26437D3*
X25437D3*
X24437D3*
X23437D3*
X22437D3*
X21437D3*
X20437D3*
X19437D3*
X18437D3*
X17437D3*
X16437D3*
X15437D3*
X14437D3*
X13437D3*
X12437D3*
X11437D3*
X10437D3*
X9437D3*
D27*
X7437Y30937D3*
Y31906D3*
X5469Y32906D3*
X7437Y33843D3*
Y34811D3*
D23*
X42437Y26937D3*
Y27937D3*
Y28937D3*
Y29937D3*
Y30937D3*
Y31937D3*
Y32937D3*
Y33937D3*
X39437Y32937D3*
Y31937D3*
Y30937D3*
Y29937D3*
Y28937D3*
Y27937D3*
Y26937D3*
Y33937D3*
M02*
