M48
INCH
T01C0.03
T02C0.0315
T03C0.035
T04C0.0354
T05C0.038
T06C0.0429
T07C0.0512
T08C0.0591
T09C0.091
T10C0.1283
T11C0.1575
%
T01
X+018437Y+053937
X+019437Y+053937
X+020437Y+053937
X+021437Y+053937
X+022437Y+053937
X+023437Y+053937
X+024437Y+053937
X+025437Y+053937
X+026437Y+053937
X+027437Y+053937
X+028437Y+053937
X+029437Y+053937
X+030437Y+053937
X+031437Y+053937
X+032437Y+053937
X+033437Y+053937
X+034437Y+053937
X+036437Y+053937
X+037437Y+053937
X+037437Y+056937
X+036437Y+056937
X+034437Y+056937
X+033437Y+056937
X+032437Y+056937
X+031437Y+056937
X+030437Y+056937
X+029437Y+056937
X+028437Y+056937
X+027437Y+056937
X+026437Y+056937
X+025437Y+056937
X+024437Y+056937
X+023437Y+056937
X+022437Y+056937
X+021437Y+056937
X+020437Y+056937
X+019437Y+056937
X+018437Y+056937
X+018437Y+043937
X+019437Y+043937
X+020437Y+043937
X+021437Y+043937
X+022437Y+043937
X+023437Y+043937
X+025437Y+043937
X+026437Y+043937
X+028437Y+043937
X+029437Y+043937
X+030437Y+043937
X+031437Y+043937
X+031437Y+040937
X+030437Y+040937
X+029437Y+040937
X+028437Y+040937
X+026437Y+040937
X+025437Y+040937
X+023437Y+040937
X+022437Y+040937
X+021437Y+040937
X+020437Y+040937
X+019437Y+040937
X+018437Y+040937
X+017437Y+040937
X+016437Y+040937
X+015437Y+040937
X+014437Y+040937
X+013437Y+040937
X+012437Y+040937
X+011437Y+040937
X+011437Y+043937
X+012437Y+043937
X+013437Y+043937
X+014437Y+043937
X+015437Y+043937
X+016437Y+043937
X+017437Y+043937
X+012937Y+033937
X+011937Y+033937
X+010937Y+033937
X+010937Y+030937
X+011937Y+030937
X+012937Y+030937
X+011437Y+018937
X+010437Y+018937
X+009437Y+018937
X+009437Y+015937
X+010437Y+015937
X+011437Y+015937
X+011437Y+012937
X+012437Y+012937
X+010437Y+012937
X+009437Y+012937
X+009437Y+009937
X+010437Y+009937
X+011437Y+009937
X+012437Y+009937
X+022437Y+009937
X+023437Y+009937
X+024437Y+009937
X+025437Y+009937
X+025437Y+012937
X+024437Y+012937
X+023437Y+012937
X+022437Y+012937
X+022437Y+015937
X+023437Y+015937
X+024437Y+015937
X+025437Y+015937
X+026437Y+015937
X+026437Y+018937
X+025437Y+018937
X+024437Y+018937
X+023437Y+018937
X+022437Y+018937
T02
X+010437Y+036937
X+010437Y+035953
X+013437Y+035953
X+013437Y+036937
T03
X+036437Y+006937
X+037287Y+006937
X+037287Y+007921
X+034728Y+006937
T04
X+035578Y+006937
X+034728Y+007921
X+028437Y+013937
X+027437Y+013937
X+027437Y+014937
X+028437Y+014937
X+026437Y+014937
X+025437Y+014937
X+024437Y+014937
X+023437Y+014937
X+022437Y+014937
X+021437Y+014937
X+020437Y+014937
X+019437Y+014937
X+018437Y+014937
X+017437Y+014937
X+016437Y+014937
X+015437Y+014937
X+014437Y+014937
X+013437Y+014937
X+012437Y+014937
X+011437Y+014937
X+011437Y+013937
X+012437Y+013937
X+013437Y+013937
X+014437Y+013937
X+015437Y+013937
X+016437Y+013937
X+017437Y+013937
X+018437Y+013937
X+019437Y+013937
X+020437Y+013937
X+021437Y+013937
X+022437Y+013937
X+023437Y+013937
X+024437Y+013937
X+025437Y+013937
X+026437Y+013937
X+010437Y+013937
X+009437Y+013937
X+009437Y+014937
X+010437Y+014937
X+010437Y+038937
X+009437Y+038937
X+009437Y+039937
X+010437Y+039937
X+011437Y+039937
X+012437Y+039937
X+013437Y+039937
X+014437Y+039937
X+015437Y+039937
X+016437Y+039937
X+017437Y+039937
X+018437Y+039937
X+019437Y+039937
X+020437Y+039937
X+021437Y+039937
X+022437Y+039937
X+023437Y+039937
X+024437Y+039937
X+025437Y+039937
X+026437Y+039937
X+026437Y+038937
X+025437Y+038937
X+024437Y+038937
X+023437Y+038937
X+022437Y+038937
X+021437Y+038937
X+020437Y+038937
X+019437Y+038937
X+018437Y+038937
X+017437Y+038937
X+016437Y+038937
X+015437Y+038937
X+014437Y+038937
X+013437Y+038937
X+012437Y+038937
X+011437Y+038937
X+027437Y+038937
X+028437Y+038937
X+028437Y+039937
X+027437Y+039937
T05
X+016437Y+051937
X+017437Y+051937
X+018437Y+051937
X+019437Y+051937
X+020437Y+051937
X+021437Y+051937
X+022437Y+051937
X+023437Y+051937
X+024437Y+051937
X+025437Y+051937
X+026437Y+051937
X+027437Y+051937
X+028437Y+051937
X+029437Y+051937
X+030437Y+051937
X+031437Y+051937
X+032437Y+051937
X+033437Y+051937
X+034437Y+051937
X+035437Y+051937
X+036437Y+051937
X+037437Y+051937
X+037437Y+049937
X+036437Y+049937
X+035437Y+049937
X+034437Y+049937
X+033437Y+049937
X+032437Y+049937
X+031437Y+049937
X+030437Y+049937
X+029437Y+049937
X+028437Y+049937
X+027437Y+049937
X+026437Y+049937
X+025437Y+049937
X+024437Y+049937
X+023437Y+049937
X+022437Y+049937
X+021437Y+049937
X+020437Y+049937
X+019437Y+049937
X+018437Y+049937
X+017437Y+049937
X+016437Y+049937
X+015437Y+049937
X+014437Y+049937
X+013437Y+049937
X+013437Y+051937
X+014437Y+051937
X+015437Y+051937
T06
X+013437Y+007937
X+012346Y+007937
X+011256Y+007937
X+010165Y+007937
X+009075Y+007937
X+009620Y+006819
X+010711Y+006819
X+011801Y+006819
X+012892Y+006819
X+022075Y+007937
X+023165Y+007937
X+024256Y+007937
X+025346Y+007937
X+026437Y+007937
X+025892Y+006819
X+024801Y+006819
X+023711Y+006819
X+022620Y+006819
X+039437Y+026937
X+039437Y+027937
X+039437Y+028937
X+039437Y+029937
X+039437Y+030937
X+039437Y+031937
X+039437Y+032937
X+039437Y+033937
X+042437Y+033937
X+042437Y+032937
X+042437Y+031937
X+042437Y+030937
X+042437Y+029937
X+042437Y+028937
X+042437Y+027937
X+042437Y+026937
T07
X+007437Y+030937
X+007437Y+031906
X+007437Y+033843
X+007437Y+034811
X+005469Y+032906
T08
X+005469Y+030937
X+004469Y+030937
X+007437Y+032906
X+005469Y+034874
X+004469Y+034874
T09
X+038667Y+005781
X+036007Y+005461
X+033348Y+005781
T10
X+016175Y+007378
X+019337Y+007378
X+029175Y+007378
X+006337Y+007378
T11
X+005937Y+055937
X+041437Y+055937
X+041437Y+009937
X+005937Y+009937
T00
M30
