G04 DipTrace 2.3.1.0*
%INTopMask.gbr*%
%MOIN*%
%ADD21C,0.063*%
%ADD22C,0.1575*%
%ADD27C,0.0787*%
%ADD28C,0.0591*%
%ADD41C,0.0669*%
%ADD43C,0.1953*%
%ADD45C,0.0744*%
%ADD47C,0.0744*%
%ADD49C,0.1654*%
%ADD52R,0.0679X0.0679*%
%ADD54C,0.0679*%
%ADD56C,0.061*%
%ADD58R,0.061X0.061*%
%FSLAX44Y44*%
G04*
G70*
G90*
G75*
G01*
%LNTopMask*%
%LPD*%
D58*
X10437Y36937D3*
D56*
Y35953D3*
D58*
X13437Y36937D3*
D56*
Y35953D3*
D22*
X5937Y55937D3*
X41437D3*
Y9937D3*
X5937D3*
D54*
X16437Y51937D3*
Y49937D3*
X17437D3*
Y51937D3*
X20437D3*
Y49937D3*
X21437Y51937D3*
Y49937D3*
X22437D3*
Y51937D3*
X37437Y49937D3*
X36437D3*
X35437D3*
X34437D3*
X33437D3*
X32437D3*
X31437D3*
X30437D3*
X29437D3*
X28437D3*
X27437D3*
X26437D3*
X25437D3*
X24437D3*
X23437D3*
X28437Y51937D3*
X29437D3*
X30437D3*
X31437D3*
X32437D3*
X33437D3*
X34437D3*
X35437D3*
X36437D3*
D52*
X37437D3*
D54*
X27437D3*
X26437D3*
X25437D3*
X24437D3*
X23437D3*
X19437D3*
Y49937D3*
X18437D3*
Y51937D3*
X15437D3*
Y49937D3*
X14437Y51937D3*
Y49937D3*
X13437Y51937D3*
Y49937D3*
D21*
X36437Y6937D3*
X35578D3*
X37287D3*
X34728D3*
X37287Y7921D3*
X34728D3*
D49*
X38667Y5781D3*
X36007Y5461D3*
X33348Y5781D3*
D47*
X13437Y7937D3*
D45*
X12346D3*
X11256D3*
X10165D3*
X9075D3*
X12892Y6819D3*
X11801D3*
X10711D3*
X9620D3*
D43*
X16175Y7378D3*
X6337D3*
D47*
X26437Y7937D3*
D45*
X25346D3*
X24256D3*
X23165D3*
X22075D3*
X25892Y6819D3*
X24801D3*
X23711D3*
X22620D3*
D43*
X29175Y7378D3*
X19337D3*
D41*
X18437Y53937D3*
Y56937D3*
X11437Y40937D3*
Y43937D3*
X30437Y40937D3*
Y43937D3*
X31437Y40937D3*
Y43937D3*
X12437Y40937D3*
Y43937D3*
X13437Y40937D3*
Y43937D3*
X14437Y40937D3*
Y43937D3*
X15437Y40937D3*
Y43937D3*
X16437Y40937D3*
Y43937D3*
X17437Y40937D3*
Y43937D3*
X18437Y40937D3*
Y43937D3*
X19437Y40937D3*
Y43937D3*
X20437Y40937D3*
Y43937D3*
X21437Y40937D3*
Y43937D3*
X22437Y40937D3*
Y43937D3*
X12937Y33937D3*
Y30937D3*
X36437Y53937D3*
Y56937D3*
X23437Y40937D3*
Y43937D3*
X25437Y40937D3*
Y43937D3*
X26437Y40937D3*
Y43937D3*
X28437Y40937D3*
Y43937D3*
X19437Y53937D3*
Y56937D3*
X20437Y53937D3*
Y56937D3*
X21437Y53937D3*
Y56937D3*
X22437Y53937D3*
Y56937D3*
X23437Y53937D3*
Y56937D3*
X24437Y53937D3*
Y56937D3*
X25437Y53937D3*
Y56937D3*
X26437Y53937D3*
Y56937D3*
X27437Y53937D3*
Y56937D3*
X28437Y53937D3*
Y56937D3*
X29437Y53937D3*
Y56937D3*
X30437Y53937D3*
Y56937D3*
X31437Y53937D3*
Y56937D3*
X32437Y53937D3*
Y56937D3*
X33437Y53937D3*
Y56937D3*
X34437Y53937D3*
Y56937D3*
X10937Y33937D3*
Y30937D3*
X37437Y53937D3*
Y56937D3*
X29437Y40937D3*
Y43937D3*
X9437Y9937D3*
Y12937D3*
Y15937D3*
Y18937D3*
X10437Y9937D3*
Y12937D3*
X11437Y9937D3*
Y12937D3*
X12437Y9937D3*
Y12937D3*
X10437Y15937D3*
Y18937D3*
X11437Y15937D3*
Y18937D3*
X26437Y15937D3*
Y18937D3*
X25437Y15937D3*
Y18937D3*
X11937Y33937D3*
Y30937D3*
X22437Y9937D3*
Y12937D3*
X23437Y9937D3*
Y12937D3*
X24437Y9937D3*
Y12937D3*
X25437Y9937D3*
Y12937D3*
X22437Y15937D3*
Y18937D3*
X23437Y15937D3*
Y18937D3*
X24437Y15937D3*
Y18937D3*
D54*
X9437Y39937D3*
X10437D3*
X11437D3*
X12437D3*
X13437D3*
X14437D3*
X15437D3*
X16437D3*
X17437D3*
X18437D3*
X19437D3*
X20437D3*
X21437D3*
X22437D3*
X23437D3*
X24437D3*
X25437D3*
X26437D3*
X27437D3*
X28437D3*
Y38937D3*
X27437D3*
X26437D3*
X25437D3*
X24437D3*
X23437D3*
X22437D3*
X21437D3*
X20437D3*
X19437D3*
X18437D3*
X17437D3*
X16437D3*
X15437D3*
X14437D3*
X13437D3*
X12437D3*
X11437D3*
X10437D3*
X9437D3*
Y14937D3*
X10437D3*
X11437D3*
X12437D3*
X13437D3*
X14437D3*
X15437D3*
X16437D3*
X17437D3*
X18437D3*
X19437D3*
X20437D3*
X21437D3*
X22437D3*
X23437D3*
X24437D3*
X25437D3*
X26437D3*
X27437D3*
X28437D3*
Y13937D3*
X27437D3*
X26437D3*
X25437D3*
X24437D3*
X23437D3*
X22437D3*
X21437D3*
X20437D3*
X19437D3*
X18437D3*
X17437D3*
X16437D3*
X15437D3*
X14437D3*
X13437D3*
X12437D3*
X11437D3*
X10437D3*
X9437D3*
D27*
X7437Y30937D3*
Y31906D3*
X5469Y32906D3*
X7437Y33843D3*
Y34811D3*
D28*
X5469Y30937D3*
X7437Y32906D3*
X5469Y34874D3*
X4469D3*
Y30937D3*
D47*
X42437Y26937D3*
Y27937D3*
Y28937D3*
Y29937D3*
Y30937D3*
Y31937D3*
Y32937D3*
Y33937D3*
X39437Y32937D3*
Y31937D3*
Y30937D3*
Y29937D3*
Y28937D3*
Y27937D3*
Y26937D3*
Y33937D3*
M02*
