G04 DipTrace 2.3.1.0*
%INTopSilk.gbr*%
%MOIN*%
%ADD10C,0.0098*%
%ADD12C,0.003*%
%ADD61C,0.0124*%
%FSLAX44Y44*%
G04*
G70*
G90*
G75*
G01*
%LNTopSilk*%
%LPD*%
X10437Y35205D2*
D10*
G02X10437Y35205I0J1240D01*
G01*
X10319Y37429D2*
X10555D1*
X10437Y37547D2*
Y37311D1*
X13437Y35205D2*
G02X13437Y35205I0J1240D01*
G01*
X13319Y37429D2*
X13555D1*
X13437Y37547D2*
Y37311D1*
X38937Y52937D2*
Y48937D1*
X11937Y52937D2*
Y48937D1*
X38937D2*
X11937D1*
X38937Y52937D2*
X11937D1*
X33253Y8610D2*
Y3591D1*
X38762Y8610D2*
X33253D1*
X38762D2*
Y3591D1*
X33253D1*
X7764Y1551D2*
G03X8043Y1276I281J6D01*
G01*
X7764Y3362D2*
G03X7497Y3637I-261J14D01*
G01*
X14469Y1276D2*
G03X14748Y1551I-2J281D01*
G01*
X15015Y3637D2*
G03X14748Y3362I-6J-261D01*
G01*
X7764D2*
Y1551D1*
X14748Y3362D2*
Y1551D1*
X14009Y8520D2*
Y4818D1*
X17319Y3637D2*
X5193D1*
X8503Y8520D2*
Y4818D1*
X17319Y8520D2*
X5193D1*
X14469Y1276D2*
X8043D1*
X17319Y8520D2*
Y3637D1*
X5193Y8520D2*
Y3637D1*
X17319Y4818D2*
X5193D1*
X20764Y1551D2*
G03X21043Y1276I281J6D01*
G01*
X20764Y3362D2*
G03X20497Y3637I-261J14D01*
G01*
X27469Y1276D2*
G03X27748Y1551I-2J281D01*
G01*
X28015Y3637D2*
G03X27748Y3362I-6J-261D01*
G01*
X20764D2*
Y1551D1*
X27748Y3362D2*
Y1551D1*
X27009Y8520D2*
Y4818D1*
X30319Y3637D2*
X18193D1*
X21503Y8520D2*
Y4818D1*
X30319Y8520D2*
X18193D1*
X27469Y1276D2*
X21043D1*
X30319Y8520D2*
Y3637D1*
X18193Y8520D2*
Y3637D1*
X30319Y4818D2*
X18193D1*
X17937Y53437D2*
X18937D1*
Y57437D1*
X17937D1*
Y53437D1*
X10937Y40437D2*
X11937D1*
Y44437D1*
X10937D1*
Y40437D1*
X29937D2*
X30937D1*
Y44437D1*
X29937D1*
Y40437D1*
X30937D2*
X31937D1*
Y44437D1*
X30937D1*
Y40437D1*
X11937D2*
X12937D1*
Y44437D1*
X11937D1*
Y40437D1*
X12937D2*
X13937D1*
Y44437D1*
X12937D1*
Y40437D1*
X13937D2*
X14937D1*
Y44437D1*
X13937D1*
Y40437D1*
X14937D2*
X15937D1*
Y44437D1*
X14937D1*
Y40437D1*
X15937D2*
X16937D1*
Y44437D1*
X15937D1*
Y40437D1*
X16937D2*
X17937D1*
Y44437D1*
X16937D1*
Y40437D1*
X17937D2*
X18937D1*
Y44437D1*
X17937D1*
Y40437D1*
X18937D2*
X19937D1*
Y44437D1*
X18937D1*
Y40437D1*
X19937D2*
X20937D1*
Y44437D1*
X19937D1*
Y40437D1*
X20937D2*
X21937D1*
Y44437D1*
X20937D1*
Y40437D1*
X21937D2*
X22937D1*
Y44437D1*
X21937D1*
Y40437D1*
X13437Y34437D2*
X12437D1*
Y30437D1*
X13437D1*
Y34437D1*
X35937Y53437D2*
X36937D1*
Y57437D1*
X35937D1*
Y53437D1*
X22937Y40437D2*
X23937D1*
Y44437D1*
X22937D1*
Y40437D1*
X24937D2*
X25937D1*
Y44437D1*
X24937D1*
Y40437D1*
X25937D2*
X26937D1*
Y44437D1*
X25937D1*
Y40437D1*
X27937D2*
X28937D1*
Y44437D1*
X27937D1*
Y40437D1*
X18937Y53437D2*
X19937D1*
Y57437D1*
X18937D1*
Y53437D1*
X19937D2*
X20937D1*
Y57437D1*
X19937D1*
Y53437D1*
X20937D2*
X21937D1*
Y57437D1*
X20937D1*
Y53437D1*
X21937D2*
X22937D1*
Y57437D1*
X21937D1*
Y53437D1*
X22937D2*
X23937D1*
Y57437D1*
X22937D1*
Y53437D1*
X23937D2*
X24937D1*
Y57437D1*
X23937D1*
Y53437D1*
X24937D2*
X25937D1*
Y57437D1*
X24937D1*
Y53437D1*
X25937D2*
X26937D1*
Y57437D1*
X25937D1*
Y53437D1*
X26937D2*
X27937D1*
Y57437D1*
X26937D1*
Y53437D1*
X27937D2*
X28937D1*
Y57437D1*
X27937D1*
Y53437D1*
X28937D2*
X29937D1*
Y57437D1*
X28937D1*
Y53437D1*
X29937D2*
X30937D1*
Y57437D1*
X29937D1*
Y53437D1*
X30937D2*
X31937D1*
Y57437D1*
X30937D1*
Y53437D1*
X31937D2*
X32937D1*
Y57437D1*
X31937D1*
Y53437D1*
X32937D2*
X33937D1*
Y57437D1*
X32937D1*
Y53437D1*
X33937D2*
X34937D1*
Y57437D1*
X33937D1*
Y53437D1*
X11437Y34437D2*
X10437D1*
Y30437D1*
X11437D1*
Y34437D1*
X36937Y53437D2*
X37937D1*
Y57437D1*
X36937D1*
Y53437D1*
X28937Y40437D2*
X29937D1*
Y44437D1*
X28937D1*
Y40437D1*
X8937Y9437D2*
X9937D1*
Y13437D1*
X8937D1*
Y9437D1*
Y15437D2*
X9937D1*
Y19437D1*
X8937D1*
Y15437D1*
X9937Y9437D2*
X10937D1*
Y13437D1*
X9937D1*
Y9437D1*
X10937D2*
X11937D1*
Y13437D1*
X10937D1*
Y9437D1*
X11937D2*
X12937D1*
Y13437D1*
X11937D1*
Y9437D1*
X9937Y15437D2*
X10937D1*
Y19437D1*
X9937D1*
Y15437D1*
X10937D2*
X11937D1*
Y19437D1*
X10937D1*
Y15437D1*
X25937D2*
X26937D1*
Y19437D1*
X25937D1*
Y15437D1*
X24937D2*
X25937D1*
Y19437D1*
X24937D1*
Y15437D1*
X12437Y34437D2*
X11437D1*
Y30437D1*
X12437D1*
Y34437D1*
X21937Y9437D2*
X22937D1*
Y13437D1*
X21937D1*
Y9437D1*
X22937D2*
X23937D1*
Y13437D1*
X22937D1*
Y9437D1*
X23937D2*
X24937D1*
Y13437D1*
X23937D1*
Y9437D1*
X24937D2*
X25937D1*
Y13437D1*
X24937D1*
Y9437D1*
X21937Y15437D2*
X22937D1*
Y19437D1*
X21937D1*
Y15437D1*
X22937D2*
X23937D1*
Y19437D1*
X22937D1*
Y15437D1*
X23937D2*
X24937D1*
Y19437D1*
X23937D1*
Y15437D1*
X4285Y35465D2*
X8618D1*
Y30346D1*
X4285D1*
Y35465D1*
Y34282D2*
X2909D1*
Y31529D1*
X4285D1*
X38937Y25937D2*
X42937D1*
Y34937D1*
X38937D1*
Y25937D1*
X8467Y29907D2*
D12*
X38448D1*
X8467Y29877D2*
X38448D1*
X8467Y29847D2*
X38448D1*
X8467Y29817D2*
X38448D1*
X8467Y29787D2*
X38448D1*
X8467Y29757D2*
X38448D1*
X8467Y29728D2*
X38448D1*
X8467Y29698D2*
X38448D1*
X8467Y29668D2*
X38448D1*
X8467Y29638D2*
X38448D1*
X8467Y29608D2*
X38448D1*
X8467Y29578D2*
X38448D1*
X8467Y29548D2*
X38448D1*
X8467Y29518D2*
X38448D1*
X8467Y29488D2*
X38448D1*
X8467Y29458D2*
X38448D1*
X8467Y29428D2*
X38448D1*
X8467Y29398D2*
X38448D1*
X8467Y29369D2*
X38448D1*
X8467Y29339D2*
X38448D1*
X8467Y29309D2*
X38448D1*
X8467Y29279D2*
X38448D1*
X8467Y29249D2*
X38448D1*
X8467Y29219D2*
X38448D1*
X8467Y29189D2*
X38448D1*
X8467Y29159D2*
X38448D1*
X8467Y29129D2*
X38448D1*
X8467Y29099D2*
X38448D1*
X8467Y29069D2*
X38448D1*
X8467Y29039D2*
X38448D1*
X8467Y29009D2*
X38448D1*
X8467Y28980D2*
X38448D1*
X8467Y28950D2*
X38448D1*
X8467Y28920D2*
X38448D1*
X8467Y28890D2*
X38448D1*
X8467Y28860D2*
X38448D1*
X8467Y28830D2*
X38448D1*
X8467Y28800D2*
X38448D1*
X8467Y28770D2*
X38448D1*
X8467Y28740D2*
X38448D1*
X8467Y28710D2*
X38448D1*
X8467Y28680D2*
X38448D1*
X8467Y28650D2*
X38448D1*
X8467Y28620D2*
X38448D1*
X8467Y28591D2*
X38448D1*
X8467Y28561D2*
X38448D1*
X8467Y28531D2*
X38448D1*
X8467Y28501D2*
X11968D1*
X16396D2*
X20465D1*
X24864D2*
X27407D1*
X29322D2*
X30040D1*
X31865D2*
X33182D1*
X34947D2*
X38448D1*
X8467Y28471D2*
X11968D1*
X16396D2*
X20465D1*
X24864D2*
X27407D1*
X29322D2*
X30040D1*
X31865D2*
X33182D1*
X34947D2*
X38448D1*
X8467Y28441D2*
X11968D1*
X16396D2*
X20465D1*
X24864D2*
X27407D1*
X29322D2*
X30040D1*
X31865D2*
X33182D1*
X34947D2*
X38448D1*
X8467Y28411D2*
X11968D1*
X16396D2*
X20465D1*
X24864D2*
X27407D1*
X29322D2*
X30040D1*
X31865D2*
X33182D1*
X34947D2*
X38448D1*
X8467Y28381D2*
X11968D1*
X16396D2*
X20465D1*
X24864D2*
X27407D1*
X29322D2*
X30040D1*
X31865D2*
X33182D1*
X34947D2*
X38448D1*
X8467Y28351D2*
X11639D1*
X16725D2*
X20106D1*
X25223D2*
X27407D1*
X29322D2*
X29681D1*
X32224D2*
X32823D1*
X35276D2*
X38448D1*
X8467Y28321D2*
X11639D1*
X16725D2*
X20106D1*
X25223D2*
X27407D1*
X29322D2*
X29681D1*
X32224D2*
X32823D1*
X35276D2*
X38448D1*
X8467Y28291D2*
X11639D1*
X16725D2*
X20106D1*
X25223D2*
X27407D1*
X29322D2*
X29681D1*
X32224D2*
X32823D1*
X35276D2*
X38448D1*
X8467Y28261D2*
X11639D1*
X16725D2*
X20106D1*
X25223D2*
X27407D1*
X29322D2*
X29681D1*
X32224D2*
X32823D1*
X35276D2*
X38448D1*
X8467Y28231D2*
X11429D1*
X16935D2*
X19897D1*
X25432D2*
X27407D1*
X29322D2*
X29472D1*
X32434D2*
X32613D1*
X35486D2*
X38448D1*
X8467Y28202D2*
X11429D1*
X16935D2*
X19897D1*
X25432D2*
X27407D1*
X29322D2*
X29472D1*
X32434D2*
X32613D1*
X35486D2*
X38448D1*
X8467Y28172D2*
X11429D1*
X16935D2*
X19897D1*
X25432D2*
X27407D1*
X29322D2*
X29472D1*
X32434D2*
X32613D1*
X35486D2*
X38448D1*
X8467Y28142D2*
X11429D1*
X16935D2*
X19897D1*
X25432D2*
X27407D1*
X29322D2*
X29472D1*
X32434D2*
X32613D1*
X35486D2*
X38448D1*
X8467Y28112D2*
X11429D1*
X16935D2*
X19897D1*
X25432D2*
X27407D1*
X29322D2*
X29472D1*
X32434D2*
X32613D1*
X35486D2*
X38448D1*
X8467Y28082D2*
X11220D1*
X17144D2*
X19687D1*
X25612D2*
X27407D1*
X35695D2*
X38448D1*
X8467Y28052D2*
X11220D1*
X17144D2*
X19687D1*
X25612D2*
X27407D1*
X35695D2*
X38448D1*
X8467Y28022D2*
X11220D1*
X17144D2*
X19687D1*
X25612D2*
X27407D1*
X35695D2*
X38448D1*
X8467Y27992D2*
X11220D1*
X17144D2*
X19687D1*
X25612D2*
X27407D1*
X35695D2*
X38448D1*
X8467Y27962D2*
X11220D1*
X17144D2*
X19687D1*
X25612D2*
X27407D1*
X35695D2*
X38448D1*
X8467Y27932D2*
X11070D1*
X17294D2*
X19538D1*
X25761D2*
X27407D1*
X35845D2*
X38448D1*
X8467Y27902D2*
X11070D1*
X17294D2*
X19538D1*
X25761D2*
X27407D1*
X35845D2*
X38448D1*
X8467Y27872D2*
X11070D1*
X17294D2*
X19538D1*
X25761D2*
X27407D1*
X35845D2*
X38448D1*
X8467Y27843D2*
X11070D1*
X17294D2*
X19538D1*
X25761D2*
X27407D1*
X35845D2*
X38448D1*
X8467Y27813D2*
X11070D1*
X17294D2*
X19538D1*
X25761D2*
X27407D1*
X35845D2*
X38448D1*
X8467Y27783D2*
X10950D1*
X17443D2*
X19418D1*
X25911D2*
X27407D1*
X35965D2*
X38448D1*
X8467Y27753D2*
X10950D1*
X17443D2*
X19418D1*
X25911D2*
X27407D1*
X35965D2*
X38448D1*
X8467Y27723D2*
X10950D1*
X17443D2*
X19418D1*
X25911D2*
X27407D1*
X35965D2*
X38448D1*
X8467Y27693D2*
X10950D1*
X17443D2*
X19418D1*
X25911D2*
X27407D1*
X35965D2*
X38448D1*
X8467Y27663D2*
X10801D1*
X17563D2*
X19269D1*
X26031D2*
X27407D1*
X36114D2*
X38448D1*
X8467Y27633D2*
X10801D1*
X17563D2*
X19268D1*
X26031D2*
X27407D1*
X36114D2*
X38448D1*
X8467Y27603D2*
X10801D1*
X17563D2*
X19266D1*
X26031D2*
X27407D1*
X36117D2*
X38448D1*
X8467Y27573D2*
X10801D1*
X17563D2*
X19261D1*
X26031D2*
X27407D1*
X36121D2*
X38448D1*
X8467Y27543D2*
X10801D1*
X17563D2*
X19245D1*
X26031D2*
X27407D1*
X36138D2*
X38448D1*
X8467Y27513D2*
X10741D1*
X17623D2*
X19229D1*
X26120D2*
X27407D1*
X36154D2*
X38448D1*
X8467Y27483D2*
X10741D1*
X17623D2*
X19218D1*
X26121D2*
X27407D1*
X36164D2*
X38448D1*
X8467Y27454D2*
X10741D1*
X17623D2*
X19213D1*
X26123D2*
X27407D1*
X36170D2*
X38448D1*
X8467Y27424D2*
X10741D1*
X17623D2*
X19210D1*
X26128D2*
X27407D1*
X36172D2*
X38448D1*
X8467Y27394D2*
X10741D1*
X17623D2*
X19209D1*
X26144D2*
X27407D1*
X36173D2*
X38448D1*
X8467Y27364D2*
X10651D1*
X17713D2*
X19149D1*
X26160D2*
X27407D1*
X36264D2*
X38448D1*
X8467Y27334D2*
X10651D1*
X17713D2*
X19149D1*
X26173D2*
X27407D1*
X36266D2*
X38448D1*
X8467Y27304D2*
X10651D1*
X17713D2*
X19149D1*
X26186D2*
X27407D1*
X36271D2*
X38448D1*
X8467Y27274D2*
X10651D1*
X17713D2*
X19149D1*
X26203D2*
X27407D1*
X36287D2*
X38448D1*
X8467Y27244D2*
X10591D1*
X17772D2*
X19059D1*
X26219D2*
X27407D1*
X36303D2*
X38448D1*
X8467Y27214D2*
X10591D1*
X17772D2*
X19059D1*
X26230D2*
X27407D1*
X36314D2*
X38448D1*
X8467Y27184D2*
X10589D1*
X17772D2*
X19059D1*
X26236D2*
X27407D1*
X36319D2*
X38448D1*
X8467Y27154D2*
X10584D1*
X17772D2*
X19059D1*
X26238D2*
X27407D1*
X36322D2*
X38448D1*
X8467Y27124D2*
X10568D1*
X17772D2*
X19059D1*
X26240D2*
X27407D1*
X36323D2*
X38448D1*
X8467Y27094D2*
X10552D1*
X17832D2*
X18999D1*
X26330D2*
X27407D1*
X36383D2*
X38448D1*
X8467Y27065D2*
X10541D1*
X17832D2*
X18999D1*
X26330D2*
X27407D1*
X36383D2*
X38448D1*
X8467Y27035D2*
X10536D1*
X17832D2*
X18999D1*
X26330D2*
X27407D1*
X36383D2*
X38448D1*
X8467Y27005D2*
X10533D1*
X17832D2*
X18999D1*
X26330D2*
X27407D1*
X36383D2*
X38448D1*
X8467Y26975D2*
X10532D1*
X17832D2*
X18999D1*
X26330D2*
X27407D1*
X36383D2*
X38448D1*
X8467Y26945D2*
X10532D1*
X17832D2*
X18999D1*
X26330D2*
X27407D1*
X36383D2*
X38448D1*
X8467Y26915D2*
X10532D1*
X17832D2*
X18997D1*
X26332D2*
X27407D1*
X36383D2*
X38448D1*
X8467Y26885D2*
X10532D1*
X17832D2*
X18992D1*
X26337D2*
X27407D1*
X36383D2*
X38448D1*
X8467Y26855D2*
X10532D1*
X17832D2*
X18976D1*
X26354D2*
X27407D1*
X36383D2*
X38448D1*
X8467Y26825D2*
X10442D1*
X17922D2*
X18960D1*
X26369D2*
X27407D1*
X36473D2*
X38448D1*
X8467Y26795D2*
X10442D1*
X17922D2*
X18949D1*
X26380D2*
X27407D1*
X36473D2*
X38448D1*
X8467Y26765D2*
X10442D1*
X17922D2*
X18944D1*
X26386D2*
X27407D1*
X36473D2*
X38448D1*
X8467Y26735D2*
X10442D1*
X17922D2*
X18941D1*
X26388D2*
X27407D1*
X36473D2*
X38448D1*
X8467Y26706D2*
X10442D1*
X17922D2*
X18940D1*
X26389D2*
X27407D1*
X36473D2*
X38448D1*
X8467Y26676D2*
X10442D1*
X12716D2*
X15648D1*
X17922D2*
X18940D1*
X21183D2*
X24146D1*
X26390D2*
X27407D1*
X29651D2*
X30669D1*
X33212D2*
X34199D1*
X36473D2*
X38448D1*
X8467Y26646D2*
X10442D1*
X12716D2*
X15648D1*
X17922D2*
X18939D1*
X21183D2*
X24146D1*
X26390D2*
X27407D1*
X29651D2*
X30669D1*
X33212D2*
X34199D1*
X36473D2*
X38448D1*
X8467Y26616D2*
X10442D1*
X12716D2*
X15648D1*
X17922D2*
X18939D1*
X21183D2*
X24146D1*
X26390D2*
X27407D1*
X29651D2*
X30669D1*
X33212D2*
X34199D1*
X36473D2*
X38448D1*
X8467Y26586D2*
X10442D1*
X12716D2*
X15648D1*
X17922D2*
X18939D1*
X21183D2*
X24146D1*
X26390D2*
X27407D1*
X29651D2*
X30669D1*
X33212D2*
X34199D1*
X36473D2*
X38448D1*
X8467Y26556D2*
X10442D1*
X12716D2*
X15648D1*
X17922D2*
X18939D1*
X21183D2*
X24146D1*
X26390D2*
X27407D1*
X29651D2*
X30669D1*
X33212D2*
X34199D1*
X36473D2*
X38448D1*
X8467Y26526D2*
X10442D1*
X12506D2*
X15857D1*
X17922D2*
X18939D1*
X20974D2*
X24355D1*
X26390D2*
X27407D1*
X29442D2*
X30878D1*
X33002D2*
X34409D1*
X36473D2*
X38448D1*
X8467Y26496D2*
X10442D1*
X12506D2*
X15857D1*
X17922D2*
X18939D1*
X20974D2*
X24355D1*
X26390D2*
X27407D1*
X29442D2*
X30878D1*
X33002D2*
X34409D1*
X36473D2*
X38448D1*
X8467Y26466D2*
X10442D1*
X12506D2*
X15857D1*
X17922D2*
X18939D1*
X20974D2*
X24355D1*
X26390D2*
X27407D1*
X29442D2*
X30878D1*
X33002D2*
X34409D1*
X36473D2*
X38448D1*
X8467Y26436D2*
X10442D1*
X12506D2*
X15857D1*
X17922D2*
X18939D1*
X20974D2*
X24355D1*
X26390D2*
X27407D1*
X29442D2*
X30878D1*
X33002D2*
X34409D1*
X36473D2*
X38448D1*
X8467Y26406D2*
X10442D1*
X12506D2*
X15857D1*
X17922D2*
X18939D1*
X20974D2*
X24355D1*
X26390D2*
X27407D1*
X29442D2*
X30878D1*
X33002D2*
X34409D1*
X36473D2*
X38448D1*
X8467Y26376D2*
X10442D1*
X12357D2*
X16007D1*
X17922D2*
X18939D1*
X20824D2*
X24475D1*
X26390D2*
X27407D1*
X29322D2*
X31028D1*
X32853D2*
X34558D1*
X36473D2*
X38448D1*
X8467Y26346D2*
X10442D1*
X12357D2*
X16007D1*
X17922D2*
X18939D1*
X20824D2*
X24475D1*
X26390D2*
X27407D1*
X29322D2*
X31028D1*
X32853D2*
X34558D1*
X36473D2*
X38448D1*
X8467Y26317D2*
X10442D1*
X12357D2*
X16007D1*
X17922D2*
X18939D1*
X20824D2*
X24475D1*
X26390D2*
X27407D1*
X29322D2*
X31028D1*
X32853D2*
X34558D1*
X36473D2*
X38448D1*
X8467Y26287D2*
X10442D1*
X12357D2*
X16007D1*
X17922D2*
X18939D1*
X20824D2*
X24475D1*
X26390D2*
X27407D1*
X29322D2*
X31028D1*
X32853D2*
X34558D1*
X36473D2*
X38448D1*
X8467Y26257D2*
X10442D1*
X12357D2*
X16007D1*
X17922D2*
X18939D1*
X20824D2*
X24475D1*
X26390D2*
X27407D1*
X29322D2*
X31028D1*
X32853D2*
X34558D1*
X36473D2*
X38448D1*
X8467Y26227D2*
X10442D1*
X12357D2*
X16007D1*
X17922D2*
X18939D1*
X20824D2*
X24475D1*
X26390D2*
X27407D1*
X29322D2*
X31028D1*
X32853D2*
X34558D1*
X36473D2*
X38448D1*
X8467Y26197D2*
X10442D1*
X12357D2*
X16007D1*
X17922D2*
X18939D1*
X20824D2*
X24475D1*
X26390D2*
X27407D1*
X29322D2*
X31028D1*
X32853D2*
X34558D1*
X36473D2*
X38448D1*
X8467Y26167D2*
X10442D1*
X12357D2*
X16007D1*
X17922D2*
X18939D1*
X20824D2*
X24475D1*
X26390D2*
X27407D1*
X29322D2*
X31028D1*
X32853D2*
X34558D1*
X36473D2*
X38448D1*
X8467Y26137D2*
X10442D1*
X12357D2*
X16007D1*
X17922D2*
X18939D1*
X20824D2*
X24475D1*
X26390D2*
X27407D1*
X29322D2*
X31028D1*
X32853D2*
X34558D1*
X36473D2*
X38448D1*
X8467Y26107D2*
X10442D1*
X12357D2*
X16007D1*
X17922D2*
X18939D1*
X20824D2*
X24475D1*
X26390D2*
X27407D1*
X29322D2*
X31028D1*
X32853D2*
X34558D1*
X36473D2*
X38448D1*
X8467Y26077D2*
X10442D1*
X12357D2*
X16007D1*
X17922D2*
X18939D1*
X20824D2*
X24475D1*
X26390D2*
X27407D1*
X29322D2*
X31028D1*
X32853D2*
X34558D1*
X36473D2*
X38448D1*
X8467Y26047D2*
X10442D1*
X12357D2*
X16007D1*
X17922D2*
X18939D1*
X20824D2*
X24475D1*
X26390D2*
X27407D1*
X29322D2*
X31028D1*
X32853D2*
X34558D1*
X36473D2*
X38448D1*
X8467Y26017D2*
X10442D1*
X12357D2*
X16007D1*
X17922D2*
X18939D1*
X20824D2*
X24475D1*
X26390D2*
X27407D1*
X29322D2*
X31028D1*
X32853D2*
X34558D1*
X36473D2*
X38448D1*
X8467Y25987D2*
X10442D1*
X12357D2*
X16007D1*
X17922D2*
X18939D1*
X20824D2*
X24475D1*
X26390D2*
X27407D1*
X29322D2*
X31028D1*
X32853D2*
X34558D1*
X36473D2*
X38448D1*
X8467Y25957D2*
X10442D1*
X12357D2*
X16007D1*
X17922D2*
X18939D1*
X20824D2*
X24475D1*
X26390D2*
X27407D1*
X29322D2*
X31028D1*
X32853D2*
X34558D1*
X36473D2*
X38448D1*
X8467Y25928D2*
X10442D1*
X12357D2*
X16007D1*
X17922D2*
X18939D1*
X20824D2*
X24475D1*
X26390D2*
X27407D1*
X29322D2*
X31028D1*
X32853D2*
X34558D1*
X36473D2*
X38448D1*
X8467Y25898D2*
X10442D1*
X12357D2*
X16007D1*
X17922D2*
X18939D1*
X20824D2*
X24475D1*
X26390D2*
X27407D1*
X29322D2*
X31028D1*
X32853D2*
X34558D1*
X36473D2*
X38448D1*
X8467Y25868D2*
X10442D1*
X12357D2*
X16007D1*
X17922D2*
X18939D1*
X20824D2*
X24475D1*
X26390D2*
X27407D1*
X29322D2*
X31028D1*
X32853D2*
X34558D1*
X36473D2*
X38448D1*
X8467Y25838D2*
X10442D1*
X12357D2*
X16007D1*
X17922D2*
X18939D1*
X20824D2*
X27407D1*
X29322D2*
X31028D1*
X32853D2*
X34558D1*
X36473D2*
X38448D1*
X8467Y25808D2*
X10442D1*
X12357D2*
X16007D1*
X17922D2*
X18939D1*
X20824D2*
X27407D1*
X29322D2*
X31028D1*
X32853D2*
X34558D1*
X36473D2*
X38448D1*
X8467Y25778D2*
X10442D1*
X12357D2*
X16007D1*
X17922D2*
X18939D1*
X20824D2*
X27407D1*
X29322D2*
X31028D1*
X32853D2*
X34558D1*
X36473D2*
X38448D1*
X8467Y25748D2*
X10442D1*
X12357D2*
X16007D1*
X17922D2*
X18939D1*
X20824D2*
X27407D1*
X29322D2*
X31028D1*
X32853D2*
X34558D1*
X36473D2*
X38448D1*
X8467Y25718D2*
X10442D1*
X12357D2*
X16007D1*
X17922D2*
X18939D1*
X20824D2*
X27407D1*
X29322D2*
X31028D1*
X32853D2*
X34558D1*
X36473D2*
X38448D1*
X8467Y25688D2*
X10442D1*
X12357D2*
X16007D1*
X17922D2*
X18939D1*
X20824D2*
X27407D1*
X29322D2*
X31028D1*
X32853D2*
X34558D1*
X36473D2*
X38448D1*
X8467Y25658D2*
X10442D1*
X12357D2*
X16007D1*
X17922D2*
X18939D1*
X20824D2*
X27407D1*
X29322D2*
X31028D1*
X32853D2*
X34558D1*
X36473D2*
X38448D1*
X8467Y25628D2*
X10442D1*
X12357D2*
X16007D1*
X17922D2*
X18939D1*
X20824D2*
X27407D1*
X29322D2*
X31028D1*
X32853D2*
X34558D1*
X36473D2*
X38448D1*
X8467Y25598D2*
X10442D1*
X12357D2*
X16007D1*
X17922D2*
X18939D1*
X20824D2*
X27407D1*
X29322D2*
X31028D1*
X32853D2*
X34558D1*
X36473D2*
X38448D1*
X8467Y25569D2*
X10442D1*
X12357D2*
X16007D1*
X17922D2*
X18939D1*
X20824D2*
X27407D1*
X29322D2*
X31028D1*
X32853D2*
X34558D1*
X36473D2*
X38448D1*
X8467Y25539D2*
X10442D1*
X12357D2*
X16007D1*
X17922D2*
X18939D1*
X20824D2*
X27407D1*
X29322D2*
X31028D1*
X32853D2*
X34558D1*
X36473D2*
X38448D1*
X8467Y25509D2*
X10442D1*
X12357D2*
X16007D1*
X17922D2*
X18939D1*
X20824D2*
X27407D1*
X29322D2*
X31028D1*
X32853D2*
X34558D1*
X36473D2*
X38448D1*
X8467Y25479D2*
X10442D1*
X12357D2*
X16007D1*
X17922D2*
X18939D1*
X20824D2*
X27407D1*
X29322D2*
X31028D1*
X32853D2*
X34558D1*
X36473D2*
X38448D1*
X8467Y25449D2*
X10442D1*
X12357D2*
X16007D1*
X17922D2*
X18939D1*
X20824D2*
X27407D1*
X29322D2*
X31028D1*
X32853D2*
X34558D1*
X36473D2*
X38448D1*
X8467Y25419D2*
X10442D1*
X12357D2*
X16007D1*
X17922D2*
X18939D1*
X20824D2*
X27407D1*
X29322D2*
X31028D1*
X32853D2*
X34558D1*
X36473D2*
X38448D1*
X8467Y25389D2*
X10442D1*
X12357D2*
X16007D1*
X17922D2*
X18939D1*
X20824D2*
X27407D1*
X29322D2*
X31028D1*
X32853D2*
X34558D1*
X36473D2*
X38448D1*
X8467Y25359D2*
X10442D1*
X12357D2*
X16007D1*
X17922D2*
X18939D1*
X20824D2*
X27407D1*
X29322D2*
X31028D1*
X32853D2*
X34558D1*
X36473D2*
X38448D1*
X8467Y25329D2*
X10442D1*
X12357D2*
X16007D1*
X17922D2*
X18939D1*
X20824D2*
X27407D1*
X29322D2*
X31028D1*
X32853D2*
X34558D1*
X36473D2*
X38448D1*
X8467Y25299D2*
X10442D1*
X12357D2*
X16007D1*
X17922D2*
X18939D1*
X20824D2*
X27407D1*
X29322D2*
X31028D1*
X32853D2*
X34558D1*
X36473D2*
X38448D1*
X8467Y25269D2*
X10442D1*
X12357D2*
X16007D1*
X17922D2*
X18939D1*
X20824D2*
X27407D1*
X29322D2*
X31028D1*
X32853D2*
X34558D1*
X36473D2*
X38448D1*
X8467Y25239D2*
X10442D1*
X12357D2*
X16007D1*
X17922D2*
X18939D1*
X20824D2*
X27407D1*
X29322D2*
X31028D1*
X32853D2*
X34558D1*
X36473D2*
X38448D1*
X8467Y25209D2*
X10442D1*
X12357D2*
X16007D1*
X17922D2*
X18939D1*
X20824D2*
X27407D1*
X29322D2*
X31028D1*
X32853D2*
X34558D1*
X36473D2*
X38448D1*
X8467Y25180D2*
X10442D1*
X12357D2*
X16007D1*
X17922D2*
X18939D1*
X20824D2*
X27407D1*
X29322D2*
X31028D1*
X32853D2*
X34558D1*
X36473D2*
X38448D1*
X8467Y25150D2*
X10442D1*
X12357D2*
X16007D1*
X17922D2*
X18939D1*
X20824D2*
X27407D1*
X29322D2*
X31028D1*
X32853D2*
X34558D1*
X36473D2*
X38448D1*
X8467Y25120D2*
X10442D1*
X12357D2*
X16007D1*
X17922D2*
X18939D1*
X20824D2*
X27407D1*
X29322D2*
X31028D1*
X32853D2*
X34558D1*
X36473D2*
X38448D1*
X8467Y25090D2*
X10442D1*
X12357D2*
X16007D1*
X17922D2*
X18939D1*
X20824D2*
X27407D1*
X29322D2*
X31028D1*
X32853D2*
X34558D1*
X36473D2*
X38448D1*
X8467Y25060D2*
X10442D1*
X12357D2*
X16007D1*
X17922D2*
X18939D1*
X20824D2*
X27407D1*
X29322D2*
X31028D1*
X32853D2*
X34558D1*
X36473D2*
X38448D1*
X8467Y25030D2*
X10442D1*
X12357D2*
X16007D1*
X17922D2*
X18939D1*
X20824D2*
X27407D1*
X29322D2*
X31028D1*
X32853D2*
X34558D1*
X36473D2*
X38448D1*
X8467Y25000D2*
X10442D1*
X12357D2*
X16007D1*
X17922D2*
X18939D1*
X20824D2*
X27407D1*
X29322D2*
X31028D1*
X32853D2*
X34558D1*
X36473D2*
X38448D1*
X8467Y24970D2*
X10442D1*
X12357D2*
X16007D1*
X17922D2*
X18939D1*
X20824D2*
X27407D1*
X29322D2*
X31028D1*
X32853D2*
X34558D1*
X36473D2*
X38448D1*
X8467Y24940D2*
X10442D1*
X12357D2*
X16007D1*
X17922D2*
X18939D1*
X20824D2*
X27407D1*
X29322D2*
X31028D1*
X32853D2*
X34558D1*
X36473D2*
X38448D1*
X8467Y24910D2*
X10442D1*
X12357D2*
X16007D1*
X17922D2*
X18939D1*
X20824D2*
X27407D1*
X29322D2*
X31028D1*
X32853D2*
X34558D1*
X36473D2*
X38448D1*
X8467Y24880D2*
X10442D1*
X12357D2*
X16007D1*
X17922D2*
X18939D1*
X20824D2*
X27407D1*
X29322D2*
X31028D1*
X32853D2*
X34558D1*
X36473D2*
X38448D1*
X8467Y24850D2*
X10442D1*
X12357D2*
X16007D1*
X17922D2*
X18939D1*
X20824D2*
X27407D1*
X29322D2*
X31028D1*
X32853D2*
X34558D1*
X36473D2*
X38448D1*
X8467Y24820D2*
X10442D1*
X12357D2*
X16007D1*
X17922D2*
X18939D1*
X20824D2*
X27407D1*
X29322D2*
X31028D1*
X32853D2*
X34558D1*
X36473D2*
X38448D1*
X8467Y24791D2*
X10442D1*
X12357D2*
X16007D1*
X17922D2*
X18939D1*
X20824D2*
X27407D1*
X29322D2*
X31028D1*
X32853D2*
X34558D1*
X36473D2*
X38448D1*
X8467Y24761D2*
X10442D1*
X12357D2*
X16007D1*
X17922D2*
X18939D1*
X20824D2*
X27407D1*
X29322D2*
X31028D1*
X32853D2*
X34558D1*
X36473D2*
X38448D1*
X8467Y24731D2*
X10442D1*
X12357D2*
X16007D1*
X17922D2*
X18939D1*
X20824D2*
X27407D1*
X29322D2*
X31028D1*
X32853D2*
X34558D1*
X36473D2*
X38448D1*
X8467Y24701D2*
X10442D1*
X12357D2*
X16007D1*
X17922D2*
X18939D1*
X20824D2*
X27407D1*
X29322D2*
X31028D1*
X32853D2*
X34558D1*
X36473D2*
X38448D1*
X8467Y24671D2*
X10442D1*
X12357D2*
X16007D1*
X17922D2*
X18939D1*
X20824D2*
X27407D1*
X29322D2*
X31028D1*
X32853D2*
X34558D1*
X36473D2*
X38448D1*
X8467Y24641D2*
X10442D1*
X12357D2*
X16007D1*
X17922D2*
X18939D1*
X20824D2*
X27407D1*
X29322D2*
X31028D1*
X32853D2*
X34558D1*
X36473D2*
X38448D1*
X8467Y24611D2*
X10442D1*
X12357D2*
X16007D1*
X17922D2*
X18939D1*
X20824D2*
X27407D1*
X29322D2*
X31028D1*
X32853D2*
X34558D1*
X36473D2*
X38448D1*
X8467Y24581D2*
X10442D1*
X12357D2*
X16007D1*
X17922D2*
X18939D1*
X20824D2*
X27407D1*
X29322D2*
X31028D1*
X32853D2*
X34558D1*
X36473D2*
X38448D1*
X8467Y24551D2*
X10442D1*
X12357D2*
X16007D1*
X17922D2*
X18939D1*
X20824D2*
X27407D1*
X29322D2*
X31028D1*
X32853D2*
X34558D1*
X36473D2*
X38448D1*
X8467Y24521D2*
X10442D1*
X12357D2*
X16007D1*
X17922D2*
X18939D1*
X20824D2*
X27407D1*
X29322D2*
X31028D1*
X32853D2*
X34558D1*
X36473D2*
X38448D1*
X8467Y24491D2*
X10442D1*
X12357D2*
X16007D1*
X17922D2*
X18939D1*
X20824D2*
X27407D1*
X29322D2*
X31028D1*
X32853D2*
X34558D1*
X36473D2*
X38448D1*
X8467Y24461D2*
X10442D1*
X12357D2*
X16007D1*
X17922D2*
X18939D1*
X20824D2*
X27407D1*
X29322D2*
X31028D1*
X32853D2*
X34558D1*
X36473D2*
X38448D1*
X8467Y24431D2*
X10442D1*
X12357D2*
X16007D1*
X17922D2*
X18939D1*
X20824D2*
X27407D1*
X29322D2*
X31028D1*
X32853D2*
X34558D1*
X36473D2*
X38448D1*
X8467Y24402D2*
X10442D1*
X12357D2*
X16007D1*
X17922D2*
X18939D1*
X20824D2*
X27407D1*
X29322D2*
X31028D1*
X32853D2*
X34558D1*
X36473D2*
X38448D1*
X8467Y24372D2*
X10442D1*
X12357D2*
X16007D1*
X17922D2*
X18939D1*
X20824D2*
X27407D1*
X29322D2*
X31028D1*
X32853D2*
X34558D1*
X36473D2*
X38448D1*
X8467Y24342D2*
X10442D1*
X12357D2*
X16007D1*
X17922D2*
X18939D1*
X20824D2*
X27407D1*
X29322D2*
X31028D1*
X32853D2*
X34558D1*
X36473D2*
X38448D1*
X8467Y24312D2*
X10442D1*
X12357D2*
X16007D1*
X17922D2*
X18939D1*
X20824D2*
X27407D1*
X29322D2*
X31028D1*
X32853D2*
X34558D1*
X36473D2*
X38448D1*
X8467Y24282D2*
X10442D1*
X12357D2*
X16007D1*
X17922D2*
X18939D1*
X20824D2*
X27407D1*
X29322D2*
X31028D1*
X32853D2*
X34558D1*
X36473D2*
X38448D1*
X8467Y24252D2*
X10442D1*
X12357D2*
X16007D1*
X17922D2*
X18939D1*
X20824D2*
X27407D1*
X29322D2*
X31028D1*
X32853D2*
X34558D1*
X36473D2*
X38448D1*
X8467Y24222D2*
X10442D1*
X12357D2*
X16007D1*
X17922D2*
X18939D1*
X20824D2*
X27407D1*
X29322D2*
X31028D1*
X32853D2*
X34558D1*
X36473D2*
X38448D1*
X8467Y24192D2*
X10442D1*
X12357D2*
X16007D1*
X17922D2*
X18939D1*
X20824D2*
X27407D1*
X29322D2*
X31028D1*
X32853D2*
X34558D1*
X36473D2*
X38448D1*
X8467Y24162D2*
X10442D1*
X12357D2*
X16007D1*
X17922D2*
X18939D1*
X20824D2*
X27407D1*
X29322D2*
X31028D1*
X32853D2*
X34558D1*
X36473D2*
X38448D1*
X8467Y24132D2*
X10442D1*
X12357D2*
X16007D1*
X17922D2*
X18939D1*
X20824D2*
X27407D1*
X29322D2*
X31028D1*
X32853D2*
X34558D1*
X36473D2*
X38448D1*
X8467Y24102D2*
X10442D1*
X12357D2*
X16007D1*
X17922D2*
X18939D1*
X20824D2*
X27407D1*
X29322D2*
X31028D1*
X32853D2*
X34558D1*
X36473D2*
X38448D1*
X8467Y24072D2*
X10442D1*
X12357D2*
X16007D1*
X17922D2*
X18939D1*
X20824D2*
X27407D1*
X29322D2*
X31028D1*
X32853D2*
X34558D1*
X36473D2*
X38448D1*
X8467Y24043D2*
X10442D1*
X12357D2*
X16007D1*
X17922D2*
X18939D1*
X20824D2*
X27407D1*
X29322D2*
X31028D1*
X32853D2*
X34558D1*
X36473D2*
X38448D1*
X8467Y24013D2*
X10442D1*
X12357D2*
X16007D1*
X17922D2*
X18939D1*
X20824D2*
X27407D1*
X29322D2*
X31028D1*
X32853D2*
X34558D1*
X36473D2*
X38448D1*
X8467Y23983D2*
X10442D1*
X12357D2*
X16007D1*
X17922D2*
X18939D1*
X20824D2*
X24475D1*
X26390D2*
X27407D1*
X29322D2*
X31028D1*
X32853D2*
X34558D1*
X36473D2*
X38448D1*
X8467Y23953D2*
X10442D1*
X12357D2*
X16007D1*
X17922D2*
X18939D1*
X20824D2*
X24475D1*
X26390D2*
X27407D1*
X29322D2*
X31028D1*
X32853D2*
X34558D1*
X36473D2*
X38448D1*
X8467Y23923D2*
X10442D1*
X12357D2*
X16007D1*
X17922D2*
X18939D1*
X20824D2*
X24475D1*
X26390D2*
X27407D1*
X29322D2*
X31028D1*
X32853D2*
X34558D1*
X36473D2*
X38448D1*
X8467Y23893D2*
X10442D1*
X12357D2*
X16007D1*
X17922D2*
X18939D1*
X20824D2*
X24475D1*
X26390D2*
X27407D1*
X29322D2*
X31028D1*
X32853D2*
X34558D1*
X36473D2*
X38448D1*
X8467Y23863D2*
X10442D1*
X12357D2*
X16007D1*
X17922D2*
X18939D1*
X20824D2*
X24475D1*
X26390D2*
X27407D1*
X29322D2*
X31028D1*
X32853D2*
X34558D1*
X36473D2*
X38448D1*
X8467Y23833D2*
X10442D1*
X12357D2*
X16007D1*
X17922D2*
X18939D1*
X20824D2*
X24475D1*
X26390D2*
X27407D1*
X29322D2*
X31028D1*
X32853D2*
X34558D1*
X36473D2*
X38448D1*
X8467Y23803D2*
X10442D1*
X12357D2*
X16007D1*
X17922D2*
X18939D1*
X20824D2*
X24475D1*
X26390D2*
X27407D1*
X29322D2*
X31028D1*
X32853D2*
X34558D1*
X36473D2*
X38448D1*
X8467Y23773D2*
X10442D1*
X12357D2*
X16007D1*
X17922D2*
X18939D1*
X20824D2*
X24475D1*
X26390D2*
X27407D1*
X29322D2*
X31028D1*
X32853D2*
X34558D1*
X36473D2*
X38448D1*
X8467Y23743D2*
X10442D1*
X12357D2*
X16007D1*
X17922D2*
X18939D1*
X20824D2*
X24475D1*
X26390D2*
X27407D1*
X29322D2*
X31028D1*
X32853D2*
X34558D1*
X36473D2*
X38448D1*
X8467Y23713D2*
X10442D1*
X12357D2*
X16007D1*
X17922D2*
X18939D1*
X20824D2*
X24475D1*
X26390D2*
X27407D1*
X29322D2*
X31028D1*
X32853D2*
X34558D1*
X36473D2*
X38448D1*
X8467Y23683D2*
X10442D1*
X12357D2*
X16007D1*
X17922D2*
X18939D1*
X20824D2*
X24475D1*
X26390D2*
X27407D1*
X29322D2*
X31028D1*
X32853D2*
X34558D1*
X36473D2*
X38448D1*
X8467Y23654D2*
X10442D1*
X12357D2*
X16007D1*
X17922D2*
X18939D1*
X20824D2*
X24475D1*
X26390D2*
X27407D1*
X29322D2*
X31028D1*
X32853D2*
X34558D1*
X36473D2*
X38448D1*
X8467Y23624D2*
X10442D1*
X12357D2*
X16007D1*
X17922D2*
X18939D1*
X20824D2*
X24475D1*
X26390D2*
X27407D1*
X29322D2*
X31028D1*
X32853D2*
X34558D1*
X36473D2*
X38448D1*
X8467Y23594D2*
X10442D1*
X12357D2*
X16007D1*
X17922D2*
X18939D1*
X20824D2*
X24475D1*
X26390D2*
X27407D1*
X29322D2*
X31028D1*
X32853D2*
X34558D1*
X36473D2*
X38448D1*
X8467Y23564D2*
X10442D1*
X12357D2*
X16007D1*
X17922D2*
X18939D1*
X20824D2*
X24475D1*
X26390D2*
X27407D1*
X29322D2*
X31028D1*
X32853D2*
X34558D1*
X36473D2*
X38448D1*
X8467Y23534D2*
X10442D1*
X12357D2*
X16007D1*
X17922D2*
X18939D1*
X20824D2*
X24475D1*
X26390D2*
X27407D1*
X29322D2*
X31028D1*
X32853D2*
X34558D1*
X36473D2*
X38448D1*
X8467Y23504D2*
X10442D1*
X12357D2*
X16007D1*
X17922D2*
X18939D1*
X20824D2*
X24475D1*
X26390D2*
X27407D1*
X29322D2*
X31028D1*
X32853D2*
X34558D1*
X36473D2*
X38448D1*
X8467Y23474D2*
X10442D1*
X12357D2*
X16007D1*
X17922D2*
X18939D1*
X20824D2*
X24475D1*
X26390D2*
X27407D1*
X29322D2*
X31028D1*
X32853D2*
X34558D1*
X36473D2*
X38448D1*
X8467Y23444D2*
X10442D1*
X12506D2*
X15857D1*
X17922D2*
X18939D1*
X20974D2*
X24355D1*
X26390D2*
X27407D1*
X29322D2*
X31028D1*
X32853D2*
X34558D1*
X36473D2*
X38448D1*
X8467Y23414D2*
X10442D1*
X12506D2*
X15857D1*
X17922D2*
X18939D1*
X20974D2*
X24355D1*
X26390D2*
X27407D1*
X29322D2*
X31028D1*
X32853D2*
X34558D1*
X36473D2*
X38448D1*
X8467Y23384D2*
X10442D1*
X12506D2*
X15857D1*
X17922D2*
X18939D1*
X20974D2*
X24355D1*
X26390D2*
X27407D1*
X29322D2*
X31028D1*
X32853D2*
X34558D1*
X36473D2*
X38448D1*
X8467Y23354D2*
X10442D1*
X12506D2*
X15857D1*
X17922D2*
X18939D1*
X20974D2*
X24355D1*
X26390D2*
X27407D1*
X29322D2*
X31028D1*
X32853D2*
X34558D1*
X36473D2*
X38448D1*
X8467Y23324D2*
X10442D1*
X12506D2*
X15857D1*
X17922D2*
X18939D1*
X20974D2*
X24355D1*
X26390D2*
X27407D1*
X29322D2*
X31028D1*
X32853D2*
X34558D1*
X36473D2*
X38448D1*
X8467Y23294D2*
X10442D1*
X12716D2*
X15648D1*
X17922D2*
X18939D1*
X21183D2*
X24146D1*
X26390D2*
X27407D1*
X29322D2*
X31028D1*
X32853D2*
X34558D1*
X36473D2*
X38448D1*
X8467Y23265D2*
X10442D1*
X12716D2*
X15648D1*
X17922D2*
X18939D1*
X21183D2*
X24146D1*
X26390D2*
X27407D1*
X29322D2*
X31028D1*
X32853D2*
X34558D1*
X36473D2*
X38448D1*
X8467Y23235D2*
X10442D1*
X12716D2*
X15648D1*
X17922D2*
X18939D1*
X21183D2*
X24146D1*
X26390D2*
X27407D1*
X29322D2*
X31028D1*
X32853D2*
X34558D1*
X36473D2*
X38448D1*
X8467Y23205D2*
X10442D1*
X12716D2*
X15648D1*
X17922D2*
X18939D1*
X21183D2*
X24146D1*
X26390D2*
X27407D1*
X29322D2*
X31028D1*
X32853D2*
X34558D1*
X36473D2*
X38448D1*
X8467Y23175D2*
X10442D1*
X12716D2*
X15648D1*
X17922D2*
X18939D1*
X21183D2*
X24146D1*
X26390D2*
X27407D1*
X29322D2*
X31028D1*
X32853D2*
X34558D1*
X36473D2*
X38448D1*
X8467Y23145D2*
X10442D1*
X17922D2*
X18939D1*
X26390D2*
X27407D1*
X29322D2*
X31028D1*
X32853D2*
X34558D1*
X36473D2*
X38448D1*
X8467Y23115D2*
X10442D1*
X17922D2*
X18940D1*
X26390D2*
X27407D1*
X29322D2*
X31028D1*
X32853D2*
X34558D1*
X36473D2*
X38448D1*
X8467Y23085D2*
X10442D1*
X17922D2*
X18942D1*
X26387D2*
X27407D1*
X29322D2*
X31028D1*
X32853D2*
X34558D1*
X36473D2*
X38448D1*
X8467Y23055D2*
X10442D1*
X17922D2*
X18947D1*
X26383D2*
X27407D1*
X29322D2*
X31028D1*
X32853D2*
X34558D1*
X36473D2*
X38448D1*
X8467Y23025D2*
X10442D1*
X17922D2*
X18963D1*
X26366D2*
X27407D1*
X29322D2*
X31028D1*
X32853D2*
X34558D1*
X36473D2*
X38448D1*
X8467Y22995D2*
X10531D1*
X17832D2*
X18979D1*
X26350D2*
X27407D1*
X29322D2*
X31028D1*
X32853D2*
X34558D1*
X36473D2*
X38448D1*
X8467Y22965D2*
X10531D1*
X17832D2*
X18989D1*
X26340D2*
X27407D1*
X29322D2*
X31028D1*
X32853D2*
X34558D1*
X36473D2*
X38448D1*
X8467Y22935D2*
X10531D1*
X17832D2*
X18995D1*
X26334D2*
X27407D1*
X29322D2*
X31028D1*
X32853D2*
X34558D1*
X36473D2*
X38448D1*
X8467Y22906D2*
X10531D1*
X17832D2*
X18998D1*
X26332D2*
X27407D1*
X29322D2*
X31028D1*
X32853D2*
X34558D1*
X36473D2*
X38448D1*
X8467Y22876D2*
X10531D1*
X17832D2*
X18999D1*
X26331D2*
X27407D1*
X29322D2*
X31028D1*
X32853D2*
X34558D1*
X36473D2*
X38448D1*
X8467Y22846D2*
X10532D1*
X17832D2*
X18999D1*
X26330D2*
X27407D1*
X29322D2*
X31028D1*
X32853D2*
X34558D1*
X36473D2*
X38448D1*
X8467Y22816D2*
X10534D1*
X17830D2*
X19001D1*
X26330D2*
X27407D1*
X29322D2*
X31028D1*
X32853D2*
X34558D1*
X36473D2*
X38448D1*
X8467Y22786D2*
X10539D1*
X17825D2*
X19006D1*
X26330D2*
X27407D1*
X29322D2*
X31028D1*
X32853D2*
X34558D1*
X36473D2*
X38448D1*
X8467Y22756D2*
X10555D1*
X17809D2*
X19023D1*
X26330D2*
X27407D1*
X29322D2*
X31028D1*
X32853D2*
X34558D1*
X36473D2*
X38448D1*
X8467Y22726D2*
X10571D1*
X17793D2*
X19039D1*
X26240D2*
X27407D1*
X29322D2*
X31028D1*
X32853D2*
X34558D1*
X36473D2*
X38448D1*
X8467Y22696D2*
X10582D1*
X17782D2*
X19049D1*
X26240D2*
X27407D1*
X29322D2*
X31028D1*
X32853D2*
X34558D1*
X36473D2*
X38448D1*
X8467Y22666D2*
X10589D1*
X17774D2*
X19055D1*
X26238D2*
X27407D1*
X29322D2*
X31028D1*
X32853D2*
X34558D1*
X36473D2*
X38448D1*
X8467Y22636D2*
X10600D1*
X17764D2*
X19057D1*
X26233D2*
X27407D1*
X29322D2*
X31028D1*
X32853D2*
X34558D1*
X36473D2*
X38448D1*
X8467Y22606D2*
X10615D1*
X17749D2*
X19058D1*
X26217D2*
X27407D1*
X29322D2*
X31028D1*
X32853D2*
X34558D1*
X36473D2*
X38448D1*
X8467Y22576D2*
X10631D1*
X17733D2*
X19149D1*
X26201D2*
X27407D1*
X29322D2*
X31028D1*
X32853D2*
X34558D1*
X36473D2*
X38448D1*
X8467Y22546D2*
X10641D1*
X17722D2*
X19149D1*
X26190D2*
X27407D1*
X29322D2*
X31028D1*
X32853D2*
X34558D1*
X36473D2*
X38448D1*
X8467Y22517D2*
X10647D1*
X17717D2*
X19149D1*
X26185D2*
X27407D1*
X29322D2*
X31028D1*
X32853D2*
X34558D1*
X36473D2*
X38448D1*
X8467Y22487D2*
X10650D1*
X17714D2*
X19149D1*
X26182D2*
X27407D1*
X29322D2*
X31028D1*
X32853D2*
X34558D1*
X36473D2*
X38448D1*
X8467Y22457D2*
X10741D1*
X17623D2*
X19209D1*
X26120D2*
X27407D1*
X29322D2*
X31028D1*
X32853D2*
X34558D1*
X36473D2*
X38448D1*
X8467Y22427D2*
X10741D1*
X17623D2*
X19209D1*
X26120D2*
X27407D1*
X29322D2*
X31028D1*
X32853D2*
X34558D1*
X36473D2*
X38448D1*
X8467Y22397D2*
X10743D1*
X17620D2*
X19211D1*
X26120D2*
X27407D1*
X29322D2*
X31028D1*
X32853D2*
X34558D1*
X36473D2*
X38448D1*
X8467Y22367D2*
X10748D1*
X17616D2*
X19216D1*
X26120D2*
X27407D1*
X29322D2*
X31028D1*
X32853D2*
X34558D1*
X36473D2*
X38448D1*
X8467Y22337D2*
X10765D1*
X17599D2*
X19232D1*
X26120D2*
X27407D1*
X29322D2*
X31028D1*
X32853D2*
X34558D1*
X36473D2*
X38448D1*
X8467Y22307D2*
X10780D1*
X17583D2*
X19248D1*
X26031D2*
X27407D1*
X29322D2*
X31028D1*
X32853D2*
X34558D1*
X36473D2*
X38448D1*
X8467Y22277D2*
X10791D1*
X17573D2*
X19259D1*
X26031D2*
X27407D1*
X29322D2*
X31028D1*
X32853D2*
X34558D1*
X36473D2*
X38448D1*
X8467Y22247D2*
X10797D1*
X17567D2*
X19264D1*
X26031D2*
X27407D1*
X29322D2*
X31028D1*
X32853D2*
X34558D1*
X36473D2*
X38448D1*
X8467Y22217D2*
X10799D1*
X17565D2*
X19267D1*
X26031D2*
X27407D1*
X29322D2*
X31028D1*
X32853D2*
X34558D1*
X36473D2*
X38448D1*
X8467Y22187D2*
X10800D1*
X17564D2*
X19268D1*
X26031D2*
X27407D1*
X29322D2*
X31028D1*
X32853D2*
X34558D1*
X36473D2*
X38448D1*
X8467Y22157D2*
X10950D1*
X17443D2*
X19418D1*
X25911D2*
X27407D1*
X29322D2*
X31028D1*
X32853D2*
X34558D1*
X36473D2*
X38448D1*
X8467Y22128D2*
X10950D1*
X17443D2*
X19418D1*
X25911D2*
X27407D1*
X29322D2*
X31028D1*
X32853D2*
X34558D1*
X36473D2*
X38448D1*
X8467Y22098D2*
X10950D1*
X17443D2*
X19418D1*
X25911D2*
X27407D1*
X29322D2*
X31028D1*
X32853D2*
X34558D1*
X36473D2*
X38448D1*
X8467Y22068D2*
X10950D1*
X17443D2*
X19418D1*
X25911D2*
X27407D1*
X29322D2*
X31028D1*
X32853D2*
X34558D1*
X36473D2*
X38448D1*
X8467Y22038D2*
X11070D1*
X17294D2*
X19538D1*
X25761D2*
X27407D1*
X29322D2*
X31028D1*
X32853D2*
X34558D1*
X36473D2*
X38448D1*
X8467Y22008D2*
X11070D1*
X17294D2*
X19538D1*
X25761D2*
X27407D1*
X29322D2*
X31028D1*
X32853D2*
X34558D1*
X36473D2*
X38448D1*
X8467Y21978D2*
X11070D1*
X17294D2*
X19538D1*
X25761D2*
X27407D1*
X29322D2*
X31028D1*
X32853D2*
X34558D1*
X36473D2*
X38448D1*
X8467Y21948D2*
X11070D1*
X17294D2*
X19538D1*
X25761D2*
X27407D1*
X29322D2*
X31028D1*
X32853D2*
X34558D1*
X36473D2*
X38448D1*
X8467Y21918D2*
X11070D1*
X17294D2*
X19538D1*
X25761D2*
X27407D1*
X29322D2*
X31028D1*
X32853D2*
X34558D1*
X36473D2*
X38448D1*
X8467Y21888D2*
X11220D1*
X17144D2*
X19687D1*
X25612D2*
X27407D1*
X29322D2*
X31028D1*
X32853D2*
X34558D1*
X36473D2*
X38448D1*
X8467Y21858D2*
X11220D1*
X17144D2*
X19687D1*
X25612D2*
X27407D1*
X29322D2*
X31028D1*
X32853D2*
X34558D1*
X36473D2*
X38448D1*
X8467Y21828D2*
X11220D1*
X17144D2*
X19687D1*
X25612D2*
X27407D1*
X29322D2*
X31028D1*
X32853D2*
X34558D1*
X36473D2*
X38448D1*
X8467Y21798D2*
X11220D1*
X17144D2*
X19687D1*
X25612D2*
X27407D1*
X29322D2*
X31028D1*
X32853D2*
X34558D1*
X36473D2*
X38448D1*
X8467Y21769D2*
X11220D1*
X17144D2*
X19687D1*
X25612D2*
X27407D1*
X29322D2*
X31028D1*
X32853D2*
X34558D1*
X36473D2*
X38448D1*
X8467Y21739D2*
X11429D1*
X16935D2*
X19897D1*
X25432D2*
X27407D1*
X29322D2*
X31028D1*
X32853D2*
X34558D1*
X36473D2*
X38448D1*
X8467Y21709D2*
X11429D1*
X16935D2*
X19897D1*
X25432D2*
X27407D1*
X29322D2*
X31028D1*
X32853D2*
X34558D1*
X36473D2*
X38448D1*
X8467Y21679D2*
X11429D1*
X16935D2*
X19897D1*
X25432D2*
X27407D1*
X29322D2*
X31028D1*
X32853D2*
X34558D1*
X36473D2*
X38448D1*
X8467Y21649D2*
X11429D1*
X16935D2*
X19897D1*
X25432D2*
X27407D1*
X29322D2*
X31028D1*
X32853D2*
X34558D1*
X36473D2*
X38448D1*
X8467Y21619D2*
X11429D1*
X16935D2*
X19897D1*
X25432D2*
X27407D1*
X29322D2*
X31028D1*
X32853D2*
X34558D1*
X36473D2*
X38448D1*
X8467Y21589D2*
X11639D1*
X16725D2*
X20106D1*
X25223D2*
X27407D1*
X29322D2*
X31028D1*
X32853D2*
X34558D1*
X36473D2*
X38448D1*
X8467Y21559D2*
X11639D1*
X16725D2*
X20106D1*
X25223D2*
X27407D1*
X29322D2*
X31028D1*
X32853D2*
X34558D1*
X36473D2*
X38448D1*
X8467Y21529D2*
X11639D1*
X16725D2*
X20106D1*
X25223D2*
X27407D1*
X29322D2*
X31028D1*
X32853D2*
X34558D1*
X36473D2*
X38448D1*
X8467Y21499D2*
X11639D1*
X16725D2*
X20106D1*
X25223D2*
X27407D1*
X29322D2*
X31028D1*
X32853D2*
X34558D1*
X36473D2*
X38448D1*
X8467Y21469D2*
X11968D1*
X16396D2*
X20465D1*
X24864D2*
X27407D1*
X29322D2*
X31028D1*
X32853D2*
X34558D1*
X36473D2*
X38448D1*
X8467Y21439D2*
X11968D1*
X16396D2*
X20465D1*
X24864D2*
X27407D1*
X29322D2*
X31028D1*
X32853D2*
X34558D1*
X36473D2*
X38448D1*
X8467Y21409D2*
X11968D1*
X16396D2*
X20465D1*
X24864D2*
X27407D1*
X29322D2*
X31028D1*
X32853D2*
X34558D1*
X36473D2*
X38448D1*
X8467Y21380D2*
X11968D1*
X16396D2*
X20465D1*
X24864D2*
X27407D1*
X29322D2*
X31028D1*
X32853D2*
X34558D1*
X36473D2*
X38448D1*
X8467Y21350D2*
X11968D1*
X16396D2*
X20465D1*
X24864D2*
X27407D1*
X29322D2*
X31028D1*
X32853D2*
X34558D1*
X36473D2*
X38448D1*
X8467Y21320D2*
X38448D1*
X8467Y21290D2*
X38448D1*
X8467Y21260D2*
X38448D1*
X8467Y21230D2*
X38448D1*
X8467Y21200D2*
X38448D1*
X8467Y21170D2*
X38448D1*
X8467Y21140D2*
X38448D1*
X8467Y21110D2*
X38448D1*
X8467Y21080D2*
X38448D1*
X8467Y21050D2*
X38448D1*
X8467Y21020D2*
X38448D1*
X8467Y20991D2*
X38448D1*
X8467Y20961D2*
X38448D1*
X8467Y20931D2*
X38448D1*
X8467Y20901D2*
X38448D1*
X8467Y20871D2*
X38448D1*
X8467Y20841D2*
X38448D1*
X8467Y20811D2*
X38448D1*
X8467Y20781D2*
X38448D1*
X8467Y20751D2*
X38448D1*
X8467Y20721D2*
X38448D1*
X8467Y20691D2*
X38448D1*
X8467Y20661D2*
X38448D1*
X8467Y20631D2*
X38448D1*
X8467Y20602D2*
X38448D1*
X8467Y20572D2*
X38448D1*
X8467Y20542D2*
X38448D1*
X8467Y20512D2*
X38448D1*
X8467Y20482D2*
X38448D1*
X8467Y20452D2*
X38448D1*
X8467Y20422D2*
X38448D1*
X8467Y20392D2*
X38448D1*
X8467Y20362D2*
X38448D1*
X8467Y20332D2*
X38448D1*
X8467Y20302D2*
X38448D1*
X8467Y20272D2*
X38448D1*
X8467Y20243D2*
X38448D1*
X8467Y20213D2*
X38448D1*
X8467Y20183D2*
X38448D1*
X8467Y20153D2*
X38448D1*
X8467Y20123D2*
X38448D1*
X8467Y20093D2*
X38448D1*
X8467Y20063D2*
X38448D1*
X8467Y20033D2*
X38448D1*
X8467Y20003D2*
X38448D1*
X8467Y19973D2*
X38448D1*
X8467Y19943D2*
X38448D1*
X8467Y29907D2*
Y29877D1*
Y29847D1*
Y29817D1*
Y29787D1*
Y29757D1*
Y29728D1*
Y29698D1*
Y29668D1*
Y29638D1*
Y29608D1*
Y29578D1*
Y29548D1*
Y29518D1*
Y29488D1*
Y29458D1*
Y29428D1*
Y29398D1*
Y29369D1*
Y29339D1*
Y29309D1*
Y29279D1*
Y29249D1*
Y29219D1*
Y29189D1*
Y29159D1*
Y29129D1*
Y29099D1*
Y29069D1*
Y29039D1*
Y29009D1*
Y28980D1*
Y28950D1*
Y28920D1*
Y28890D1*
Y28860D1*
Y28830D1*
Y28800D1*
Y28770D1*
Y28740D1*
Y28710D1*
Y28680D1*
Y28650D1*
Y28620D1*
Y28591D1*
Y28561D1*
Y28531D1*
Y28501D1*
Y28471D1*
Y28441D1*
Y28411D1*
Y28381D1*
Y28351D1*
Y28321D1*
Y28291D1*
Y28261D1*
Y28231D1*
Y28202D1*
Y28172D1*
Y28142D1*
Y28112D1*
Y28082D1*
Y28052D1*
Y28022D1*
Y27992D1*
Y27962D1*
Y27932D1*
Y27902D1*
Y27872D1*
Y27843D1*
Y27813D1*
Y27783D1*
Y27753D1*
Y27723D1*
Y27693D1*
Y27663D1*
Y27633D1*
Y27603D1*
Y27573D1*
Y27543D1*
Y27513D1*
Y27483D1*
Y27454D1*
Y27424D1*
Y27394D1*
Y27364D1*
Y27334D1*
Y27304D1*
Y27274D1*
Y27244D1*
Y27214D1*
Y27184D1*
Y27154D1*
Y27124D1*
Y27094D1*
Y27065D1*
Y27035D1*
Y27005D1*
Y26975D1*
Y26945D1*
Y26915D1*
Y26885D1*
Y26855D1*
Y26825D1*
Y26795D1*
Y26765D1*
Y26735D1*
Y26706D1*
Y26676D1*
Y26646D1*
Y26616D1*
Y26586D1*
Y26556D1*
Y26526D1*
Y26496D1*
Y26466D1*
Y26436D1*
Y26406D1*
Y26376D1*
Y26346D1*
Y26317D1*
Y26287D1*
Y26257D1*
Y26227D1*
Y26197D1*
Y26167D1*
Y26137D1*
Y26107D1*
Y26077D1*
Y26047D1*
Y26017D1*
Y25987D1*
Y25957D1*
Y25928D1*
Y25898D1*
Y25868D1*
Y25838D1*
Y25808D1*
Y25778D1*
Y25748D1*
Y25718D1*
Y25688D1*
Y25658D1*
Y25628D1*
Y25598D1*
Y25569D1*
Y25539D1*
Y25509D1*
Y25479D1*
Y25449D1*
Y25419D1*
Y25389D1*
Y25359D1*
Y25329D1*
Y25299D1*
Y25269D1*
Y25239D1*
Y25209D1*
Y25180D1*
Y25150D1*
Y25120D1*
Y25090D1*
Y25060D1*
Y25030D1*
Y25000D1*
Y24970D1*
Y24940D1*
Y24910D1*
Y24880D1*
Y24850D1*
Y24820D1*
Y24791D1*
Y24761D1*
Y24731D1*
Y24701D1*
Y24671D1*
Y24641D1*
Y24611D1*
Y24581D1*
Y24551D1*
Y24521D1*
Y24491D1*
Y24461D1*
Y24431D1*
Y24402D1*
Y24372D1*
Y24342D1*
Y24312D1*
Y24282D1*
Y24252D1*
Y24222D1*
Y24192D1*
Y24162D1*
Y24132D1*
Y24102D1*
Y24072D1*
Y24043D1*
Y24013D1*
Y23983D1*
Y23953D1*
Y23923D1*
Y23893D1*
Y23863D1*
Y23833D1*
Y23803D1*
Y23773D1*
Y23743D1*
Y23713D1*
Y23683D1*
Y23654D1*
Y23624D1*
Y23594D1*
Y23564D1*
Y23534D1*
Y23504D1*
Y23474D1*
Y23444D1*
Y23414D1*
Y23384D1*
Y23354D1*
Y23324D1*
Y23294D1*
Y23265D1*
Y23235D1*
Y23205D1*
Y23175D1*
Y23145D1*
Y23115D1*
Y23085D1*
Y23055D1*
Y23025D1*
Y22995D1*
Y22965D1*
Y22935D1*
Y22906D1*
Y22876D1*
Y22846D1*
Y22816D1*
Y22786D1*
Y22756D1*
Y22726D1*
Y22696D1*
Y22666D1*
Y22636D1*
Y22606D1*
Y22576D1*
Y22546D1*
Y22517D1*
Y22487D1*
Y22457D1*
Y22427D1*
Y22397D1*
Y22367D1*
Y22337D1*
Y22307D1*
Y22277D1*
Y22247D1*
Y22217D1*
Y22187D1*
Y22157D1*
Y22128D1*
Y22098D1*
Y22068D1*
Y22038D1*
Y22008D1*
Y21978D1*
Y21948D1*
Y21918D1*
Y21888D1*
Y21858D1*
Y21828D1*
Y21798D1*
Y21769D1*
Y21739D1*
Y21709D1*
Y21679D1*
Y21649D1*
Y21619D1*
Y21589D1*
Y21559D1*
Y21529D1*
Y21499D1*
Y21469D1*
Y21439D1*
Y21409D1*
Y21380D1*
Y21350D1*
Y21320D1*
Y21290D1*
Y21260D1*
Y21230D1*
Y21200D1*
Y21170D1*
Y21140D1*
Y21110D1*
Y21080D1*
Y21050D1*
Y21020D1*
Y20991D1*
Y20961D1*
Y20931D1*
Y20901D1*
Y20871D1*
Y20841D1*
Y20811D1*
Y20781D1*
Y20751D1*
Y20721D1*
Y20691D1*
Y20661D1*
Y20631D1*
Y20602D1*
Y20572D1*
Y20542D1*
Y20512D1*
Y20482D1*
Y20452D1*
Y20422D1*
Y20392D1*
Y20362D1*
Y20332D1*
Y20302D1*
Y20272D1*
Y20243D1*
Y20213D1*
Y20183D1*
Y20153D1*
Y20123D1*
Y20093D1*
Y20063D1*
Y20033D1*
Y20003D1*
Y19973D1*
Y19943D1*
X38448Y29907D2*
Y29877D1*
Y29847D1*
Y29817D1*
Y29787D1*
Y29757D1*
Y29728D1*
Y29698D1*
Y29668D1*
Y29638D1*
Y29608D1*
Y29578D1*
Y29548D1*
Y29518D1*
Y29488D1*
Y29458D1*
Y29428D1*
Y29398D1*
Y29369D1*
Y29339D1*
Y29309D1*
Y29279D1*
Y29249D1*
Y29219D1*
Y29189D1*
Y29159D1*
Y29129D1*
Y29099D1*
Y29069D1*
Y29039D1*
Y29009D1*
Y28980D1*
Y28950D1*
Y28920D1*
Y28890D1*
Y28860D1*
Y28830D1*
Y28800D1*
Y28770D1*
Y28740D1*
Y28710D1*
Y28680D1*
Y28650D1*
Y28620D1*
Y28591D1*
Y28561D1*
Y28531D1*
Y28501D1*
Y28471D1*
Y28441D1*
Y28411D1*
Y28381D1*
Y28351D1*
Y28321D1*
Y28291D1*
Y28261D1*
Y28231D1*
Y28202D1*
Y28172D1*
Y28142D1*
Y28112D1*
Y28082D1*
Y28052D1*
Y28022D1*
Y27992D1*
Y27962D1*
Y27932D1*
Y27902D1*
Y27872D1*
Y27843D1*
Y27813D1*
Y27783D1*
Y27753D1*
Y27723D1*
Y27693D1*
Y27663D1*
Y27633D1*
Y27603D1*
Y27573D1*
Y27543D1*
Y27513D1*
Y27483D1*
Y27454D1*
Y27424D1*
Y27394D1*
Y27364D1*
Y27334D1*
Y27304D1*
Y27274D1*
Y27244D1*
Y27214D1*
Y27184D1*
Y27154D1*
Y27124D1*
Y27094D1*
Y27065D1*
Y27035D1*
Y27005D1*
Y26975D1*
Y26945D1*
Y26915D1*
Y26885D1*
Y26855D1*
Y26825D1*
Y26795D1*
Y26765D1*
Y26735D1*
Y26706D1*
Y26676D1*
Y26646D1*
Y26616D1*
Y26586D1*
Y26556D1*
Y26526D1*
Y26496D1*
Y26466D1*
Y26436D1*
Y26406D1*
Y26376D1*
Y26346D1*
Y26317D1*
Y26287D1*
Y26257D1*
Y26227D1*
Y26197D1*
Y26167D1*
Y26137D1*
Y26107D1*
Y26077D1*
Y26047D1*
Y26017D1*
Y25987D1*
Y25957D1*
Y25928D1*
Y25898D1*
Y25868D1*
Y25838D1*
Y25808D1*
Y25778D1*
Y25748D1*
Y25718D1*
Y25688D1*
Y25658D1*
Y25628D1*
Y25598D1*
Y25569D1*
Y25539D1*
Y25509D1*
Y25479D1*
Y25449D1*
Y25419D1*
Y25389D1*
Y25359D1*
Y25329D1*
Y25299D1*
Y25269D1*
Y25239D1*
Y25209D1*
Y25180D1*
Y25150D1*
Y25120D1*
Y25090D1*
Y25060D1*
Y25030D1*
Y25000D1*
Y24970D1*
Y24940D1*
Y24910D1*
Y24880D1*
Y24850D1*
Y24820D1*
Y24791D1*
Y24761D1*
Y24731D1*
Y24701D1*
Y24671D1*
Y24641D1*
Y24611D1*
Y24581D1*
Y24551D1*
Y24521D1*
Y24491D1*
Y24461D1*
Y24431D1*
Y24402D1*
Y24372D1*
Y24342D1*
Y24312D1*
Y24282D1*
Y24252D1*
Y24222D1*
Y24192D1*
Y24162D1*
Y24132D1*
Y24102D1*
Y24072D1*
Y24043D1*
Y24013D1*
Y23983D1*
Y23953D1*
Y23923D1*
Y23893D1*
Y23863D1*
Y23833D1*
Y23803D1*
Y23773D1*
Y23743D1*
Y23713D1*
Y23683D1*
Y23654D1*
Y23624D1*
Y23594D1*
Y23564D1*
Y23534D1*
Y23504D1*
Y23474D1*
Y23444D1*
Y23414D1*
Y23384D1*
Y23354D1*
Y23324D1*
Y23294D1*
Y23265D1*
Y23235D1*
Y23205D1*
Y23175D1*
Y23145D1*
Y23115D1*
Y23085D1*
Y23055D1*
Y23025D1*
Y22995D1*
Y22965D1*
Y22935D1*
Y22906D1*
Y22876D1*
Y22846D1*
Y22816D1*
Y22786D1*
Y22756D1*
Y22726D1*
Y22696D1*
Y22666D1*
Y22636D1*
Y22606D1*
Y22576D1*
Y22546D1*
Y22517D1*
Y22487D1*
Y22457D1*
Y22427D1*
Y22397D1*
Y22367D1*
Y22337D1*
Y22307D1*
Y22277D1*
Y22247D1*
Y22217D1*
Y22187D1*
Y22157D1*
Y22128D1*
Y22098D1*
Y22068D1*
Y22038D1*
Y22008D1*
Y21978D1*
Y21948D1*
Y21918D1*
Y21888D1*
Y21858D1*
Y21828D1*
Y21798D1*
Y21769D1*
Y21739D1*
Y21709D1*
Y21679D1*
Y21649D1*
Y21619D1*
Y21589D1*
Y21559D1*
Y21529D1*
Y21499D1*
Y21469D1*
Y21439D1*
Y21409D1*
Y21380D1*
Y21350D1*
Y21320D1*
Y21290D1*
Y21260D1*
Y21230D1*
Y21200D1*
Y21170D1*
Y21140D1*
Y21110D1*
Y21080D1*
Y21050D1*
Y21020D1*
Y20991D1*
Y20961D1*
Y20931D1*
Y20901D1*
Y20871D1*
Y20841D1*
Y20811D1*
Y20781D1*
Y20751D1*
Y20721D1*
Y20691D1*
Y20661D1*
Y20631D1*
Y20602D1*
Y20572D1*
Y20542D1*
Y20512D1*
Y20482D1*
Y20452D1*
Y20422D1*
Y20392D1*
Y20362D1*
Y20332D1*
Y20302D1*
Y20272D1*
Y20243D1*
Y20213D1*
Y20183D1*
Y20153D1*
Y20123D1*
Y20093D1*
Y20063D1*
Y20033D1*
Y20003D1*
Y19973D1*
Y19943D1*
X11968Y28531D2*
Y28501D1*
Y28471D1*
Y28441D1*
Y28411D1*
Y28381D1*
Y28351D1*
X11639D1*
Y28321D1*
Y28291D1*
Y28261D1*
Y28231D1*
X11429D1*
Y28202D1*
Y28172D1*
Y28142D1*
Y28112D1*
Y28082D1*
X11220D1*
Y28052D1*
Y28022D1*
Y27992D1*
Y27962D1*
Y27932D1*
X11070D1*
Y27902D1*
Y27872D1*
Y27843D1*
Y27813D1*
Y27783D1*
X10950D1*
Y27753D1*
Y27723D1*
Y27693D1*
Y27663D1*
X10801D1*
Y27633D1*
Y27603D1*
Y27573D1*
Y27543D1*
Y27513D1*
X10741D1*
Y27483D1*
Y27454D1*
Y27424D1*
Y27394D1*
Y27364D1*
X10651D1*
Y27334D1*
Y27304D1*
Y27274D1*
Y27244D1*
X10591D1*
Y27214D1*
X10589Y27184D1*
X10584Y27154D1*
X10568Y27124D1*
X10552Y27094D1*
X10541Y27065D1*
X10536Y27035D1*
X10533Y27005D1*
X10532Y26975D1*
Y26945D1*
Y26915D1*
Y26885D1*
Y26855D1*
X10531Y26825D1*
X10442D1*
Y26795D1*
Y26765D1*
Y26735D1*
Y26706D1*
Y26676D1*
Y26646D1*
Y26616D1*
Y26586D1*
Y26556D1*
Y26526D1*
Y26496D1*
Y26466D1*
Y26436D1*
Y26406D1*
Y26376D1*
Y26346D1*
Y26317D1*
Y26287D1*
Y26257D1*
Y26227D1*
Y26197D1*
Y26167D1*
Y26137D1*
Y26107D1*
Y26077D1*
Y26047D1*
Y26017D1*
Y25987D1*
Y25957D1*
Y25928D1*
Y25898D1*
Y25868D1*
Y25838D1*
Y25808D1*
Y25778D1*
Y25748D1*
Y25718D1*
Y25688D1*
Y25658D1*
Y25628D1*
Y25598D1*
Y25569D1*
Y25539D1*
Y25509D1*
Y25479D1*
Y25449D1*
Y25419D1*
Y25389D1*
Y25359D1*
Y25329D1*
Y25299D1*
Y25269D1*
Y25239D1*
Y25209D1*
Y25180D1*
Y25150D1*
Y25120D1*
Y25090D1*
Y25060D1*
Y25030D1*
Y25000D1*
Y24970D1*
Y24940D1*
Y24910D1*
Y24880D1*
Y24850D1*
Y24820D1*
Y24791D1*
Y24761D1*
Y24731D1*
Y24701D1*
Y24671D1*
Y24641D1*
Y24611D1*
Y24581D1*
Y24551D1*
Y24521D1*
Y24491D1*
Y24461D1*
Y24431D1*
Y24402D1*
Y24372D1*
Y24342D1*
Y24312D1*
Y24282D1*
Y24252D1*
Y24222D1*
Y24192D1*
Y24162D1*
Y24132D1*
Y24102D1*
Y24072D1*
Y24043D1*
Y24013D1*
Y23983D1*
Y23953D1*
Y23923D1*
Y23893D1*
Y23863D1*
Y23833D1*
Y23803D1*
Y23773D1*
Y23743D1*
Y23713D1*
Y23683D1*
Y23654D1*
Y23624D1*
Y23594D1*
Y23564D1*
Y23534D1*
Y23504D1*
Y23474D1*
Y23444D1*
Y23414D1*
Y23384D1*
Y23354D1*
Y23324D1*
Y23294D1*
Y23265D1*
Y23235D1*
Y23205D1*
Y23175D1*
Y23145D1*
Y23115D1*
Y23085D1*
Y23055D1*
Y23025D1*
Y22995D1*
X10531D1*
Y22965D1*
Y22935D1*
Y22906D1*
Y22876D1*
X10532Y22846D1*
X10534Y22816D1*
X10539Y22786D1*
X10555Y22756D1*
X10571Y22726D1*
X10582Y22696D1*
X10589Y22666D1*
X10600Y22636D1*
X10615Y22606D1*
X10631Y22576D1*
X10641Y22546D1*
X10647Y22517D1*
X10650Y22487D1*
X10651Y22457D1*
X10741D1*
Y22427D1*
X10743Y22397D1*
X10748Y22367D1*
X10765Y22337D1*
X10780Y22307D1*
X10791Y22277D1*
X10797Y22247D1*
X10799Y22217D1*
X10800Y22187D1*
X10801Y22157D1*
X10950D1*
Y22128D1*
Y22098D1*
Y22068D1*
Y22038D1*
X11070D1*
Y22008D1*
Y21978D1*
Y21948D1*
Y21918D1*
Y21888D1*
X11220D1*
Y21858D1*
Y21828D1*
Y21798D1*
Y21769D1*
Y21739D1*
X11429D1*
Y21709D1*
Y21679D1*
Y21649D1*
Y21619D1*
Y21589D1*
X11639D1*
Y21559D1*
Y21529D1*
Y21499D1*
Y21469D1*
X11968D1*
Y21439D1*
Y21409D1*
Y21380D1*
Y21350D1*
Y21320D1*
X16396Y28531D2*
Y28501D1*
Y28471D1*
Y28441D1*
Y28411D1*
Y28381D1*
Y28351D1*
X16725D1*
Y28321D1*
Y28291D1*
Y28261D1*
Y28231D1*
X16935D1*
Y28202D1*
Y28172D1*
Y28142D1*
Y28112D1*
Y28082D1*
X17144D1*
Y28052D1*
Y28022D1*
Y27992D1*
Y27962D1*
Y27932D1*
X17294D1*
Y27902D1*
Y27872D1*
Y27843D1*
Y27813D1*
Y27783D1*
X17443D1*
Y27753D1*
Y27723D1*
Y27693D1*
Y27663D1*
X17563D1*
Y27633D1*
Y27603D1*
Y27573D1*
Y27543D1*
Y27513D1*
X17623D1*
Y27483D1*
Y27454D1*
Y27424D1*
Y27394D1*
Y27364D1*
X17713D1*
Y27334D1*
Y27304D1*
Y27274D1*
Y27244D1*
X17772D1*
Y27214D1*
Y27184D1*
Y27154D1*
Y27124D1*
Y27094D1*
X17832D1*
Y27065D1*
Y27035D1*
Y27005D1*
Y26975D1*
Y26945D1*
Y26915D1*
Y26885D1*
Y26855D1*
Y26825D1*
X17922D1*
Y26795D1*
Y26765D1*
Y26735D1*
Y26706D1*
Y26676D1*
Y26646D1*
Y26616D1*
Y26586D1*
Y26556D1*
Y26526D1*
Y26496D1*
Y26466D1*
Y26436D1*
Y26406D1*
Y26376D1*
Y26346D1*
Y26317D1*
Y26287D1*
Y26257D1*
Y26227D1*
Y26197D1*
Y26167D1*
Y26137D1*
Y26107D1*
Y26077D1*
Y26047D1*
Y26017D1*
Y25987D1*
Y25957D1*
Y25928D1*
Y25898D1*
Y25868D1*
Y25838D1*
Y25808D1*
Y25778D1*
Y25748D1*
Y25718D1*
Y25688D1*
Y25658D1*
Y25628D1*
Y25598D1*
Y25569D1*
Y25539D1*
Y25509D1*
Y25479D1*
Y25449D1*
Y25419D1*
Y25389D1*
Y25359D1*
Y25329D1*
Y25299D1*
Y25269D1*
Y25239D1*
Y25209D1*
Y25180D1*
Y25150D1*
Y25120D1*
Y25090D1*
Y25060D1*
Y25030D1*
Y25000D1*
Y24970D1*
Y24940D1*
Y24910D1*
Y24880D1*
Y24850D1*
Y24820D1*
Y24791D1*
Y24761D1*
Y24731D1*
Y24701D1*
Y24671D1*
Y24641D1*
Y24611D1*
Y24581D1*
Y24551D1*
Y24521D1*
Y24491D1*
Y24461D1*
Y24431D1*
Y24402D1*
Y24372D1*
Y24342D1*
Y24312D1*
Y24282D1*
Y24252D1*
Y24222D1*
Y24192D1*
Y24162D1*
Y24132D1*
Y24102D1*
Y24072D1*
Y24043D1*
Y24013D1*
Y23983D1*
Y23953D1*
Y23923D1*
Y23893D1*
Y23863D1*
Y23833D1*
Y23803D1*
Y23773D1*
Y23743D1*
Y23713D1*
Y23683D1*
Y23654D1*
Y23624D1*
Y23594D1*
Y23564D1*
Y23534D1*
Y23504D1*
Y23474D1*
Y23444D1*
Y23414D1*
Y23384D1*
Y23354D1*
Y23324D1*
Y23294D1*
Y23265D1*
Y23235D1*
Y23205D1*
Y23175D1*
Y23145D1*
Y23115D1*
Y23085D1*
Y23055D1*
Y23025D1*
Y22995D1*
X17832D1*
Y22965D1*
Y22935D1*
Y22906D1*
Y22876D1*
Y22846D1*
X17830Y22816D1*
X17825Y22786D1*
X17809Y22756D1*
X17793Y22726D1*
X17782Y22696D1*
X17774Y22666D1*
X17764Y22636D1*
X17749Y22606D1*
X17733Y22576D1*
X17722Y22546D1*
X17717Y22517D1*
X17714Y22487D1*
X17713Y22457D1*
X17623D1*
Y22427D1*
X17620Y22397D1*
X17616Y22367D1*
X17599Y22337D1*
X17583Y22307D1*
X17573Y22277D1*
X17567Y22247D1*
X17565Y22217D1*
X17564Y22187D1*
X17563Y22157D1*
X17443D1*
Y22128D1*
Y22098D1*
Y22068D1*
Y22038D1*
X17294D1*
Y22008D1*
Y21978D1*
Y21948D1*
Y21918D1*
Y21888D1*
X17144D1*
Y21858D1*
Y21828D1*
Y21798D1*
Y21769D1*
Y21739D1*
X16935D1*
Y21709D1*
Y21679D1*
Y21649D1*
Y21619D1*
Y21589D1*
X16725D1*
Y21559D1*
Y21529D1*
Y21499D1*
Y21469D1*
X16396D1*
Y21439D1*
Y21409D1*
Y21380D1*
Y21350D1*
Y21320D1*
X20465Y28531D2*
Y28501D1*
Y28471D1*
Y28441D1*
Y28411D1*
Y28381D1*
X24864Y28531D2*
Y28501D1*
Y28471D1*
Y28441D1*
Y28411D1*
Y28381D1*
X27407Y28531D2*
Y28501D1*
Y28471D1*
Y28441D1*
Y28411D1*
Y28381D1*
Y28351D1*
Y28321D1*
Y28291D1*
Y28261D1*
Y28231D1*
Y28202D1*
Y28172D1*
Y28142D1*
Y28112D1*
Y28082D1*
Y28052D1*
Y28022D1*
Y27992D1*
Y27962D1*
Y27932D1*
Y27902D1*
Y27872D1*
Y27843D1*
Y27813D1*
Y27783D1*
Y27753D1*
Y27723D1*
Y27693D1*
Y27663D1*
Y27633D1*
Y27603D1*
Y27573D1*
Y27543D1*
Y27513D1*
Y27483D1*
Y27454D1*
Y27424D1*
Y27394D1*
Y27364D1*
Y27334D1*
Y27304D1*
Y27274D1*
Y27244D1*
Y27214D1*
Y27184D1*
Y27154D1*
Y27124D1*
Y27094D1*
Y27065D1*
Y27035D1*
Y27005D1*
Y26975D1*
Y26945D1*
Y26915D1*
Y26885D1*
Y26855D1*
Y26825D1*
Y26795D1*
Y26765D1*
Y26735D1*
Y26706D1*
Y26676D1*
Y26646D1*
Y26616D1*
Y26586D1*
Y26556D1*
Y26526D1*
Y26496D1*
Y26466D1*
Y26436D1*
Y26406D1*
Y26376D1*
Y26346D1*
Y26317D1*
Y26287D1*
Y26257D1*
Y26227D1*
Y26197D1*
Y26167D1*
Y26137D1*
Y26107D1*
Y26077D1*
Y26047D1*
Y26017D1*
Y25987D1*
Y25957D1*
Y25928D1*
Y25898D1*
Y25868D1*
Y25838D1*
Y25808D1*
Y25778D1*
Y25748D1*
Y25718D1*
Y25688D1*
Y25658D1*
Y25628D1*
Y25598D1*
Y25569D1*
Y25539D1*
Y25509D1*
Y25479D1*
Y25449D1*
Y25419D1*
Y25389D1*
Y25359D1*
Y25329D1*
Y25299D1*
Y25269D1*
Y25239D1*
Y25209D1*
Y25180D1*
Y25150D1*
Y25120D1*
Y25090D1*
Y25060D1*
Y25030D1*
Y25000D1*
Y24970D1*
Y24940D1*
Y24910D1*
Y24880D1*
Y24850D1*
Y24820D1*
Y24791D1*
Y24761D1*
Y24731D1*
Y24701D1*
Y24671D1*
Y24641D1*
Y24611D1*
Y24581D1*
Y24551D1*
Y24521D1*
Y24491D1*
Y24461D1*
Y24431D1*
Y24402D1*
Y24372D1*
Y24342D1*
Y24312D1*
Y24282D1*
Y24252D1*
Y24222D1*
Y24192D1*
Y24162D1*
Y24132D1*
Y24102D1*
Y24072D1*
Y24043D1*
Y24013D1*
Y23983D1*
Y23953D1*
Y23923D1*
Y23893D1*
Y23863D1*
Y23833D1*
Y23803D1*
Y23773D1*
Y23743D1*
Y23713D1*
Y23683D1*
Y23654D1*
Y23624D1*
Y23594D1*
Y23564D1*
Y23534D1*
Y23504D1*
Y23474D1*
Y23444D1*
Y23414D1*
Y23384D1*
Y23354D1*
Y23324D1*
Y23294D1*
Y23265D1*
Y23235D1*
Y23205D1*
Y23175D1*
Y23145D1*
Y23115D1*
Y23085D1*
Y23055D1*
Y23025D1*
Y22995D1*
Y22965D1*
Y22935D1*
Y22906D1*
Y22876D1*
Y22846D1*
Y22816D1*
Y22786D1*
Y22756D1*
Y22726D1*
Y22696D1*
Y22666D1*
Y22636D1*
Y22606D1*
Y22576D1*
Y22546D1*
Y22517D1*
Y22487D1*
Y22457D1*
Y22427D1*
Y22397D1*
Y22367D1*
Y22337D1*
Y22307D1*
Y22277D1*
Y22247D1*
Y22217D1*
Y22187D1*
Y22157D1*
Y22128D1*
Y22098D1*
Y22068D1*
Y22038D1*
Y22008D1*
Y21978D1*
Y21948D1*
Y21918D1*
Y21888D1*
Y21858D1*
Y21828D1*
Y21798D1*
Y21769D1*
Y21739D1*
Y21709D1*
Y21679D1*
Y21649D1*
Y21619D1*
Y21589D1*
Y21559D1*
Y21529D1*
Y21499D1*
Y21469D1*
Y21439D1*
Y21409D1*
Y21380D1*
Y21350D1*
Y21320D1*
X29322Y28531D2*
Y28501D1*
Y28471D1*
Y28441D1*
Y28411D1*
Y28381D1*
Y28351D1*
Y28321D1*
Y28291D1*
Y28261D1*
Y28231D1*
Y28202D1*
Y28172D1*
Y28142D1*
Y28112D1*
X30040Y28531D2*
Y28501D1*
Y28471D1*
Y28441D1*
Y28411D1*
Y28381D1*
X31865Y28531D2*
Y28501D1*
Y28471D1*
Y28441D1*
Y28411D1*
Y28381D1*
X33182Y28531D2*
Y28501D1*
Y28471D1*
Y28441D1*
Y28411D1*
Y28381D1*
X34947Y28531D2*
Y28501D1*
Y28471D1*
Y28441D1*
Y28411D1*
Y28381D1*
Y28351D1*
X35276D1*
Y28321D1*
Y28291D1*
Y28261D1*
Y28231D1*
X35486D1*
Y28202D1*
Y28172D1*
Y28142D1*
Y28112D1*
Y28082D1*
X35695D1*
Y28052D1*
Y28022D1*
Y27992D1*
Y27962D1*
Y27932D1*
X35845D1*
Y27902D1*
Y27872D1*
Y27843D1*
Y27813D1*
Y27783D1*
X35965D1*
Y27753D1*
Y27723D1*
Y27693D1*
Y27663D1*
X36114D1*
Y27633D1*
X36117Y27603D1*
X36121Y27573D1*
X36138Y27543D1*
X36154Y27513D1*
X36164Y27483D1*
X36170Y27454D1*
X36172Y27424D1*
X36173Y27394D1*
X36174Y27364D1*
X36264D1*
X36266Y27334D1*
X36271Y27304D1*
X36287Y27274D1*
X36303Y27244D1*
X36314Y27214D1*
X36319Y27184D1*
X36322Y27154D1*
X36323Y27124D1*
X36324Y27094D1*
X36383D1*
Y27065D1*
Y27035D1*
Y27005D1*
Y26975D1*
Y26945D1*
Y26915D1*
Y26885D1*
Y26855D1*
Y26825D1*
X36473D1*
Y26795D1*
Y26765D1*
Y26735D1*
Y26706D1*
Y26676D1*
Y26646D1*
Y26616D1*
Y26586D1*
Y26556D1*
Y26526D1*
Y26496D1*
Y26466D1*
Y26436D1*
Y26406D1*
Y26376D1*
Y26346D1*
Y26317D1*
Y26287D1*
Y26257D1*
Y26227D1*
Y26197D1*
Y26167D1*
Y26137D1*
Y26107D1*
Y26077D1*
Y26047D1*
Y26017D1*
Y25987D1*
Y25957D1*
Y25928D1*
Y25898D1*
Y25868D1*
Y25838D1*
Y25808D1*
Y25778D1*
Y25748D1*
Y25718D1*
Y25688D1*
Y25658D1*
Y25628D1*
Y25598D1*
Y25569D1*
Y25539D1*
Y25509D1*
Y25479D1*
Y25449D1*
Y25419D1*
Y25389D1*
Y25359D1*
Y25329D1*
Y25299D1*
Y25269D1*
Y25239D1*
Y25209D1*
Y25180D1*
Y25150D1*
Y25120D1*
Y25090D1*
Y25060D1*
Y25030D1*
Y25000D1*
Y24970D1*
Y24940D1*
Y24910D1*
Y24880D1*
Y24850D1*
Y24820D1*
Y24791D1*
Y24761D1*
Y24731D1*
Y24701D1*
Y24671D1*
Y24641D1*
Y24611D1*
Y24581D1*
Y24551D1*
Y24521D1*
Y24491D1*
Y24461D1*
Y24431D1*
Y24402D1*
Y24372D1*
Y24342D1*
Y24312D1*
Y24282D1*
Y24252D1*
Y24222D1*
Y24192D1*
Y24162D1*
Y24132D1*
Y24102D1*
Y24072D1*
Y24043D1*
Y24013D1*
Y23983D1*
Y23953D1*
Y23923D1*
Y23893D1*
Y23863D1*
Y23833D1*
Y23803D1*
Y23773D1*
Y23743D1*
Y23713D1*
Y23683D1*
Y23654D1*
Y23624D1*
Y23594D1*
Y23564D1*
Y23534D1*
Y23504D1*
Y23474D1*
Y23444D1*
Y23414D1*
Y23384D1*
Y23354D1*
Y23324D1*
Y23294D1*
Y23265D1*
Y23235D1*
Y23205D1*
Y23175D1*
Y23145D1*
Y23115D1*
Y23085D1*
Y23055D1*
Y23025D1*
Y22995D1*
Y22965D1*
Y22935D1*
Y22906D1*
Y22876D1*
Y22846D1*
Y22816D1*
Y22786D1*
Y22756D1*
Y22726D1*
Y22696D1*
Y22666D1*
Y22636D1*
Y22606D1*
Y22576D1*
Y22546D1*
Y22517D1*
Y22487D1*
Y22457D1*
Y22427D1*
Y22397D1*
Y22367D1*
Y22337D1*
Y22307D1*
Y22277D1*
Y22247D1*
Y22217D1*
Y22187D1*
Y22157D1*
Y22128D1*
Y22098D1*
Y22068D1*
Y22038D1*
Y22008D1*
Y21978D1*
Y21948D1*
Y21918D1*
Y21888D1*
Y21858D1*
Y21828D1*
Y21798D1*
Y21769D1*
Y21739D1*
Y21709D1*
Y21679D1*
Y21649D1*
Y21619D1*
Y21589D1*
Y21559D1*
Y21529D1*
Y21499D1*
Y21469D1*
Y21439D1*
Y21409D1*
Y21380D1*
Y21350D1*
Y21320D1*
X20106Y28381D2*
Y28351D1*
Y28321D1*
Y28291D1*
Y28261D1*
Y28231D1*
X19897D1*
Y28202D1*
Y28172D1*
Y28142D1*
Y28112D1*
Y28082D1*
X19687D1*
Y28052D1*
Y28022D1*
Y27992D1*
Y27962D1*
Y27932D1*
X19538D1*
Y27902D1*
Y27872D1*
Y27843D1*
Y27813D1*
Y27783D1*
X19418D1*
Y27753D1*
Y27723D1*
Y27693D1*
Y27663D1*
X19269D1*
X19268Y27633D1*
X19266Y27603D1*
X19261Y27573D1*
X19245Y27543D1*
X19229Y27513D1*
X19218Y27483D1*
X19213Y27454D1*
X19210Y27424D1*
X19209Y27394D1*
Y27364D1*
X19149D1*
Y27334D1*
Y27304D1*
Y27274D1*
Y27244D1*
X19059D1*
Y27214D1*
Y27184D1*
Y27154D1*
Y27124D1*
Y27094D1*
X18999D1*
Y27065D1*
Y27035D1*
Y27005D1*
Y26975D1*
Y26945D1*
X18997Y26915D1*
X18992Y26885D1*
X18976Y26855D1*
X18960Y26825D1*
X18949Y26795D1*
X18944Y26765D1*
X18941Y26735D1*
X18940Y26706D1*
Y26676D1*
X18939Y26646D1*
Y26616D1*
Y26586D1*
Y26556D1*
Y26526D1*
Y26496D1*
Y26466D1*
Y26436D1*
Y26406D1*
Y26376D1*
Y26346D1*
Y26317D1*
Y26287D1*
Y26257D1*
Y26227D1*
Y26197D1*
Y26167D1*
Y26137D1*
Y26107D1*
Y26077D1*
Y26047D1*
Y26017D1*
Y25987D1*
Y25957D1*
Y25928D1*
Y25898D1*
Y25868D1*
Y25838D1*
Y25808D1*
Y25778D1*
Y25748D1*
Y25718D1*
Y25688D1*
Y25658D1*
Y25628D1*
Y25598D1*
Y25569D1*
Y25539D1*
Y25509D1*
Y25479D1*
Y25449D1*
Y25419D1*
Y25389D1*
Y25359D1*
Y25329D1*
Y25299D1*
Y25269D1*
Y25239D1*
Y25209D1*
Y25180D1*
Y25150D1*
Y25120D1*
Y25090D1*
Y25060D1*
Y25030D1*
Y25000D1*
Y24970D1*
Y24940D1*
Y24910D1*
Y24880D1*
Y24850D1*
Y24820D1*
Y24791D1*
Y24761D1*
Y24731D1*
Y24701D1*
Y24671D1*
Y24641D1*
Y24611D1*
Y24581D1*
Y24551D1*
Y24521D1*
Y24491D1*
Y24461D1*
Y24431D1*
Y24402D1*
Y24372D1*
Y24342D1*
Y24312D1*
Y24282D1*
Y24252D1*
Y24222D1*
Y24192D1*
Y24162D1*
Y24132D1*
Y24102D1*
Y24072D1*
Y24043D1*
Y24013D1*
Y23983D1*
Y23953D1*
Y23923D1*
Y23893D1*
Y23863D1*
Y23833D1*
Y23803D1*
Y23773D1*
Y23743D1*
Y23713D1*
Y23683D1*
Y23654D1*
Y23624D1*
Y23594D1*
Y23564D1*
Y23534D1*
Y23504D1*
Y23474D1*
Y23444D1*
Y23414D1*
Y23384D1*
Y23354D1*
Y23324D1*
Y23294D1*
Y23265D1*
Y23235D1*
Y23205D1*
Y23175D1*
Y23145D1*
X18940Y23115D1*
X18942Y23085D1*
X18947Y23055D1*
X18963Y23025D1*
X18979Y22995D1*
X18989Y22965D1*
X18995Y22935D1*
X18998Y22906D1*
X18999Y22876D1*
Y22846D1*
X19001Y22816D1*
X19006Y22786D1*
X19023Y22756D1*
X19039Y22726D1*
X19049Y22696D1*
X19055Y22666D1*
X19057Y22636D1*
X19058Y22606D1*
X19059Y22576D1*
X19149D1*
Y22546D1*
Y22517D1*
Y22487D1*
Y22457D1*
X19209D1*
Y22427D1*
X19211Y22397D1*
X19216Y22367D1*
X19232Y22337D1*
X19248Y22307D1*
X19259Y22277D1*
X19264Y22247D1*
X19267Y22217D1*
X19268Y22187D1*
X19269Y22157D1*
X19418D1*
Y22128D1*
Y22098D1*
Y22068D1*
Y22038D1*
X19538D1*
Y22008D1*
Y21978D1*
Y21948D1*
Y21918D1*
Y21888D1*
X19687D1*
Y21858D1*
Y21828D1*
Y21798D1*
Y21769D1*
Y21739D1*
X19897D1*
Y21709D1*
Y21679D1*
Y21649D1*
Y21619D1*
Y21589D1*
X20106D1*
Y21559D1*
Y21529D1*
Y21499D1*
Y21469D1*
X25223Y28381D2*
Y28351D1*
Y28321D1*
Y28291D1*
Y28261D1*
Y28231D1*
X25432D1*
Y28202D1*
Y28172D1*
Y28142D1*
Y28112D1*
Y28082D1*
X25612D1*
Y28052D1*
Y28022D1*
Y27992D1*
Y27962D1*
Y27932D1*
X25761D1*
Y27902D1*
Y27872D1*
Y27843D1*
Y27813D1*
Y27783D1*
X25911D1*
Y27753D1*
Y27723D1*
Y27693D1*
Y27663D1*
X26031D1*
Y27633D1*
Y27603D1*
Y27573D1*
Y27543D1*
Y27513D1*
X26120D1*
X26121Y27483D1*
X26123Y27454D1*
X26128Y27424D1*
X26144Y27394D1*
X26160Y27364D1*
X26173Y27334D1*
X26186Y27304D1*
X26203Y27274D1*
X26219Y27244D1*
X26230Y27214D1*
X26236Y27184D1*
X26238Y27154D1*
X26240Y27124D1*
Y27094D1*
X26330D1*
Y27065D1*
Y27035D1*
Y27005D1*
Y26975D1*
Y26945D1*
X26332Y26915D1*
X26337Y26885D1*
X26354Y26855D1*
X26369Y26825D1*
X26380Y26795D1*
X26386Y26765D1*
X26388Y26735D1*
X26389Y26706D1*
X26390Y26676D1*
Y26646D1*
Y26616D1*
Y26586D1*
Y26556D1*
Y26526D1*
Y26496D1*
Y26466D1*
Y26436D1*
Y26406D1*
Y26376D1*
Y26346D1*
Y26317D1*
Y26287D1*
Y26257D1*
Y26227D1*
Y26197D1*
Y26167D1*
Y26137D1*
Y26107D1*
Y26077D1*
Y26047D1*
Y26017D1*
Y25987D1*
Y25957D1*
Y25928D1*
Y25898D1*
Y25868D1*
Y25838D1*
X29681Y28381D2*
Y28351D1*
Y28321D1*
Y28291D1*
Y28261D1*
Y28231D1*
X29472D1*
Y28202D1*
Y28172D1*
Y28142D1*
Y28112D1*
X32224Y28381D2*
Y28351D1*
Y28321D1*
Y28291D1*
Y28261D1*
Y28231D1*
X32434D1*
Y28202D1*
Y28172D1*
Y28142D1*
Y28112D1*
X32823Y28381D2*
Y28351D1*
Y28321D1*
Y28291D1*
Y28261D1*
Y28231D1*
X32613D1*
Y28202D1*
Y28172D1*
Y28142D1*
Y28112D1*
X12716Y26676D2*
Y26646D1*
Y26616D1*
Y26586D1*
Y26556D1*
Y26526D1*
X12506D1*
Y26496D1*
Y26466D1*
Y26436D1*
Y26406D1*
Y26376D1*
X12357D1*
Y26346D1*
Y26317D1*
Y26287D1*
Y26257D1*
Y26227D1*
Y26197D1*
Y26167D1*
Y26137D1*
Y26107D1*
Y26077D1*
Y26047D1*
Y26017D1*
Y25987D1*
Y25957D1*
Y25928D1*
Y25898D1*
Y25868D1*
Y25838D1*
Y25808D1*
Y25778D1*
Y25748D1*
Y25718D1*
Y25688D1*
Y25658D1*
Y25628D1*
Y25598D1*
Y25569D1*
Y25539D1*
Y25509D1*
Y25479D1*
Y25449D1*
Y25419D1*
Y25389D1*
Y25359D1*
Y25329D1*
Y25299D1*
Y25269D1*
Y25239D1*
Y25209D1*
Y25180D1*
Y25150D1*
Y25120D1*
Y25090D1*
Y25060D1*
Y25030D1*
Y25000D1*
Y24970D1*
Y24940D1*
Y24910D1*
Y24880D1*
Y24850D1*
Y24820D1*
Y24791D1*
Y24761D1*
Y24731D1*
Y24701D1*
Y24671D1*
Y24641D1*
Y24611D1*
Y24581D1*
Y24551D1*
Y24521D1*
Y24491D1*
Y24461D1*
Y24431D1*
Y24402D1*
Y24372D1*
Y24342D1*
Y24312D1*
Y24282D1*
Y24252D1*
Y24222D1*
Y24192D1*
Y24162D1*
Y24132D1*
Y24102D1*
Y24072D1*
Y24043D1*
Y24013D1*
Y23983D1*
Y23953D1*
Y23923D1*
Y23893D1*
Y23863D1*
Y23833D1*
Y23803D1*
Y23773D1*
Y23743D1*
Y23713D1*
Y23683D1*
Y23654D1*
Y23624D1*
Y23594D1*
Y23564D1*
Y23534D1*
Y23504D1*
Y23474D1*
Y23444D1*
X12506D1*
Y23414D1*
Y23384D1*
Y23354D1*
Y23324D1*
Y23294D1*
X12716D1*
Y23265D1*
Y23235D1*
Y23205D1*
Y23175D1*
X15648Y26676D2*
Y26646D1*
Y26616D1*
Y26586D1*
Y26556D1*
Y26526D1*
X15857D1*
Y26496D1*
Y26466D1*
Y26436D1*
Y26406D1*
Y26376D1*
X16007D1*
Y26346D1*
Y26317D1*
Y26287D1*
Y26257D1*
Y26227D1*
Y26197D1*
Y26167D1*
Y26137D1*
Y26107D1*
Y26077D1*
Y26047D1*
Y26017D1*
Y25987D1*
Y25957D1*
Y25928D1*
Y25898D1*
Y25868D1*
Y25838D1*
Y25808D1*
Y25778D1*
Y25748D1*
Y25718D1*
Y25688D1*
Y25658D1*
Y25628D1*
Y25598D1*
Y25569D1*
Y25539D1*
Y25509D1*
Y25479D1*
Y25449D1*
Y25419D1*
Y25389D1*
Y25359D1*
Y25329D1*
Y25299D1*
Y25269D1*
Y25239D1*
Y25209D1*
Y25180D1*
Y25150D1*
Y25120D1*
Y25090D1*
Y25060D1*
Y25030D1*
Y25000D1*
Y24970D1*
Y24940D1*
Y24910D1*
Y24880D1*
Y24850D1*
Y24820D1*
Y24791D1*
Y24761D1*
Y24731D1*
Y24701D1*
Y24671D1*
Y24641D1*
Y24611D1*
Y24581D1*
Y24551D1*
Y24521D1*
Y24491D1*
Y24461D1*
Y24431D1*
Y24402D1*
Y24372D1*
Y24342D1*
Y24312D1*
Y24282D1*
Y24252D1*
Y24222D1*
Y24192D1*
Y24162D1*
Y24132D1*
Y24102D1*
Y24072D1*
Y24043D1*
Y24013D1*
Y23983D1*
Y23953D1*
Y23923D1*
Y23893D1*
Y23863D1*
Y23833D1*
Y23803D1*
Y23773D1*
Y23743D1*
Y23713D1*
Y23683D1*
Y23654D1*
Y23624D1*
Y23594D1*
Y23564D1*
Y23534D1*
Y23504D1*
Y23474D1*
Y23444D1*
X15857D1*
Y23414D1*
Y23384D1*
Y23354D1*
Y23324D1*
Y23294D1*
X15648D1*
Y23265D1*
Y23235D1*
Y23205D1*
Y23175D1*
X21183Y26676D2*
Y26646D1*
Y26616D1*
Y26586D1*
Y26556D1*
Y26526D1*
X20974D1*
Y26496D1*
Y26466D1*
Y26436D1*
Y26406D1*
Y26376D1*
X20824D1*
Y26346D1*
Y26317D1*
Y26287D1*
Y26257D1*
Y26227D1*
Y26197D1*
Y26167D1*
Y26137D1*
Y26107D1*
Y26077D1*
Y26047D1*
Y26017D1*
Y25987D1*
Y25957D1*
Y25928D1*
Y25898D1*
Y25868D1*
Y25838D1*
Y25808D1*
Y25778D1*
Y25748D1*
Y25718D1*
Y25688D1*
Y25658D1*
Y25628D1*
Y25598D1*
Y25569D1*
Y25539D1*
Y25509D1*
Y25479D1*
Y25449D1*
Y25419D1*
Y25389D1*
Y25359D1*
Y25329D1*
Y25299D1*
Y25269D1*
Y25239D1*
Y25209D1*
Y25180D1*
Y25150D1*
Y25120D1*
Y25090D1*
Y25060D1*
Y25030D1*
Y25000D1*
Y24970D1*
Y24940D1*
Y24910D1*
Y24880D1*
Y24850D1*
Y24820D1*
Y24791D1*
Y24761D1*
Y24731D1*
Y24701D1*
Y24671D1*
Y24641D1*
Y24611D1*
Y24581D1*
Y24551D1*
Y24521D1*
Y24491D1*
Y24461D1*
Y24431D1*
Y24402D1*
Y24372D1*
Y24342D1*
Y24312D1*
Y24282D1*
Y24252D1*
Y24222D1*
Y24192D1*
Y24162D1*
Y24132D1*
Y24102D1*
Y24072D1*
Y24043D1*
Y24013D1*
Y23983D1*
Y23953D1*
Y23923D1*
Y23893D1*
Y23863D1*
Y23833D1*
Y23803D1*
Y23773D1*
Y23743D1*
Y23713D1*
Y23683D1*
Y23654D1*
Y23624D1*
Y23594D1*
Y23564D1*
Y23534D1*
Y23504D1*
Y23474D1*
Y23444D1*
X20974D1*
Y23414D1*
Y23384D1*
Y23354D1*
Y23324D1*
Y23294D1*
X21183D1*
Y23265D1*
Y23235D1*
Y23205D1*
Y23175D1*
X24146Y26676D2*
Y26646D1*
Y26616D1*
Y26586D1*
Y26556D1*
Y26526D1*
X24355D1*
Y26496D1*
Y26466D1*
Y26436D1*
Y26406D1*
Y26376D1*
X24475D1*
Y26346D1*
Y26317D1*
Y26287D1*
Y26257D1*
Y26227D1*
Y26197D1*
Y26167D1*
Y26137D1*
Y26107D1*
Y26077D1*
Y26047D1*
Y26017D1*
Y25987D1*
Y25957D1*
Y25928D1*
Y25898D1*
Y25868D1*
Y25838D1*
X29651Y26676D2*
Y26646D1*
Y26616D1*
Y26586D1*
Y26556D1*
Y26526D1*
X29442D1*
Y26496D1*
Y26466D1*
Y26436D1*
Y26406D1*
Y26376D1*
X29322D1*
Y26346D1*
Y26317D1*
Y26287D1*
Y26257D1*
Y26227D1*
Y26197D1*
Y26167D1*
Y26137D1*
Y26107D1*
Y26077D1*
Y26047D1*
Y26017D1*
Y25987D1*
Y25957D1*
Y25928D1*
Y25898D1*
Y25868D1*
Y25838D1*
Y25808D1*
Y25778D1*
Y25748D1*
Y25718D1*
Y25688D1*
Y25658D1*
Y25628D1*
Y25598D1*
Y25569D1*
Y25539D1*
Y25509D1*
Y25479D1*
Y25449D1*
Y25419D1*
Y25389D1*
Y25359D1*
Y25329D1*
Y25299D1*
Y25269D1*
Y25239D1*
Y25209D1*
Y25180D1*
Y25150D1*
Y25120D1*
Y25090D1*
Y25060D1*
Y25030D1*
Y25000D1*
Y24970D1*
Y24940D1*
Y24910D1*
Y24880D1*
Y24850D1*
Y24820D1*
Y24791D1*
Y24761D1*
Y24731D1*
Y24701D1*
Y24671D1*
Y24641D1*
Y24611D1*
Y24581D1*
Y24551D1*
Y24521D1*
Y24491D1*
Y24461D1*
Y24431D1*
Y24402D1*
Y24372D1*
Y24342D1*
Y24312D1*
Y24282D1*
Y24252D1*
Y24222D1*
Y24192D1*
Y24162D1*
Y24132D1*
Y24102D1*
Y24072D1*
Y24043D1*
Y24013D1*
Y23983D1*
Y23953D1*
Y23923D1*
Y23893D1*
Y23863D1*
Y23833D1*
Y23803D1*
Y23773D1*
Y23743D1*
Y23713D1*
Y23683D1*
Y23654D1*
Y23624D1*
Y23594D1*
Y23564D1*
Y23534D1*
Y23504D1*
Y23474D1*
Y23444D1*
Y23414D1*
Y23384D1*
Y23354D1*
Y23324D1*
Y23294D1*
Y23265D1*
Y23235D1*
Y23205D1*
Y23175D1*
Y23145D1*
Y23115D1*
Y23085D1*
Y23055D1*
Y23025D1*
Y22995D1*
Y22965D1*
Y22935D1*
Y22906D1*
Y22876D1*
Y22846D1*
Y22816D1*
Y22786D1*
Y22756D1*
Y22726D1*
Y22696D1*
Y22666D1*
Y22636D1*
Y22606D1*
Y22576D1*
Y22546D1*
Y22517D1*
Y22487D1*
Y22457D1*
Y22427D1*
Y22397D1*
Y22367D1*
Y22337D1*
Y22307D1*
Y22277D1*
Y22247D1*
Y22217D1*
Y22187D1*
Y22157D1*
Y22128D1*
Y22098D1*
Y22068D1*
Y22038D1*
Y22008D1*
Y21978D1*
Y21948D1*
Y21918D1*
Y21888D1*
Y21858D1*
Y21828D1*
Y21798D1*
Y21769D1*
Y21739D1*
Y21709D1*
Y21679D1*
Y21649D1*
Y21619D1*
Y21589D1*
Y21559D1*
Y21529D1*
Y21499D1*
Y21469D1*
Y21439D1*
Y21409D1*
Y21380D1*
Y21350D1*
Y21320D1*
X30669Y26676D2*
Y26646D1*
Y26616D1*
Y26586D1*
Y26556D1*
Y26526D1*
X30878D1*
Y26496D1*
Y26466D1*
Y26436D1*
Y26406D1*
Y26376D1*
X31028D1*
Y26346D1*
Y26317D1*
Y26287D1*
Y26257D1*
Y26227D1*
Y26197D1*
Y26167D1*
Y26137D1*
Y26107D1*
Y26077D1*
Y26047D1*
Y26017D1*
Y25987D1*
Y25957D1*
Y25928D1*
Y25898D1*
Y25868D1*
Y25838D1*
Y25808D1*
Y25778D1*
Y25748D1*
Y25718D1*
Y25688D1*
Y25658D1*
Y25628D1*
Y25598D1*
Y25569D1*
Y25539D1*
Y25509D1*
Y25479D1*
Y25449D1*
Y25419D1*
Y25389D1*
Y25359D1*
Y25329D1*
Y25299D1*
Y25269D1*
Y25239D1*
Y25209D1*
Y25180D1*
Y25150D1*
Y25120D1*
Y25090D1*
Y25060D1*
Y25030D1*
Y25000D1*
Y24970D1*
Y24940D1*
Y24910D1*
Y24880D1*
Y24850D1*
Y24820D1*
Y24791D1*
Y24761D1*
Y24731D1*
Y24701D1*
Y24671D1*
Y24641D1*
Y24611D1*
Y24581D1*
Y24551D1*
Y24521D1*
Y24491D1*
Y24461D1*
Y24431D1*
Y24402D1*
Y24372D1*
Y24342D1*
Y24312D1*
Y24282D1*
Y24252D1*
Y24222D1*
Y24192D1*
Y24162D1*
Y24132D1*
Y24102D1*
Y24072D1*
Y24043D1*
Y24013D1*
Y23983D1*
Y23953D1*
Y23923D1*
Y23893D1*
Y23863D1*
Y23833D1*
Y23803D1*
Y23773D1*
Y23743D1*
Y23713D1*
Y23683D1*
Y23654D1*
Y23624D1*
Y23594D1*
Y23564D1*
Y23534D1*
Y23504D1*
Y23474D1*
Y23444D1*
Y23414D1*
Y23384D1*
Y23354D1*
Y23324D1*
Y23294D1*
Y23265D1*
Y23235D1*
Y23205D1*
Y23175D1*
Y23145D1*
Y23115D1*
Y23085D1*
Y23055D1*
Y23025D1*
Y22995D1*
Y22965D1*
Y22935D1*
Y22906D1*
Y22876D1*
Y22846D1*
Y22816D1*
Y22786D1*
Y22756D1*
Y22726D1*
Y22696D1*
Y22666D1*
Y22636D1*
Y22606D1*
Y22576D1*
Y22546D1*
Y22517D1*
Y22487D1*
Y22457D1*
Y22427D1*
Y22397D1*
Y22367D1*
Y22337D1*
Y22307D1*
Y22277D1*
Y22247D1*
Y22217D1*
Y22187D1*
Y22157D1*
Y22128D1*
Y22098D1*
Y22068D1*
Y22038D1*
Y22008D1*
Y21978D1*
Y21948D1*
Y21918D1*
Y21888D1*
Y21858D1*
Y21828D1*
Y21798D1*
Y21769D1*
Y21739D1*
Y21709D1*
Y21679D1*
Y21649D1*
Y21619D1*
Y21589D1*
Y21559D1*
Y21529D1*
Y21499D1*
Y21469D1*
Y21439D1*
Y21409D1*
Y21380D1*
Y21350D1*
Y21320D1*
X33212Y26676D2*
Y26646D1*
Y26616D1*
Y26586D1*
Y26556D1*
Y26526D1*
X33002D1*
Y26496D1*
Y26466D1*
Y26436D1*
Y26406D1*
Y26376D1*
X32853D1*
Y26346D1*
Y26317D1*
Y26287D1*
Y26257D1*
Y26227D1*
Y26197D1*
Y26167D1*
Y26137D1*
Y26107D1*
Y26077D1*
Y26047D1*
Y26017D1*
Y25987D1*
Y25957D1*
Y25928D1*
Y25898D1*
Y25868D1*
Y25838D1*
Y25808D1*
Y25778D1*
Y25748D1*
Y25718D1*
Y25688D1*
Y25658D1*
Y25628D1*
Y25598D1*
Y25569D1*
Y25539D1*
Y25509D1*
Y25479D1*
Y25449D1*
Y25419D1*
Y25389D1*
Y25359D1*
Y25329D1*
Y25299D1*
Y25269D1*
Y25239D1*
Y25209D1*
Y25180D1*
Y25150D1*
Y25120D1*
Y25090D1*
Y25060D1*
Y25030D1*
Y25000D1*
Y24970D1*
Y24940D1*
Y24910D1*
Y24880D1*
Y24850D1*
Y24820D1*
Y24791D1*
Y24761D1*
Y24731D1*
Y24701D1*
Y24671D1*
Y24641D1*
Y24611D1*
Y24581D1*
Y24551D1*
Y24521D1*
Y24491D1*
Y24461D1*
Y24431D1*
Y24402D1*
Y24372D1*
Y24342D1*
Y24312D1*
Y24282D1*
Y24252D1*
Y24222D1*
Y24192D1*
Y24162D1*
Y24132D1*
Y24102D1*
Y24072D1*
Y24043D1*
Y24013D1*
Y23983D1*
Y23953D1*
Y23923D1*
Y23893D1*
Y23863D1*
Y23833D1*
Y23803D1*
Y23773D1*
Y23743D1*
Y23713D1*
Y23683D1*
Y23654D1*
Y23624D1*
Y23594D1*
Y23564D1*
Y23534D1*
Y23504D1*
Y23474D1*
Y23444D1*
Y23414D1*
Y23384D1*
Y23354D1*
Y23324D1*
Y23294D1*
Y23265D1*
Y23235D1*
Y23205D1*
Y23175D1*
Y23145D1*
Y23115D1*
Y23085D1*
Y23055D1*
Y23025D1*
Y22995D1*
Y22965D1*
Y22935D1*
Y22906D1*
Y22876D1*
Y22846D1*
Y22816D1*
Y22786D1*
Y22756D1*
Y22726D1*
Y22696D1*
Y22666D1*
Y22636D1*
Y22606D1*
Y22576D1*
Y22546D1*
Y22517D1*
Y22487D1*
Y22457D1*
Y22427D1*
Y22397D1*
Y22367D1*
Y22337D1*
Y22307D1*
Y22277D1*
Y22247D1*
Y22217D1*
Y22187D1*
Y22157D1*
Y22128D1*
Y22098D1*
Y22068D1*
Y22038D1*
Y22008D1*
Y21978D1*
Y21948D1*
Y21918D1*
Y21888D1*
Y21858D1*
Y21828D1*
Y21798D1*
Y21769D1*
Y21739D1*
Y21709D1*
Y21679D1*
Y21649D1*
Y21619D1*
Y21589D1*
Y21559D1*
Y21529D1*
Y21499D1*
Y21469D1*
Y21439D1*
Y21409D1*
Y21380D1*
Y21350D1*
Y21320D1*
X34199Y26676D2*
Y26646D1*
Y26616D1*
Y26586D1*
Y26556D1*
Y26526D1*
X34409D1*
Y26496D1*
Y26466D1*
Y26436D1*
Y26406D1*
Y26376D1*
X34558D1*
Y26346D1*
Y26317D1*
Y26287D1*
Y26257D1*
Y26227D1*
Y26197D1*
Y26167D1*
Y26137D1*
Y26107D1*
Y26077D1*
Y26047D1*
Y26017D1*
Y25987D1*
Y25957D1*
Y25928D1*
Y25898D1*
Y25868D1*
Y25838D1*
Y25808D1*
Y25778D1*
Y25748D1*
Y25718D1*
Y25688D1*
Y25658D1*
Y25628D1*
Y25598D1*
Y25569D1*
Y25539D1*
Y25509D1*
Y25479D1*
Y25449D1*
Y25419D1*
Y25389D1*
Y25359D1*
Y25329D1*
Y25299D1*
Y25269D1*
Y25239D1*
Y25209D1*
Y25180D1*
Y25150D1*
Y25120D1*
Y25090D1*
Y25060D1*
Y25030D1*
Y25000D1*
Y24970D1*
Y24940D1*
Y24910D1*
Y24880D1*
Y24850D1*
Y24820D1*
Y24791D1*
Y24761D1*
Y24731D1*
Y24701D1*
Y24671D1*
Y24641D1*
Y24611D1*
Y24581D1*
Y24551D1*
Y24521D1*
Y24491D1*
Y24461D1*
Y24431D1*
Y24402D1*
Y24372D1*
Y24342D1*
Y24312D1*
Y24282D1*
Y24252D1*
Y24222D1*
Y24192D1*
Y24162D1*
Y24132D1*
Y24102D1*
Y24072D1*
Y24043D1*
Y24013D1*
Y23983D1*
Y23953D1*
Y23923D1*
Y23893D1*
Y23863D1*
Y23833D1*
Y23803D1*
Y23773D1*
Y23743D1*
Y23713D1*
Y23683D1*
Y23654D1*
Y23624D1*
Y23594D1*
Y23564D1*
Y23534D1*
Y23504D1*
Y23474D1*
Y23444D1*
Y23414D1*
Y23384D1*
Y23354D1*
Y23324D1*
Y23294D1*
Y23265D1*
Y23235D1*
Y23205D1*
Y23175D1*
Y23145D1*
Y23115D1*
Y23085D1*
Y23055D1*
Y23025D1*
Y22995D1*
Y22965D1*
Y22935D1*
Y22906D1*
Y22876D1*
Y22846D1*
Y22816D1*
Y22786D1*
Y22756D1*
Y22726D1*
Y22696D1*
Y22666D1*
Y22636D1*
Y22606D1*
Y22576D1*
Y22546D1*
Y22517D1*
Y22487D1*
Y22457D1*
Y22427D1*
Y22397D1*
Y22367D1*
Y22337D1*
Y22307D1*
Y22277D1*
Y22247D1*
Y22217D1*
Y22187D1*
Y22157D1*
Y22128D1*
Y22098D1*
Y22068D1*
Y22038D1*
Y22008D1*
Y21978D1*
Y21948D1*
Y21918D1*
Y21888D1*
Y21858D1*
Y21828D1*
Y21798D1*
Y21769D1*
Y21739D1*
Y21709D1*
Y21679D1*
Y21649D1*
Y21619D1*
Y21589D1*
Y21559D1*
Y21529D1*
Y21499D1*
Y21469D1*
Y21439D1*
Y21409D1*
Y21380D1*
Y21350D1*
Y21320D1*
X24475Y24013D2*
Y23983D1*
Y23953D1*
Y23923D1*
Y23893D1*
Y23863D1*
Y23833D1*
Y23803D1*
Y23773D1*
Y23743D1*
Y23713D1*
Y23683D1*
Y23654D1*
Y23624D1*
Y23594D1*
Y23564D1*
Y23534D1*
Y23504D1*
Y23474D1*
Y23444D1*
X24355D1*
Y23414D1*
Y23384D1*
Y23354D1*
Y23324D1*
Y23294D1*
X24146D1*
Y23265D1*
Y23235D1*
Y23205D1*
Y23175D1*
X26390Y24013D2*
Y23983D1*
Y23953D1*
Y23923D1*
Y23893D1*
Y23863D1*
Y23833D1*
Y23803D1*
Y23773D1*
Y23743D1*
Y23713D1*
Y23683D1*
Y23654D1*
Y23624D1*
Y23594D1*
Y23564D1*
Y23534D1*
Y23504D1*
Y23474D1*
Y23444D1*
Y23414D1*
Y23384D1*
Y23354D1*
Y23324D1*
Y23294D1*
Y23265D1*
Y23235D1*
Y23205D1*
Y23175D1*
Y23145D1*
Y23115D1*
X26387Y23085D1*
X26383Y23055D1*
X26366Y23025D1*
X26350Y22995D1*
X26340Y22965D1*
X26334Y22935D1*
X26332Y22906D1*
X26331Y22876D1*
X26330Y22846D1*
Y22816D1*
Y22786D1*
Y22756D1*
Y22726D1*
X26240D1*
Y22696D1*
X26238Y22666D1*
X26233Y22636D1*
X26217Y22606D1*
X26201Y22576D1*
X26190Y22546D1*
X26185Y22517D1*
X26182Y22487D1*
X26180Y22457D1*
X26120D1*
Y22427D1*
Y22397D1*
Y22367D1*
Y22337D1*
Y22307D1*
X26031D1*
Y22277D1*
Y22247D1*
Y22217D1*
Y22187D1*
Y22157D1*
X25911D1*
Y22128D1*
Y22098D1*
Y22068D1*
Y22038D1*
X25761D1*
Y22008D1*
Y21978D1*
Y21948D1*
Y21918D1*
Y21888D1*
X25612D1*
Y21858D1*
Y21828D1*
Y21798D1*
Y21769D1*
Y21739D1*
X25432D1*
Y21709D1*
Y21679D1*
Y21649D1*
Y21619D1*
Y21589D1*
X25223D1*
Y21559D1*
Y21529D1*
Y21499D1*
Y21469D1*
X20465D2*
Y21439D1*
Y21409D1*
Y21380D1*
Y21350D1*
Y21320D1*
X24864Y21469D2*
Y21439D1*
Y21409D1*
Y21380D1*
Y21350D1*
Y21320D1*
X20922Y31243D2*
D61*
Y30439D1*
Y30822D2*
X21037Y30937D1*
X21113Y30975D1*
X21228D1*
X21304Y30937D1*
X21343Y30822D1*
Y30439D1*
X21704Y31243D2*
Y30592D1*
X21743Y30478D1*
X21819Y30439D1*
X21896D1*
X21590Y30975D2*
X21857D1*
X22257Y31243D2*
Y30592D1*
X22296Y30478D1*
X22372Y30439D1*
X22449D1*
X22143Y30975D2*
X22410D1*
X22696D2*
Y30171D1*
Y30860D2*
X22772Y30936D1*
X22849Y30975D1*
X22963D1*
X23040Y30936D1*
X23116Y30860D1*
X23155Y30745D1*
Y30668D1*
X23116Y30554D1*
X23040Y30477D1*
X22963Y30439D1*
X22849D1*
X22772Y30477D1*
X22696Y30554D1*
X23823Y30860D2*
X23785Y30937D1*
X23670Y30975D1*
X23555D1*
X23440Y30937D1*
X23402Y30860D1*
X23440Y30784D1*
X23517Y30745D1*
X23708Y30707D1*
X23785Y30669D1*
X23823Y30592D1*
Y30554D1*
X23785Y30478D1*
X23670Y30439D1*
X23555D1*
X23440Y30478D1*
X23402Y30554D1*
X24109Y30975D2*
X24070Y30936D1*
X24109Y30898D1*
X24147Y30936D1*
X24109Y30975D1*
Y30516D2*
X24070Y30477D1*
X24109Y30439D1*
X24147Y30477D1*
X24109Y30516D1*
X24394Y30439D2*
X24930Y31242D1*
X25177Y30439D2*
X25713Y31242D1*
X26419Y30937D2*
Y30324D1*
X26381Y30210D1*
X26343Y30171D1*
X26266Y30133D1*
X26151D1*
X26075Y30171D1*
X26419Y30822D2*
X26343Y30898D1*
X26266Y30937D1*
X26151D1*
X26075Y30898D1*
X25998Y30822D1*
X25960Y30707D1*
Y30630D1*
X25998Y30516D1*
X26075Y30439D1*
X26151Y30401D1*
X26266D1*
X26343Y30439D1*
X26419Y30516D1*
X26666Y31243D2*
X26704Y31205D1*
X26743Y31243D1*
X26704Y31282D1*
X26666Y31243D1*
X26704Y30975D2*
Y30439D1*
X27105Y31243D2*
Y30592D1*
X27143Y30478D1*
X27220Y30439D1*
X27296D1*
X26990Y30975D2*
X27258D1*
X27543Y31243D2*
Y30439D1*
Y30822D2*
X27658Y30937D1*
X27735Y30975D1*
X27850D1*
X27926Y30937D1*
X27964Y30822D1*
Y30439D1*
X28211Y30975D2*
Y30592D1*
X28249Y30478D1*
X28326Y30439D1*
X28441D1*
X28517Y30478D1*
X28632Y30592D1*
Y30975D2*
Y30439D1*
X28879Y31243D2*
Y30439D1*
Y30860D2*
X28956Y30937D1*
X29032Y30975D1*
X29147D1*
X29223Y30937D1*
X29300Y30860D1*
X29338Y30745D1*
Y30669D1*
X29300Y30554D1*
X29223Y30478D1*
X29147Y30439D1*
X29032D1*
X28956Y30478D1*
X28879Y30554D1*
X29623Y30516D2*
X29585Y30477D1*
X29623Y30439D1*
X29662Y30477D1*
X29623Y30516D1*
X30369Y30860D2*
X30292Y30937D1*
X30215Y30975D1*
X30101D1*
X30024Y30937D1*
X29948Y30860D1*
X29909Y30745D1*
Y30669D1*
X29948Y30554D1*
X30024Y30478D1*
X30101Y30439D1*
X30215D1*
X30292Y30478D1*
X30369Y30554D1*
X30807Y30975D2*
X30731Y30937D1*
X30654Y30860D1*
X30616Y30745D1*
Y30669D1*
X30654Y30554D1*
X30731Y30478D1*
X30807Y30439D1*
X30922D1*
X30999Y30478D1*
X31075Y30554D1*
X31114Y30669D1*
Y30745D1*
X31075Y30860D1*
X30999Y30937D1*
X30922Y30975D1*
X30807D1*
X31361D2*
Y30439D1*
Y30822D2*
X31476Y30937D1*
X31553Y30975D1*
X31667D1*
X31744Y30937D1*
X31782Y30822D1*
Y30439D1*
Y30822D2*
X31897Y30937D1*
X31974Y30975D1*
X32088D1*
X32165Y30937D1*
X32204Y30822D1*
Y30439D1*
X32451D2*
X32986Y31242D1*
X33731Y31243D2*
X33233D1*
Y30439D1*
Y30860D2*
X33539D1*
X34437Y30975D2*
Y30439D1*
Y30860D2*
X34361Y30937D1*
X34284Y30975D1*
X34170D1*
X34093Y30937D1*
X34017Y30860D1*
X33978Y30745D1*
Y30669D1*
X34017Y30554D1*
X34093Y30478D1*
X34170Y30439D1*
X34284D1*
X34361Y30478D1*
X34437Y30554D1*
X34684Y31243D2*
Y30439D1*
Y30860D2*
X34761Y30937D1*
X34837Y30975D1*
X34952D1*
X35028Y30937D1*
X35105Y30860D1*
X35143Y30745D1*
Y30669D1*
X35105Y30554D1*
X35028Y30478D1*
X34952Y30439D1*
X34837D1*
X34761Y30478D1*
X34684Y30554D1*
X35696Y31243D2*
X35620D1*
X35543Y31205D1*
X35505Y31090D1*
Y30439D1*
X35390Y30975D2*
X35658D1*
X36555Y30439D2*
Y31243D1*
X36249Y30439D1*
X35943Y31243D1*
Y30439D1*
X37338Y31128D2*
X37262Y31205D1*
X37147Y31243D1*
X36994D1*
X36879Y31205D1*
X36802Y31128D1*
Y31052D1*
X36841Y30975D1*
X36879Y30937D1*
X36955Y30899D1*
X37185Y30822D1*
X37262Y30784D1*
X37300Y30745D1*
X37338Y30669D1*
Y30554D1*
X37262Y30478D1*
X37147Y30439D1*
X36994D1*
X36879Y30478D1*
X36802Y30554D1*
X37585Y31243D2*
X38121Y30439D1*
Y31243D2*
X37585Y30439D1*
M02*
